<svg width="24" height="24" viewBox="0 0 24 24" fill="none" xmlns="http://www.w3.org/2000/svg">
<path fill-rule="evenodd" clip-rule="evenodd" d="M15.5 3.25C15.9142 3.25 16.25 3.58579 16.25 4V7.75H20C20.4142 7.75 20.75 8.08579 20.75 8.5C20.75 8.91421 20.4142 9.25 20 9.25H16.25V14.75H20C20.4142 14.75 20.75 15.0858 20.75 15.5C20.75 15.9142 20.4142 16.25 20 16.25H16.25V20C16.25 20.4142 15.9142 20.75 15.5 20.75C15.0858 20.75 14.75 20.4142 14.75 20V16.25H9.25V20C9.25 20.4142 8.91421 20.75 8.5 20.75C8.08579 20.75 7.75 20.4142 7.75 20V16.25H4C3.58579 16.25 3.25 15.9142 3.25 15.5C3.25 15.0858 3.58579 14.75 4 14.75H7.75V9.25H4C3.58579 9.25 3.25 8.91421 3.25 8.5C3.25 8.08579 3.58579 7.75 4 7.75H7.75V4C7.75 3.58579 8.08579 3.25 8.5 3.25C8.91421 3.25 9.25 3.58579 9.25 4V7.75H14.75V4C14.75 3.58579 15.0858 3.25 15.5 3.25ZM9.25 9.25V14.75H14.75V9.25H9.25Z" fill="currentColor"/>
</svg>