<svg width="24" height="24" viewBox="0 0 24 24" fill="none" xmlns="http://www.w3.org/2000/svg">
<path fill-rule="evenodd" clip-rule="evenodd" d="M15.5 3C16.0523 3 16.5 3.44772 16.5 4V7.5H20C20.5523 7.5 21 7.94772 21 8.5C21 9.05228 20.5523 9.5 20 9.5H16.5V14.5H20C20.5523 14.5 21 14.9477 21 15.5C21 16.0523 20.5523 16.5 20 16.5H16.5V20C16.5 20.5523 16.0523 21 15.5 21C14.9477 21 14.5 20.5523 14.5 20V16.5H9.5V20C9.5 20.5523 9.05228 21 8.5 21C7.94772 21 7.5 20.5523 7.5 20V16.5H4C3.44772 16.5 3 16.0523 3 15.5C3 14.9477 3.44772 14.5 4 14.5H7.5V9.5H4C3.44772 9.5 3 9.05228 3 8.5C3 7.94772 3.44772 7.5 4 7.5H7.5V4C7.5 3.44772 7.94772 3 8.5 3C9.05228 3 9.5 3.44772 9.5 4V7.5H14.5V4C14.5 3.44772 14.9477 3 15.5 3ZM9.5 9.5V14.5H14.5V9.5H9.5Z" fill="currentColor"/>
</svg>