<svg width="24" height="24" viewBox="0 0 24 24" fill="none" xmlns="http://www.w3.org/2000/svg">
<path d="M14 20C14.5523 20 15 20.4477 15 21C15 21.5523 14.5523 22 14 22H10C9.44772 22 9 21.5523 9 21C9 20.4477 9.44772 20 10 20H14Z" fill="currentColor"/>
<path fill-rule="evenodd" clip-rule="evenodd" d="M12 2C16.4183 2 20 5.58172 20 10V13C20 13.847 20.215 14.7163 20.4854 15.3652C20.621 15.6908 20.7552 15.9243 20.8545 16.0566C20.8577 16.0609 20.8613 16.0645 20.8643 16.0684C21.2364 16.214 21.5 16.5762 21.5 17C21.5 17.5523 21.0523 18 20.5 18H3.5C2.94772 18 2.5 17.5523 2.5 17C2.5 16.5762 2.76357 16.214 3.13574 16.0684C3.13869 16.0645 3.14231 16.0609 3.14551 16.0566C3.24476 15.9243 3.37901 15.6908 3.51465 15.3652C3.78502 14.7163 4 13.847 4 13V10C4 5.58172 7.58172 2 12 2ZM12 4C8.68629 4 6 6.68629 6 10V13C6 14.0934 5.74202 15.1662 5.41309 16H18.5869C18.258 15.1662 18 14.0934 18 13V10C18 6.68629 15.3137 4 12 4Z" fill="currentColor"/>
</svg>