<svg width="24" height="24" viewBox="0 0 24 24" fill="none" xmlns="http://www.w3.org/2000/svg">
<path fill-rule="evenodd" clip-rule="evenodd" d="M19.0459 4.25C20.5393 4.25004 21.75 5.46068 21.75 6.9541C21.75 6.96388 21.7491 6.97364 21.749 6.9834C21.7491 6.98893 21.75 6.99446 21.75 7V17C21.75 18.5188 20.5188 19.75 19 19.75H5C3.48122 19.75 2.25 18.5188 2.25 17V6.9541C2.25004 5.46068 3.46068 4.25004 4.9541 4.25H19.0459ZM14.6348 13.1445C13.0392 14.2082 10.9608 14.2082 9.36523 13.1445L3.75 9.40039V17C3.75 17.6904 4.30964 18.25 5 18.25H19C19.6904 18.25 20.25 17.6904 20.25 17V9.40039L14.6348 13.1445ZM5 5.75C4.31813 5.75 3.76451 6.29598 3.75098 6.97461C3.75769 7.36942 3.95688 7.73651 4.28613 7.95605L10.1973 11.8965C11.2889 12.6243 12.7111 12.6243 13.8027 11.8965L19.7139 7.95605C20.0431 7.73652 20.2413 7.36942 20.248 6.97461C20.2345 6.29599 19.6819 5.75 19 5.75H5Z" fill="currentColor"/>
</svg>