<svg width="24" height="24" viewBox="0 0 24 24" fill="none" xmlns="http://www.w3.org/2000/svg">
<path d="M4.79297 4.29297C5.18349 3.90244 5.81651 3.90244 6.20703 4.29297L20.207 18.293C20.5975 18.6835 20.5975 19.3165 20.207 19.707C19.8165 20.0975 19.1835 20.0975 18.793 19.707L16.2568 17.1709C15.3068 17.8272 14.1986 18.2709 13 18.4307V20H16C16.5522 20 17 20.4477 17 21C16.9999 21.5522 16.5522 22 16 22H8C7.44775 22 7.00005 21.5522 7 21C7 20.4477 7.44772 20 8 20H11V18.4307C7.33084 17.9416 4.50005 14.8029 4.5 11C4.5 10.4477 4.94772 10 5.5 10C6.05224 10 6.5 10.4477 6.5 11C6.50005 14.0375 8.96247 16.5 12 16.5C13.0277 16.5 13.9879 16.2156 14.8105 15.7246L13.7041 14.6182C13.187 14.8622 12.6097 15 12 15C9.7909 15 8.00005 13.2091 8 11V8.91406L4.79297 5.70703C4.40245 5.31651 4.40245 4.68349 4.79297 4.29297Z" fill="currentColor"/>
<path d="M18.5 10C19.0522 10 19.5 10.4477 19.5 11C19.5 12.2289 19.2017 13.387 18.6777 14.4102L17.1631 12.8955C17.3802 12.3045 17.5 11.6663 17.5 11C17.5 10.4477 17.9477 10 18.5 10Z" fill="currentColor"/>
<path d="M12 2C14.2091 2.00005 16 3.79089 16 6V11C16 11.23 15.9797 11.4554 15.9424 11.6748L8.44141 4.17383C9.10502 2.88328 10.449 2.00001 12 2Z" fill="currentColor"/>
</svg>