<svg width="24" height="24" viewBox="0 0 24 24" fill="none" xmlns="http://www.w3.org/2000/svg">
<path d="M12 6.25058C12.3228 6.25059 12.6098 6.45703 12.7119 6.76327L15.5 15.1275L18.2881 6.76327C18.4191 6.37032 18.8443 6.15768 19.2373 6.28866C19.6302 6.41971 19.8429 6.84497 19.7119 7.23788L18.541 10.7506H21C21.4142 10.7506 21.75 11.0864 21.75 11.5006C21.7498 11.9146 21.4141 12.2506 21 12.2506H18.041L16.2119 17.7379C16.1097 18.0439 15.8227 18.2506 15.5 18.2506C15.1773 18.2506 14.8903 18.0439 14.7881 17.7379L12 9.37362L9.21191 17.7379C9.10973 18.0439 8.82269 18.2506 8.5 18.2506C8.17731 18.2506 7.89028 18.0439 7.78809 17.7379L5.95898 12.2506H3C2.58592 12.2506 2.25022 11.9146 2.25 11.5006C2.25 11.0864 2.58579 10.7506 3 10.7506H5.45898L4.28809 7.23788C4.15711 6.84495 4.3698 6.41968 4.7627 6.28866C5.15565 6.15768 5.58093 6.37031 5.71191 6.76327L8.5 15.1275L11.2881 6.76327L11.335 6.6539C11.4625 6.40895 11.7174 6.25058 12 6.25058Z" fill="currentColor"/>
</svg>