<svg width="24" height="24" viewBox="0 0 24 24" fill="none" xmlns="http://www.w3.org/2000/svg">
<path d="M17.8145 6.60454C18.0329 5.94984 18.7407 5.59628 19.3955 5.8145C20.0502 6.03292 20.4038 6.74074 20.1855 7.39556L19.2344 10.25H21C21.6903 10.25 22.25 10.8097 22.25 11.5C22.25 12.1904 21.6904 12.75 21 12.75H18.4004L16.6855 17.8956C16.5153 18.4058 16.0379 18.75 15.5 18.75C14.9621 18.75 14.4847 18.4058 14.3145 17.8956L12 10.9522L9.68555 17.8956C9.51532 18.4058 9.03793 18.75 8.5 18.75C7.96209 18.75 7.48467 18.4058 7.31445 17.8956L5.59961 12.75H3C2.30964 12.75 1.75 12.1904 1.75 11.5C1.75003 10.8097 2.30966 10.25 3 10.25H4.76562L3.81445 7.39556C3.59623 6.74076 3.94979 6.03293 4.60449 5.8145C5.2593 5.59623 5.9671 5.94984 6.18555 6.60454L8.5 13.5479L10.8145 6.60454L10.8496 6.51079C11.0443 6.05255 11.4957 5.75007 12 5.75005C12.5379 5.75005 13.0153 6.09431 13.1855 6.60454L15.5 13.5479L17.8145 6.60454Z" fill="currentColor"/>
</svg>