<svg width="24" height="24" viewBox="0 0 24 24" fill="none" xmlns="http://www.w3.org/2000/svg">
<path d="M12 14.25C12.6904 14.25 13.25 14.8096 13.25 15.5C13.25 16.1904 12.6904 16.75 12 16.75C11.3096 16.75 10.75 16.1904 10.75 15.5C10.75 14.8096 11.3096 14.25 12 14.25Z" fill="currentColor"/>
<path d="M12 7.5C12.5523 7.5 13 7.94772 13 8.5V12C13 12.5523 12.5523 13 12 13C11.4477 13 11 12.5523 11 12V8.5C11 7.94772 11.4477 7.5 12 7.5Z" fill="currentColor"/>
<path fill-rule="evenodd" clip-rule="evenodd" d="M12 2C17.5228 2 22 6.47715 22 12C22 17.5228 17.5228 22 12 22C6.47715 22 2 17.5228 2 12C2 6.47715 6.47715 2 12 2ZM12 4C7.58172 4 4 7.58172 4 12C4 16.4183 7.58172 20 12 20C16.4183 20 20 16.4183 20 12C20 7.58172 16.4183 4 12 4Z" fill="currentColor"/>
</svg>