<svg width="24" height="24" viewBox="0 0 24 24" fill="none" xmlns="http://www.w3.org/2000/svg">
<path d="M20 4.75C20.5523 4.75 21 5.19772 21 5.75C21 6.30228 20.5523 6.75 20 6.75H4C3.44772 6.75 3 6.30228 3 5.75C3 5.19772 3.44772 4.75 4 4.75H20Z" fill="currentColor"/>
<path d="M20 11C20.5523 11 21 11.4477 21 12C21 12.5523 20.5523 13 20 13H4C3.44772 13 3 12.5523 3 12C3 11.4477 3.44772 11 4 11H20Z" fill="currentColor"/>
<path d="M14 17.25C14.5523 17.25 15 17.6977 15 18.25C15 18.8023 14.5523 19.25 14 19.25H4C3.44772 19.25 3 18.8023 3 18.25C3 17.6977 3.44772 17.25 4 17.25H14Z" fill="currentColor"/>
</svg>