<svg width="24" height="24" viewBox="0 0 24 24" fill="none" xmlns="http://www.w3.org/2000/svg">
<path d="M17 9.25C17.4142 9.25 17.75 9.58579 17.75 10C17.75 10.4142 17.4142 10.75 17 10.75H7C6.58579 10.75 6.25 10.4142 6.25 10C6.25 9.58579 6.58579 9.25 7 9.25H17Z" fill="currentColor"/>
<path d="M17 17.25C17.4142 17.25 17.75 17.5858 17.75 18C17.75 18.4142 17.4142 18.75 17 18.75H7C6.58579 18.75 6.25 18.4142 6.25 18C6.25 17.5858 6.58579 17.25 7 17.25H17Z" fill="currentColor"/>
<path d="M19.5 13.25C19.9142 13.25 20.25 13.5858 20.25 14C20.25 14.4142 19.9142 14.75 19.5 14.75H4.5C4.08579 14.75 3.75 14.4142 3.75 14C3.75 13.5858 4.08579 13.25 4.5 13.25H19.5Z" fill="currentColor"/>
<path d="M19.5 5.25C19.9142 5.25 20.25 5.58579 20.25 6C20.25 6.41421 19.9142 6.75 19.5 6.75H4.5C4.08579 6.75 3.75 6.41421 3.75 6C3.75 5.58579 4.08579 5.25 4.5 5.25H19.5Z" fill="currentColor"/>
</svg>