<svg width="24" height="24" viewBox="0 0 24 24" fill="none" xmlns="http://www.w3.org/2000/svg">
<path d="M4.60352 16.251C4.9478 16.251 5.22656 16.5297 5.22656 16.874C5.22652 17.0659 5.13856 17.2471 4.9873 17.3652L4.34863 17.8633V17.8906C5.01685 18.0812 5.3846 18.5176 5.38184 19.0615C5.3873 19.7297 4.81258 20.3262 3.77441 20.3262C3.15717 20.3261 2.66441 20.1142 2.3584 19.7412C2.18317 19.5276 2.32858 19.2324 2.59082 19.1455C2.83759 19.064 3.10702 19.2128 3.33887 19.3408L3.37402 19.3604C3.489 19.4235 3.62645 19.459 3.77441 19.459C4.14153 19.459 4.37645 19.2466 4.37109 18.9844C4.37744 18.6419 4.06072 18.5409 3.73633 18.5127C3.4686 18.4894 3.25 18.2853 3.25 18.0166C3.25013 17.8736 3.31362 17.7379 3.42285 17.6455L4.00098 17.1562V17.1338H2.83594C2.59197 17.1338 2.39361 16.9363 2.39355 16.6924C2.39355 16.4484 2.59194 16.251 2.83594 16.251H4.60352Z" fill="currentColor"/>
<path d="M20 17.252C20.5523 17.252 21 17.6997 21 18.252C21 18.8042 20.5523 19.252 20 19.252H8.5C7.94772 19.252 7.5 18.8042 7.5 18.252C7.5 17.6997 7.94772 17.252 8.5 17.252H20Z" fill="currentColor"/>
<path d="M3.72461 9.92285C4.69656 9.92285 5.23552 10.5692 5.23828 11.2871C5.23544 11.8006 4.9421 12.1539 4.44238 12.5625L3.80176 13.0703V13.0928H4.84082C5.09075 13.093 5.29297 13.2959 5.29297 13.5459C5.2928 13.7957 5.09065 13.9979 4.84082 13.998H2.82129C2.51249 13.998 2.26194 13.7482 2.26172 13.4395C2.26172 13.2726 2.33621 13.1141 2.46484 13.0078L3.78613 11.916C4.08391 11.6458 4.22468 11.483 4.22754 11.2871C4.22478 11.0414 4.04215 10.8367 3.72461 10.834C3.61772 10.8353 3.51695 10.859 3.42969 10.9199C3.40003 10.9407 3.36991 10.9625 3.33984 10.9844C3.14212 11.1279 2.93396 11.2793 2.70215 11.2256C2.42928 11.1623 2.25193 10.8801 2.39062 10.6367C2.66359 10.1579 3.13492 9.92293 3.72461 9.92285Z" fill="currentColor"/>
<path d="M20 11.002C20.5523 11.002 21 11.4497 21 12.002C21 12.5542 20.5523 13.002 20 13.002H8.5C7.94772 13.002 7.5 12.5542 7.5 12.002C7.5 11.4497 7.94772 11.002 8.5 11.002H20Z" fill="currentColor"/>
<path d="M3.66699 3.75C4.10144 3.75011 4.45384 4.1027 4.4541 4.53711V6.84277H4.91797C5.16797 6.84288 5.37109 7.04587 5.37109 7.2959C5.37109 7.54593 5.16797 7.74892 4.91797 7.74902H2.79688C2.54691 7.74887 2.34473 7.5459 2.34473 7.2959C2.34473 7.0459 2.54691 6.84292 2.79688 6.84277H3.43262V4.86035H3.41602L3.12207 5.05273C2.8162 5.25247 2.41016 5.03237 2.41016 4.66699C2.41031 4.51196 2.48938 4.3671 2.61914 4.28223L3.23633 3.87891C3.36435 3.79524 3.51405 3.75 3.66699 3.75Z" fill="currentColor"/>
<path d="M20 4.75195C20.5523 4.75195 21 5.19967 21 5.75195C21 6.30424 20.5523 6.75195 20 6.75195H8.5C7.94772 6.75195 7.5 6.30424 7.5 5.75195C7.5 5.19967 7.94772 4.75195 8.5 4.75195H20Z" fill="currentColor"/>
</svg>