<svg width="24" height="24" viewBox="0 0 24 24" fill="none" xmlns="http://www.w3.org/2000/svg">
<path d="M9 8.89453C9.00018 8.11236 9.85822 7.633 10.5244 8.04297L15.5703 11.1484C16.2046 11.539 16.2046 12.461 15.5703 12.8516L10.5244 15.957C9.85822 16.367 9.00018 15.8876 9 15.1055V8.89453Z" fill="currentColor"/>
<path fill-rule="evenodd" clip-rule="evenodd" d="M12 2.25C17.3848 2.25 21.75 6.61522 21.75 12C21.75 13.5775 21.3734 15.0684 20.707 16.3877C20.6651 16.4706 20.6607 16.548 20.6748 16.6045L21.3232 19.2012C21.6435 20.4829 20.4828 21.6437 19.2012 21.3232L16.6055 20.6738C16.5489 20.6597 16.4716 20.6641 16.3887 20.7061C15.0692 21.3728 13.5781 21.75 12 21.75C6.61522 21.75 2.25 17.3848 2.25 12C2.25 6.61522 6.61522 2.25 12 2.25ZM12 3.75C7.44365 3.75 3.75 7.44365 3.75 12C3.75 16.5563 7.44365 20.25 12 20.25C13.3365 20.25 14.5963 19.9309 15.7119 19.3672C16.0848 19.1788 16.5299 19.1091 16.9688 19.2188L19.5654 19.8682C19.7484 19.9136 19.9139 19.7474 19.8682 19.5645L19.2197 16.9678C19.1101 16.5291 19.18 16.0846 19.3682 15.7119C19.9315 14.5966 20.25 13.3364 20.25 12C20.25 7.44365 16.5563 3.75 12 3.75Z" fill="currentColor"/>
</svg>