<svg width="24" height="24" viewBox="0 0 24 24" fill="none" xmlns="http://www.w3.org/2000/svg">
<path fill-rule="evenodd" clip-rule="evenodd" d="M12.3674 1.00645C12.7334 1.0187 13.0953 1.04929 13.4512 1.09668C14.6308 1.25389 15.1907 2.28237 15.3634 2.99375C15.5007 3.55914 15.8585 4.06565 16.4 4.37842L16.6062 4.48369C17.0945 4.70151 17.6282 4.72601 18.1166 4.58252C18.8183 4.37632 19.987 4.34748 20.713 5.28828C21.3026 6.05279 21.7943 6.89796 22.1685 7.8041C22.6228 8.90456 22.0112 9.90368 21.4821 10.408C21.0606 10.8098 20.8001 11.3738 20.8 12L20.8118 12.232C20.8676 12.7645 21.1133 13.2404 21.4821 13.592C22.0113 14.0964 22.6231 15.0955 22.1685 16.1959C21.7942 17.1018 21.3025 17.9465 20.713 18.7106C19.987 19.6512 18.8184 19.6225 18.1166 19.4164C17.5581 19.2524 16.9412 19.3082 16.4 19.6205C15.8587 19.9332 15.5007 20.4402 15.3634 21.0063C15.1904 21.7178 14.6306 22.7455 13.4523 22.9033C13.0965 22.951 12.7347 22.9811 12.3684 22.9936L12 23C11.5069 23 11.0215 22.9669 10.5466 22.9033C9.36816 22.7454 8.80812 21.717 8.63552 21.0052C8.49824 20.4391 8.14088 19.9329 7.59997 19.6205C7.05859 19.3081 6.441 19.2522 5.8823 19.4164C5.1804 19.6225 4.01177 19.6511 3.28591 18.7106C2.69655 17.9466 2.20463 17.1017 1.83035 16.1959C1.3759 15.0957 1.98736 14.0965 2.51677 13.592C2.88629 13.2401 3.13246 12.7638 3.18816 12.231L3.19997 12C3.19984 11.3739 2.9387 10.8099 2.51677 10.408C1.98741 9.90353 1.37621 8.90433 1.83035 7.8041C2.20455 6.89804 2.6964 6.05272 3.28591 5.28828L3.42663 5.12285C4.15569 4.35165 5.22434 4.38933 5.8823 4.58252C6.44072 4.74663 7.05843 4.69093 7.59997 4.37842L7.79441 4.25273C8.22719 3.93866 8.51546 3.48868 8.63552 2.99375C8.80798 2.28217 9.36817 1.25396 10.5476 1.09668C11.0226 1.03345 11.5077 1.00001 12 1L12.3674 1.00645ZM12 8.15C9.87368 8.15 8.14997 9.8737 8.14997 12C8.15014 14.1262 9.87378 15.85 12 15.85C14.1262 15.85 15.8498 14.1261 15.85 12C15.85 9.87372 14.1263 8.15002 12 8.15Z" fill="currentColor"/>
</svg>