<svg width="24" height="24" viewBox="0 0 24 24" fill="none" xmlns="http://www.w3.org/2000/svg">
<path d="M6.3433 10.5855C6.73376 10.1952 7.36688 10.1953 7.75736 10.5855C8.14789 10.976 8.14789 11.61 7.75736 12.0005L5.63627 14.1216C4.46479 15.2932 4.46479 17.1923 5.63627 18.3638C6.80781 19.5353 8.7069 19.5353 9.87846 18.3638L12.0005 16.2427C12.3911 15.8524 13.0241 15.8523 13.4146 16.2427C13.8049 16.6332 13.8049 17.2663 13.4146 17.6568L11.2935 19.7779C9.34089 21.7305 6.17482 21.7305 4.22221 19.7779C2.26968 17.8253 2.26968 14.6602 4.22221 12.7076L6.3433 10.5855Z" fill="currentColor"/>
<path d="M14.7925 7.7935C15.183 7.40297 15.817 7.40297 16.2076 7.7935C16.5977 8.18405 16.5979 8.81717 16.2076 9.20756L9.20756 16.2076C8.81716 16.5979 8.18404 16.5977 7.7935 16.2076C7.40297 15.817 7.40297 15.183 7.7935 14.7925L14.7925 7.7935Z" fill="currentColor"/>
<path d="M12.7076 4.22221C14.6601 2.26965 17.8253 2.26971 19.7779 4.22221C21.7305 6.17481 21.7305 9.33991 19.7779 11.2925L17.6568 13.4146C17.2663 13.8048 16.6332 13.8049 16.2427 13.4146C15.8523 13.0241 15.8524 12.3911 16.2427 12.0005L18.3638 9.87846C19.5354 8.7069 19.5354 6.80783 18.3638 5.63627C17.1922 4.46482 15.2931 4.46476 14.1216 5.63627L12.0005 7.75736C11.61 8.14789 10.976 8.14789 10.5855 7.75736C10.1954 7.3669 10.1953 6.73374 10.5855 6.3433L12.7076 4.22221Z" fill="currentColor"/>
</svg>