<svg width="24" height="24" viewBox="0 0 24 24" fill="none" xmlns="http://www.w3.org/2000/svg">
<path fill-rule="evenodd" clip-rule="evenodd" d="M12 3.75C16.5563 3.75 20.25 7.44365 20.25 12C20.25 14.0081 19.5314 15.8477 18.3389 17.2783L20.0303 18.9697C20.3232 19.2626 20.3232 19.7374 20.0303 20.0303C19.7374 20.3232 19.2626 20.3232 18.9697 20.0303L17.2783 18.3389C15.8477 19.5314 14.0081 20.25 12 20.25C7.44365 20.25 3.75 16.5563 3.75 12C3.75 7.44365 7.44365 3.75 12 3.75ZM12 5.25C8.27208 5.25 5.25 8.27208 5.25 12C5.25 15.7279 8.27208 18.75 12 18.75C13.5937 18.75 15.0572 18.1961 16.2119 17.2725L13.9697 15.0303C13.6768 14.7374 13.6768 14.2626 13.9697 13.9697C14.2626 13.6768 14.7374 13.6768 15.0303 13.9697L17.2725 16.2119C18.1961 15.0572 18.75 13.5937 18.75 12C18.75 8.27208 15.7279 5.25 12 5.25Z" fill="currentColor"/>
</svg>