<svg width="24" height="24" viewBox="0 0 24 24" fill="none" xmlns="http://www.w3.org/2000/svg">
<path fill-rule="evenodd" clip-rule="evenodd" d="M12 3.25C16.8325 3.25 20.75 7.16751 20.75 12C20.75 13.9651 20.0977 15.776 19.0039 17.2363L19.8838 18.1162C20.3719 18.6044 20.3719 19.3956 19.8838 19.8838C19.3956 20.3719 18.6044 20.3719 18.1162 19.8838L17.2363 19.0039C15.776 20.0977 13.9651 20.75 12 20.75C7.16751 20.75 3.25 16.8325 3.25 12C3.25 7.16751 7.16751 3.25 12 3.25ZM12 5.75C8.54822 5.75 5.75 8.54822 5.75 12C5.75 15.4518 8.54822 18.25 12 18.25C13.2738 18.25 14.4564 17.8666 15.4443 17.2119L13.6162 15.3838C13.1281 14.8956 13.1281 14.1044 13.6162 13.6162C14.1044 13.1281 14.8956 13.1281 15.3838 13.6162L17.2119 15.4443C17.8666 14.4564 18.25 13.2738 18.25 12C18.25 8.54822 15.4518 5.75 12 5.75Z" fill="currentColor"/>
</svg>