<svg width="24" height="24" viewBox="0 0 24 24" fill="none" xmlns="http://www.w3.org/2000/svg">
<path d="M11.8574 11.5127C11.8635 11.5062 11.8688 11.4988 11.875 11.4922L12.1045 11.2656C12.0114 11.3529 11.93 11.4351 11.8574 11.5127Z" fill="currentColor"/>
<path d="M14.7012 8.42969L14.7129 8.45312L14.6094 8.27441C14.6419 8.32527 14.6726 8.37704 14.7012 8.42969Z" fill="currentColor"/>
<path fill-rule="evenodd" clip-rule="evenodd" d="M12 2C17.5228 2 22 6.47715 22 12C22 17.5228 17.5228 22 12 22C6.47715 22 2 17.5228 2 12C2 6.47715 6.47715 2 12 2ZM12 14.7998C11.3373 14.7998 10.7998 15.3373 10.7998 16C10.7998 16.6627 11.3373 17.2002 12 17.2002C12.6627 17.2002 13.2002 16.6627 13.2002 16C13.2002 15.3373 12.6627 14.7998 12 14.7998ZM11.8291 6.7998C10.2575 6.79095 8.90958 7.92768 8.80078 9.43945L8.7998 9.44629V9.4541C8.79998 9.9636 9.23882 10.3535 9.75 10.3535C10.253 10.3535 10.6843 9.97597 10.6982 9.47852C10.7947 8.9284 11.3506 8.52766 11.9756 8.60352L11.9883 8.60449H12.002C12.4326 8.60115 12.8403 8.77027 13.125 9.0625C13.2424 9.23373 13.3032 9.43123 13.2998 9.63184C13.2973 9.79798 13.2373 9.96146 13.127 10.0967C12.9031 10.3698 12.633 10.6084 12.3271 10.8027L12.3154 10.8105L12.3047 10.8193C11.8088 11.2439 11.5122 11.5577 11.335 11.8721C11.154 12.1932 11.1069 12.4992 11.0742 12.8779V12.8799L11.0508 13.1807L11.0498 13.1885V13.1963C11.0499 13.4696 11.179 13.7114 11.376 13.874C11.5439 14.0126 11.7628 14.0957 12 14.0957C12.5105 14.0957 12.9488 13.7067 12.9502 13.1982L12.9521 13C12.9577 12.8468 12.9772 12.7555 13.0371 12.6602C13.1025 12.5561 13.226 12.4319 13.4766 12.2432C13.9458 11.9285 14.3589 11.5451 14.7002 11.1084L14.7031 11.1055C14.9847 10.7277 15.1529 10.286 15.1914 9.82715L15.2002 9.62891C15.2074 9.03818 15.0138 8.46152 14.6494 7.98242L14.6406 7.97266L14.5156 7.83691C13.872 7.17781 12.9605 6.80397 12.0059 6.80664L12.0068 6.80566L11.835 6.7998H11.8291Z" fill="currentColor"/>
</svg>