<svg width="24" height="24" viewBox="0 0 24 24" fill="none" xmlns="http://www.w3.org/2000/svg">
<path d="M12 17.3555C12.8388 17.3555 13.5185 18.0353 13.5186 18.8741C13.5186 19.7129 12.8388 20.3926 12 20.3926C11.1612 20.3926 10.4814 19.7129 10.4814 18.8741C10.4815 18.0353 11.1612 17.3555 12 17.3555Z" fill="currentColor"/>
<path d="M11.9932 3.6153H12.001C13.6 3.60783 15.1127 4.27518 16.1191 5.42389C16.6748 6.15442 16.9677 7.02882 16.9561 7.92096V7.92292C16.9545 8.71115 16.6954 9.48156 16.2119 10.1319C15.6616 10.836 14.994 11.4544 14.2344 11.9639L14.2256 11.9708C13.7746 12.3093 13.4915 12.5747 13.3223 12.8438C13.1469 13.1227 13.104 13.3892 13.0928 13.6983V13.7032L13.0889 14.0518V14.0548C13.0887 14.5952 12.6147 15.0567 12 15.0567C11.7193 15.0567 11.4652 14.959 11.2734 14.8008C11.0765 14.6383 10.9464 14.4135 10.917 14.1631L10.9111 14.0548L10.9502 13.5528C11.0049 12.9204 11.079 12.4928 11.3301 12.0469C11.5845 11.5953 12.0304 11.1086 12.8682 10.3907C13.436 10.0279 13.9395 9.58345 14.3584 9.07233L14.3594 9.07135C14.624 8.74696 14.772 8.34989 14.7783 7.93854L14.7764 7.93756C14.7843 7.46804 14.6418 7.00839 14.3672 6.61823L14.3594 6.60651L14.2334 6.48053C13.6428 5.92355 12.8367 5.61246 11.998 5.6192C10.6719 5.47099 9.43517 6.32729 9.22461 7.58991L9.22168 7.60651V7.62311C9.2215 8.1635 8.7475 8.62504 8.13281 8.62506C7.55624 8.62506 7.10295 8.21903 7.04883 7.72272L7.04395 7.62311C7.21533 5.35136 9.25715 3.59322 11.7002 3.60553L11.9932 3.6153Z" fill="currentColor"/>
</svg>