<svg width="24" height="24" viewBox="0 0 24 24" fill="none" xmlns="http://www.w3.org/2000/svg">
<path d="M12.0059 17.5557C12.7342 17.5557 13.3242 18.1458 13.3242 18.8741C13.3242 19.6024 12.7342 20.1925 12.0059 20.1925C11.2775 20.1925 10.6875 19.6024 10.6875 18.8741C10.6875 18.1458 11.2776 17.5557 12.0059 17.5557Z" fill="currentColor"/>
<path d="M11.9922 3.81551H12.0078C13.5512 3.80831 15.0072 4.45228 15.9736 5.55477C16.4983 6.24875 16.7727 7.07558 16.7617 7.91805V7.92293C16.7602 8.66726 16.5153 9.39595 16.0566 10.0128C15.5202 10.6983 14.87 11.3019 14.1289 11.7989L14.1113 11.8106C13.6565 12.1521 13.3489 12.4359 13.1592 12.7374C12.9573 13.0585 12.9112 13.3656 12.8994 13.6915L12.8984 13.7012L12.8945 14.0499V14.0548C12.8944 14.4718 12.5235 14.8565 12.0059 14.8565C11.7718 14.8565 11.5624 14.7754 11.4062 14.6466C11.224 14.4961 11.1182 14.285 11.1172 14.0577L11.1562 13.5723C11.2104 12.945 11.2801 12.5522 11.5098 12.1446C11.7454 11.7264 12.1672 11.2609 12.9961 10.5499C13.5756 10.1776 14.0905 9.72194 14.5195 9.19832L14.623 9.05965C14.8505 8.72905 14.9773 8.3421 14.9834 7.94148L14.9824 7.94051C14.991 7.4278 14.8354 6.92686 14.5371 6.50301L14.5205 6.47859L14.5 6.45711L14.377 6.33504C13.7513 5.74481 12.9011 5.41693 12.0186 5.42C10.6014 5.26545 9.26288 6.18048 9.0332 7.55672L9.02734 7.58992V7.62312C9.02716 8.04016 8.65627 8.42486 8.13867 8.42488C7.62591 8.42488 7.25705 8.04735 7.25 7.63484C7.41445 5.4806 9.35724 3.79149 11.708 3.80477L11.9922 3.81551Z" fill="currentColor"/>
</svg>