<svg width="24" height="24" viewBox="0 0 24 24" fill="none" xmlns="http://www.w3.org/2000/svg">
<path d="M12 17.1562C12.9492 17.1562 13.7188 17.9258 13.7188 18.875C13.7188 19.8242 12.9492 20.5938 12 20.5938C11.0508 20.5938 10.2812 19.8242 10.2812 18.875C10.2812 17.9258 11.0508 17.1562 12 17.1562Z" fill="currentColor"/>
<path d="M11.7048 3.40634L11.9998 3.4163C13.6592 3.40848 15.233 4.10253 16.2794 5.30363C16.8613 6.06876 17.1682 6.98625 17.1559 7.92425C17.1542 8.75811 16.8799 9.57167 16.3696 10.2564C15.8059 10.9776 15.1228 11.6106 14.3458 12.1317C13.4515 12.803 13.314 13.1217 13.2929 13.7064L13.289 14.0554C13.289 14.7193 12.7119 15.2575 12 15.2575C11.6726 15.2575 11.3736 15.1436 11.1462 14.956C10.8793 14.7358 10.711 14.4139 10.711 14.0554L10.7514 13.5391C10.862 12.2586 11.0536 11.6825 12.7475 10.2323C13.3036 9.87899 13.7954 9.44471 14.204 8.94605C14.4413 8.65542 14.5723 8.30149 14.5779 7.93627C14.5853 7.50967 14.4551 7.09084 14.204 6.73415C13.6454 6.14691 12.8416 5.81377 11.9998 5.82054C10.7582 5.66968 9.61415 6.46987 9.42179 7.62372C9.42179 8.28763 8.84467 8.82584 8.13277 8.82584C7.42086 8.82584 6.84375 8.28763 6.84375 7.62372C7.01625 5.22677 9.16257 3.39178 11.7048 3.40634Z" fill="currentColor"/>
</svg>