<svg width="24" height="24" viewBox="0 0 24 24" fill="none" xmlns="http://www.w3.org/2000/svg">
<path d="M10 10C10.5523 10 11 10.4477 11 11V15.5C11 16.0523 10.5523 16.5 10 16.5C9.44772 16.5 9 16.0523 9 15.5V11C9 10.4477 9.44772 10 10 10Z" fill="currentColor"/>
<path d="M14 10C14.5523 10 15 10.4477 15 11V15.5C15 16.0523 14.5523 16.5 14 16.5C13.4477 16.5 13 16.0523 13 15.5V11C13 10.4477 13.4477 10 14 10Z" fill="currentColor"/>
<path fill-rule="evenodd" clip-rule="evenodd" d="M13.5 1.5C14.8807 1.5 16 2.61929 16 4V5H20.5C21.0523 5 21.5 5.44772 21.5 6C21.5 6.55228 21.0523 7 20.5 7H20V18.5C20 20.1569 18.6569 21.5 17 21.5H7C5.34315 21.5 4 20.1569 4 18.5V7H3.5C2.94772 7 2.5 6.55228 2.5 6C2.5 5.44772 2.94772 5 3.5 5H8V4C8 2.61929 9.11929 1.5 10.5 1.5H13.5ZM6 18.5C6 19.0523 6.44772 19.5 7 19.5H17C17.5523 19.5 18 19.0523 18 18.5V7H6V18.5ZM10.5 3.5C10.2239 3.5 10 3.72386 10 4V5H14V4C14 3.72386 13.7761 3.5 13.5 3.5H10.5Z" fill="currentColor"/>
</svg>