<svg width="24" height="24" viewBox="0 0 24 24" fill="none" xmlns="http://www.w3.org/2000/svg">
<path fill-rule="evenodd" clip-rule="evenodd" d="M16.3824 2.5C17.8688 2.50033 18.8361 4.06491 18.1715 5.39453L17.0006 7.73633V10.209L19.3658 13.9258C20.2127 15.257 19.2569 16.9994 17.6793 17H13.0006V21.5C13.0006 22.0521 12.5527 22.4998 12.0006 22.5C11.4483 22.5 11.0006 22.0523 11.0006 21.5V17H6.32185C4.7439 16.9997 3.78811 15.2571 4.63533 13.9258L7.00056 10.209V7.73633L5.82966 5.39453C5.16476 4.06473 6.13196 2.5 7.61872 2.5H16.3824ZM8.78962 6.8418C8.92835 7.1194 9.00056 7.42599 9.00056 7.73633V10.209C9.00052 10.5891 8.89202 10.9615 8.68806 11.2822L6.32185 15H17.6793L15.3131 11.2822C15.109 10.9614 15.0006 10.5892 15.0006 10.209V7.73633C15.0006 7.42592 15.0727 7.11945 15.2115 6.8418L16.3824 4.5H7.61872L8.78962 6.8418Z" fill="currentColor"/>
</svg>