<svg width="24" height="24" viewBox="0 0 24 24" fill="none" xmlns="http://www.w3.org/2000/svg">
<path d="M9 6.75C9.41421 6.75 9.75 7.08579 9.75 7.5V10C9.75 10.4142 9.41421 10.75 9 10.75C8.58579 10.75 8.25 10.4142 8.25 10V7.5C8.25 7.08579 8.58579 6.75 9 6.75Z" fill="currentColor"/>
<path d="M12.5 6.75C12.9142 6.75 13.25 7.08579 13.25 7.5V10C13.25 10.4142 12.9142 10.75 12.5 10.75C12.0858 10.75 11.75 10.4142 11.75 10V7.5C11.75 7.08579 12.0858 6.75 12.5 6.75Z" fill="currentColor"/>
<path d="M16 6.75C16.4142 6.75 16.75 7.08579 16.75 7.5V10C16.75 10.4142 16.4142 10.75 16 10.75C15.5858 10.75 15.25 10.4142 15.25 10V7.5C15.25 7.08579 15.5858 6.75 16 6.75Z" fill="currentColor"/>
<path fill-rule="evenodd" clip-rule="evenodd" d="M18 2.25C19.5188 2.25 20.75 3.48122 20.75 5V19C20.75 20.5188 19.5188 21.75 18 21.75H6C4.48122 21.75 3.25 20.5188 3.25 19V8.32812C3.25008 7.59889 3.54001 6.89944 4.05566 6.38379L7.38379 3.05566C7.89944 2.54001 8.59889 2.25008 9.32812 2.25H18ZM9.32812 3.75C8.99671 3.75008 8.67869 3.88186 8.44434 4.11621L5.11621 7.44434C4.88186 7.67868 4.75008 7.99671 4.75 8.32812V19C4.75 19.6904 5.30964 20.25 6 20.25H18C18.6904 20.25 19.25 19.6904 19.25 19V5C19.25 4.30964 18.6904 3.75 18 3.75H9.32812Z" fill="currentColor"/>
</svg>