<svg width="24" height="24" viewBox="0 0 24 24" fill="none" xmlns="http://www.w3.org/2000/svg">
<path fill-rule="evenodd" clip-rule="evenodd" d="M11.9996 2.25C14.3468 2.25 16.2496 4.15279 16.2496 6.5V7.25H18.5377C19.4778 7.25019 20.2495 7.99317 20.2857 8.93262L20.7096 19.9326C20.7477 20.9247 19.9534 21.7499 18.9605 21.75H5.03867C4.04601 21.7497 3.2515 20.9246 3.28965 19.9326L3.71348 8.93262C3.74968 7.99327 4.52155 7.25036 5.46152 7.25H7.74961V6.5C7.74961 4.1529 9.65256 2.25019 11.9996 2.25ZM5.46152 8.75C5.32756 8.75036 5.21774 8.85631 5.2125 8.99023L4.78867 19.9902C4.78323 20.1318 4.89705 20.2497 5.03867 20.25H18.9605C19.1023 20.2499 19.216 20.1319 19.2105 19.9902L18.7867 8.99023C18.7815 8.85621 18.6718 8.75019 18.5377 8.75H16.2496V10.5C16.2496 10.9142 15.9138 11.25 15.4996 11.25C15.0856 11.2498 14.7496 10.9141 14.7496 10.5V8.75H9.24961V10.5C9.24961 10.9142 8.91382 11.25 8.49961 11.25C8.08555 11.2498 7.74961 10.9141 7.74961 10.5V8.75H5.46152ZM11.9996 3.75C10.481 3.75019 9.24961 4.98133 9.24961 6.5V7.25H14.7496V6.5C14.7496 4.98122 13.5184 3.75 11.9996 3.75Z" fill="currentColor"/>
</svg>