<svg width="24" height="24" viewBox="0 0 24 24" fill="none" xmlns="http://www.w3.org/2000/svg">
<path fill-rule="evenodd" clip-rule="evenodd" d="M16.7998 8.25C17.3475 8.25 17.8037 8.24898 18.1748 8.2793C18.5545 8.31033 18.9109 8.3781 19.2481 8.5498C19.7655 8.81346 20.1865 9.23451 20.4502 9.75195C20.6219 10.0891 20.6897 10.4455 20.7207 10.8252C20.751 11.1963 20.75 11.6525 20.75 12.2002V17.7998C20.75 18.3475 20.751 18.8037 20.7207 19.1748C20.6897 19.5545 20.6219 19.9109 20.4502 20.248C20.1865 20.7655 19.7655 21.1865 19.2481 21.4502C18.9109 21.6219 18.5545 21.6897 18.1748 21.7207C17.8037 21.751 17.3475 21.75 16.7998 21.75H7.2002C6.65253 21.75 6.19633 21.751 5.8252 21.7207C5.44547 21.6897 5.0891 21.6219 4.75196 21.4502C4.23452 21.1865 3.81346 20.7655 3.54981 20.248C3.3781 19.9109 3.31033 19.5545 3.2793 19.1748C3.24898 18.8037 3.25 18.3475 3.25 17.7998V12.2002C3.25 11.6525 3.24898 11.1963 3.2793 10.8252C3.31033 10.4455 3.3781 10.0891 3.54981 9.75195C3.81346 9.23451 4.23451 8.81346 4.75196 8.5498C5.0891 8.37809 5.44547 8.31033 5.8252 8.2793C6.19633 8.24897 6.65253 8.25 7.2002 8.25H16.7998ZM7.2002 9.75C6.62778 9.75 6.24315 9.75024 5.94727 9.77441C5.66028 9.79788 5.52316 9.84059 5.43262 9.88672C5.19751 10.0065 5.00655 10.1975 4.88672 10.4326C4.84059 10.5232 4.79788 10.6603 4.77442 10.9473C4.75024 11.2431 4.75 11.6278 4.75 12.2002V17.7998C4.75 18.3722 4.75024 18.7569 4.77442 19.0527C4.79788 19.3397 4.84059 19.4768 4.88672 19.5674C5.00655 19.8025 5.19751 19.9935 5.43262 20.1133C5.52316 20.1594 5.66028 20.2021 5.94727 20.2256C6.24315 20.2498 6.62778 20.25 7.2002 20.25H16.7998C17.3722 20.25 17.7569 20.2498 18.0527 20.2256C18.3397 20.2021 18.4768 20.1594 18.5674 20.1133C18.8025 19.9935 18.9935 19.8025 19.1133 19.5674C19.1594 19.4768 19.2021 19.3397 19.2256 19.0527C19.2498 18.7569 19.25 18.3722 19.25 17.7998V12.2002C19.25 11.6278 19.2498 11.2431 19.2256 10.9473C19.2021 10.6603 19.1594 10.5232 19.1133 10.4326C18.9935 10.1975 18.8025 10.0065 18.5674 9.88672C18.4768 9.84059 18.3397 9.79787 18.0527 9.77441C17.7569 9.75024 17.3722 9.75 16.7998 9.75H15V14C15 14.9665 14.2165 15.75 13.25 15.75H10.75C9.78351 15.75 9 14.9665 9 14V9.75H7.2002ZM10.5 14C10.5 14.1381 10.6119 14.25 10.75 14.25H13.25C13.388 14.25 13.5 14.1381 13.5 14V9.75H10.5V14Z" fill="currentColor"/>
<path d="M17.5 5.25C17.9142 5.25 18.25 5.58579 18.25 6C18.25 6.41421 17.9142 6.75 17.5 6.75H6.5C6.08579 6.75 5.75 6.41421 5.75 6C5.75 5.58579 6.08579 5.25 6.5 5.25H17.5Z" fill="currentColor"/>
<path d="M15 2.25C15.4142 2.25 15.75 2.58579 15.75 3C15.75 3.41421 15.4142 3.75 15 3.75H9C8.58579 3.75 8.25 3.41421 8.25 3C8.25 2.58579 8.58579 2.25 9 2.25H15Z" fill="currentColor"/>
</svg>