<svg width="24" height="24" viewBox="0 0 24 24" fill="none" xmlns="http://www.w3.org/2000/svg">
<path fill-rule="evenodd" clip-rule="evenodd" d="M16.7998 8C17.3434 8 17.8116 7.99893 18.1953 8.03027C18.5906 8.06258 18.984 8.1344 19.3623 8.32715C19.9265 8.61472 20.3853 9.07348 20.6729 9.6377C20.8656 10.016 20.9374 10.4094 20.9697 10.8047C21.0011 11.1884 21 11.6566 21 12.2002V17.7998C21 18.3434 21.0011 18.8116 20.9697 19.1953C20.9374 19.5906 20.8656 19.984 20.6729 20.3623C20.3853 20.9265 19.9265 21.3853 19.3623 21.6729C18.984 21.8656 18.5906 21.9374 18.1953 21.9697C17.8116 22.0011 17.3434 22 16.7998 22H7.2002C6.65665 22 6.18836 22.0011 5.80469 21.9697C5.40944 21.9374 5.01599 21.8656 4.6377 21.6729C4.07348 21.3853 3.61473 20.9265 3.32715 20.3623C3.1344 19.984 3.06259 19.5906 3.03028 19.1953C2.99893 18.8116 3 18.3434 3 17.7998V12.2002C3 11.6566 2.99893 11.1884 3.03028 10.8047C3.06259 10.4094 3.1344 10.016 3.32715 9.6377C3.61473 9.07347 4.07348 8.61472 4.6377 8.32715C5.01599 8.1344 5.40944 8.06258 5.80469 8.03027C6.18836 7.99893 6.65665 8 7.2002 8H16.7998ZM7.2002 10C6.62365 10 6.25111 10.0013 5.96778 10.0244C5.6962 10.0466 5.59534 10.0842 5.5459 10.1094C5.35794 10.2052 5.20522 10.3579 5.10938 10.5459C5.08419 10.5953 5.04662 10.6962 5.02442 10.9678C5.00127 11.2511 5 11.6236 5 12.2002V17.7998C5 18.3764 5.00127 18.7489 5.02442 19.0322C5.04661 19.3038 5.08419 19.4047 5.10938 19.4541C5.20522 19.6421 5.35794 19.7948 5.5459 19.8906C5.59534 19.9158 5.6962 19.9534 5.96778 19.9756C6.25111 19.9987 6.62365 20 7.2002 20H16.7998C17.3764 20 17.7489 19.9987 18.0322 19.9756C18.3038 19.9534 18.4047 19.9158 18.4541 19.8906C18.6421 19.7948 18.7948 19.6421 18.8906 19.4541C18.9158 19.4047 18.9534 19.3038 18.9756 19.0322C18.9987 18.7489 19 18.3764 19 17.7998V12.2002C19 11.6236 18.9987 11.2511 18.9756 10.9678C18.9534 10.6962 18.9158 10.5953 18.8906 10.5459C18.7948 10.3579 18.6421 10.2052 18.4541 10.1094C18.4047 10.0842 18.3038 10.0466 18.0322 10.0244C17.7489 10.0013 17.3764 10 16.7998 10H15.5V14C15.5 15.1045 14.6045 16 13.5 16H10.5C9.39544 16 8.5 15.1046 8.5 14V10H7.2002ZM10.5 14H13.5V10H10.5V14Z" fill="currentColor"/>
<path d="M17.5 5C18.0523 5 18.5 5.44772 18.5 6C18.5 6.55228 18.0523 7 17.5 7H6.5C5.94772 7 5.5 6.55228 5.5 6C5.5 5.44772 5.94772 5.00001 6.5 5H17.5Z" fill="currentColor"/>
<path d="M15 2C15.5523 2 16 2.44772 16 3C16 3.55228 15.5523 4 15 4H9C8.44772 4 8 3.55228 8 3C8 2.44772 8.44772 2 9 2H15Z" fill="currentColor"/>
</svg>