<svg width="24" height="24" viewBox="0 0 24 24" fill="none" xmlns="http://www.w3.org/2000/svg">
<path fill-rule="evenodd" clip-rule="evenodd" d="M16.25 3C16.9377 3 17.4986 2.999 17.9531 3.03614C18.4164 3.07399 18.8349 3.15541 19.2256 3.35449C19.837 3.66606 20.3339 4.16305 20.6455 4.77442C20.8446 5.16515 20.926 5.58363 20.9639 6.04688C21.001 6.50138 21 7.06231 21 7.75V16.25C21 16.9377 21.001 17.4986 20.9639 17.9531C20.926 18.4164 20.8446 18.8349 20.6455 19.2256C20.3339 19.837 19.837 20.3339 19.2256 20.6455C18.8349 20.8446 18.4164 20.926 17.9531 20.9639C17.4986 21.001 16.9377 21 16.25 21H7.75C7.06231 21 6.50138 21.001 6.04688 20.9639C5.58363 20.926 5.16515 20.8446 4.77442 20.6455C4.16305 20.3339 3.66606 19.837 3.35449 19.2256C3.15541 18.8349 3.07399 18.4164 3.03614 17.9531C2.999 17.4986 3 16.9377 3 16.25V7.75C3 7.06231 2.999 6.50138 3.03614 6.04688C3.07399 5.58363 3.15541 5.16515 3.35449 4.77442C3.66606 4.16305 4.16305 3.66606 4.77442 3.35449C5.16515 3.15541 5.58363 3.07399 6.04688 3.03614C6.50138 2.999 7.06231 3 7.75 3H16.25ZM7.75 4.5C7.03756 4.5 6.5482 4.50027 6.16895 4.53125C5.79852 4.56153 5.59911 4.61705 5.45508 4.69043C5.12597 4.85818 4.85818 5.12597 4.69043 5.45508C4.61705 5.59911 4.56153 5.79852 4.53125 6.16895C4.50027 6.5482 4.5 7.03756 4.5 7.75V16.25C4.5 16.9624 4.50027 17.4518 4.53125 17.8311C4.56153 18.2015 4.61705 18.4009 4.69043 18.5449C4.85818 18.874 5.12597 19.1418 5.45508 19.3096C5.59911 19.383 5.79852 19.4385 6.16895 19.4688C6.5482 19.4997 7.03756 19.5 7.75 19.5H16.25C16.9624 19.5 17.4518 19.4997 17.8311 19.4688C18.2015 19.4385 18.4009 19.383 18.5449 19.3096C18.874 19.1418 19.1418 18.874 19.3096 18.5449C19.383 18.4009 19.4385 18.2015 19.4688 17.8311C19.4997 17.4518 19.5 16.9624 19.5 16.25V7.75C19.5 7.03756 19.4997 6.5482 19.4688 6.16895C19.4385 5.79852 19.383 5.59911 19.3096 5.45508C19.1418 5.12597 18.874 4.85818 18.5449 4.69043C18.4009 4.61705 18.2015 4.56153 17.8311 4.53125C17.4518 4.50027 16.9624 4.5 16.25 4.5H15.25V10.75C15.25 11.1642 14.9142 11.5 14.5 11.5H9.5C9.08579 11.5 8.75 11.1642 8.75 10.75V4.5H7.75ZM10.25 10H13.75V4.5H10.25V10Z" fill="currentColor"/>
</svg>