<svg width="24" height="24" viewBox="0 0 24 24" fill="none" xmlns="http://www.w3.org/2000/svg">
<path d="M12 14C12.5523 14 13 14.4477 13 15V16.5C13 17.0523 12.5523 17.5 12 17.5C11.4477 17.5 11 17.0523 11 16.5V15C11 14.4477 11.4477 14 12 14Z" fill="currentColor"/>
<path fill-rule="evenodd" clip-rule="evenodd" d="M12 2C14.7614 2 17 4.23858 17 7H15C15 5.34315 13.6569 4 12 4C10.3431 4 9 5.34315 9 7V9.5H17C18.6569 9.5 20 10.8431 20 12.5V19C20 20.6569 18.6569 22 17 22H7C5.34315 22 4 20.6569 4 19V12.5C4 10.8431 5.34315 9.5 7 9.5V7C7 4.23858 9.23858 2 12 2ZM7 11.5C6.44772 11.5 6 11.9477 6 12.5V19C6 19.5523 6.44772 20 7 20H17C17.5523 20 18 19.5523 18 19V12.5C18 11.9477 17.5523 11.5 17 11.5H7Z" fill="currentColor"/>
</svg>