<svg width="24" height="24" viewBox="0 0 24 24" fill="none" xmlns="http://www.w3.org/2000/svg">
<path d="M11.5 6.5C12.0523 6.5 12.5 6.94772 12.5 7.5V11.5859L15.207 14.293C15.5976 14.6835 15.5976 15.3165 15.207 15.707C14.8165 16.0976 14.1835 16.0976 13.793 15.707L10.793 12.707C10.6054 12.5195 10.5 12.2652 10.5 12V7.5C10.5 6.94772 10.9477 6.5 11.5 6.5Z" fill="currentColor"/>
<path fill-rule="evenodd" clip-rule="evenodd" d="M12 2C17.5228 2 22 6.47715 22 12C22 17.5228 17.5228 22 12 22C6.47715 22 2 17.5228 2 12C2 6.47715 6.47715 2 12 2ZM12 4C7.58172 4 4 7.58172 4 12C4 16.4183 7.58172 20 12 20C16.4183 20 20 16.4183 20 12C20 7.58172 16.4183 4 12 4Z" fill="currentColor"/>
</svg>