<svg width="24" height="24" viewBox="0 0 24 24" fill="none" xmlns="http://www.w3.org/2000/svg">
<path d="M11.5 6.75C11.9142 6.75 12.25 7.08579 12.25 7.5V11.6895L15.0303 14.4697C15.3232 14.7626 15.3232 15.2374 15.0303 15.5303C14.7374 15.8232 14.2626 15.8232 13.9697 15.5303L10.9697 12.5303C10.8291 12.3896 10.75 12.1989 10.75 12V7.5C10.75 7.08579 11.0858 6.75 11.5 6.75Z" fill="currentColor"/>
<path fill-rule="evenodd" clip-rule="evenodd" d="M12 2.25C17.3848 2.25 21.75 6.61522 21.75 12C21.75 17.3848 17.3848 21.75 12 21.75C6.61522 21.75 2.25 17.3848 2.25 12C2.25 6.61522 6.61522 2.25 12 2.25ZM12 3.75C7.44365 3.75 3.75 7.44365 3.75 12C3.75 16.5563 7.44365 20.25 12 20.25C16.5563 20.25 20.25 16.5563 20.25 12C20.25 7.44365 16.5563 3.75 12 3.75Z" fill="currentColor"/>
</svg>