<svg width="24" height="24" viewBox="0 0 24 24" fill="none" xmlns="http://www.w3.org/2000/svg">
<path d="M10.8858 3.4545C11.5952 3.14017 12.4049 3.14017 13.1143 3.4545C13.5975 3.66868 13.9557 4.06417 14.2793 4.51798C14.605 4.97463 14.9655 5.59415 15.4122 6.35978L20.3409 14.809C20.7936 15.5851 21.1596 16.2119 21.3995 16.726C21.6376 17.2364 21.808 17.7485 21.754 18.2787C21.6747 19.0555 21.2688 19.7622 20.6377 20.2221C20.207 20.5359 19.679 20.6472 19.1182 20.6986C18.5533 20.7504 17.8273 20.7494 16.9288 20.7494H7.07133C6.17277 20.7494 5.4468 20.7504 4.88188 20.6986C4.32104 20.6472 3.79312 20.5359 3.36235 20.2221C2.73129 19.7622 2.32544 19.0555 2.24614 18.2787C2.19209 17.7485 2.36249 17.2364 2.60063 16.726C2.84053 16.2119 3.20651 15.5851 3.65922 14.809L8.58794 6.35978C9.03455 5.59415 9.39508 4.97463 9.72075 4.51798C10.0444 4.06417 10.4026 3.66868 10.8858 3.4545ZM12.5069 4.8256C12.1844 4.68272 11.8157 4.68272 11.4932 4.8256C11.3851 4.87358 11.2205 4.99923 10.9424 5.38907C10.6662 5.77642 10.3454 6.32446 9.88383 7.11563L4.95512 15.5649C4.48737 16.3667 4.16291 16.9238 3.95903 17.3608C3.75352 17.8012 3.72633 18.0087 3.73833 18.1264C3.77437 18.4795 3.95923 18.8011 4.24614 19.0102C4.34188 19.0798 4.53485 19.1601 5.0186 19.2045C5.49875 19.2486 6.14303 19.2494 7.07133 19.2494H16.9288C17.8571 19.2494 18.5013 19.2486 18.9815 19.2045C19.4652 19.1601 19.6582 19.0798 19.754 19.0102C20.0409 18.8011 20.2257 18.4795 20.2618 18.1264C20.2738 18.0087 20.2466 17.8012 20.0411 17.3608C19.8372 16.9238 19.5127 16.3667 19.045 15.5649L14.1163 7.11563C13.6547 6.32446 13.3339 5.77642 13.0577 5.38907C12.7796 4.99923 12.615 4.87358 12.5069 4.8256Z" fill="currentColor"/>
</svg>