<svg width="24" height="24" viewBox="0 0 24 24" fill="none" xmlns="http://www.w3.org/2000/svg">
<path d="M11.5 3.00007C12.0522 3.00007 12.4999 3.44786 12.5 4.00007C12.5 4.55235 12.0523 5.00007 11.5 5.00007H6C5.44777 5.00007 5.00009 5.44786 5 6.00007V18.0001C5 18.5524 5.44772 19.0001 6 19.0001H18C18.5523 19.0001 19 18.5524 19 18.0001V12.5001C19.0001 11.9479 19.4478 11.5001 20 11.5001C20.5522 11.5001 20.9999 11.9479 21 12.5001V18.0001C21 19.6569 19.6569 21.0001 18 21.0001H6C4.34315 21.0001 3 19.6569 3 18.0001V6.00007C3.00009 4.34329 4.3432 3.00007 6 3.00007H11.5Z" fill="currentColor"/>
<path fill-rule="evenodd" clip-rule="evenodd" d="M16.793 2.79304C18.0119 1.5742 19.9881 1.5742 21.207 2.79304C22.426 4.01196 22.4259 5.98814 21.207 7.2071L12.707 15.7071C12.5195 15.8946 12.2652 16.0001 12 16.0001H9C8.44772 16.0001 8 15.5524 8 15.0001V12.0001C8.00004 11.7349 8.10547 11.4805 8.29297 11.293L16.793 2.79304ZM19.793 4.2071C19.3551 3.76931 18.6449 3.76931 18.207 4.2071L10 12.4141V14.0001H11.5859L19.793 5.79304C20.2308 5.35513 20.2308 4.64498 19.793 4.2071Z" fill="currentColor"/>
</svg>