<svg width="24" height="24" viewBox="0 0 24 24" fill="none" xmlns="http://www.w3.org/2000/svg">
<path d="M11.5 3.25009C11.9142 3.25009 12.2499 3.58596 12.25 4.00009C12.25 4.41431 11.9142 4.75009 11.5 4.75009H6C5.3097 4.75009 4.75009 5.30981 4.75 6.00009V18.0001C4.75 18.6904 5.30964 19.2501 6 19.2501H18C18.6904 19.2501 19.25 18.6904 19.25 18.0001V12.5001C19.2501 12.086 19.5858 11.7501 20 11.7501C20.4142 11.7501 20.7499 12.086 20.75 12.5001V18.0001C20.75 19.5189 19.5188 20.7501 18 20.7501H6C4.48122 20.7501 3.25 19.5189 3.25 18.0001V6.00009C3.25009 4.48139 4.48127 3.25009 6 3.25009H11.5Z" fill="currentColor"/>
<path fill-rule="evenodd" clip-rule="evenodd" d="M16.9697 2.96982C18.091 1.8486 19.909 1.8486 21.0303 2.96982C22.1516 4.09111 22.1515 5.90904 21.0303 7.03036L12.5303 15.5304C12.3896 15.671 12.1989 15.7501 12 15.7501H9C8.58579 15.7501 8.25 15.4143 8.25 15.0001V12.0001C8.25004 11.8012 8.32911 11.6104 8.46973 11.4698L16.9697 2.96982ZM19.9697 4.03036C19.4342 3.49494 18.5658 3.49494 18.0303 4.03036L9.75 12.3106V14.2501H11.6895L19.9697 5.96982C20.5052 5.43428 20.5052 4.56587 19.9697 4.03036Z" fill="currentColor"/>
</svg>