<svg width="24" height="24" viewBox="0 0 24 24" fill="none" xmlns="http://www.w3.org/2000/svg">
<path d="M12 11C12.5523 11 13 11.4477 13 12V15.5C13 16.0523 12.5523 16.5 12 16.5C11.4477 16.5 11 16.0523 11 15.5V12C11 11.4477 11.4477 11 12 11Z" fill="currentColor"/>
<path d="M12 7.25C12.6904 7.25 13.25 7.80964 13.25 8.5C13.25 9.19036 12.6904 9.75 12 9.75C11.3096 9.75 10.75 9.19036 10.75 8.5C10.75 7.80964 11.3096 7.25 12 7.25Z" fill="currentColor"/>
<path fill-rule="evenodd" clip-rule="evenodd" d="M12 2C17.5228 2 22 6.47715 22 12C22 17.5228 17.5228 22 12 22C6.47715 22 2 17.5228 2 12C2 6.47715 6.47715 2 12 2ZM12 4C7.58172 4 4 7.58172 4 12C4 16.4183 7.58172 20 12 20C16.4183 20 20 16.4183 20 12C20 7.58172 16.4183 4 12 4Z" fill="currentColor"/>
</svg>