<svg width="24" height="24" viewBox="0 0 24 24" fill="none" xmlns="http://www.w3.org/2000/svg">
<path d="M12 2C14.5292 2 16.8373 2.94014 18.5977 4.4873L20.293 2.79297C20.579 2.50698 21.0091 2.42139 21.3828 2.57617C21.7564 2.73099 22 3.09559 22 3.5V9C22 9.55228 21.5523 9.99998 21 10H15.5C15.0956 10 14.731 9.75641 14.5762 9.38281C14.4214 9.00914 14.507 8.57897 14.793 8.29297L17.1807 5.9043C15.7843 4.7164 13.9755 4 12 4C7.58172 4 4 7.58172 4 12C4 16.4183 7.58172 20 12 20C15.3672 20 18.2506 17.9192 19.4307 14.9697C19.6358 14.4571 20.2178 14.2081 20.7305 14.4131C21.2432 14.6182 21.4932 15.2002 21.2881 15.7129C19.8147 19.3956 16.2125 22 12 22C6.47715 22 2 17.5228 2 12C2 6.47715 6.47715 2 12 2Z" fill="currentColor"/>
</svg>