<svg width="24" height="24" viewBox="0 0 24 24" fill="none" xmlns="http://www.w3.org/2000/svg">
<path fill-rule="evenodd" clip-rule="evenodd" d="M12 2.25C17.3848 2.25 21.75 6.61522 21.75 12C21.75 17.3848 17.3848 21.75 12 21.75C6.61522 21.75 2.25 17.3848 2.25 12C2.25 6.61522 6.61522 2.25 12 2.25ZM9.64453 15.75C9.88694 16.8209 10.2179 17.7045 10.5693 18.4014C10.9211 19.0989 11.2874 19.5964 11.5938 19.9072C11.7472 20.0629 11.8739 20.1596 11.9639 20.2129C11.9771 20.2207 11.99 20.2252 12 20.2305C12.01 20.2252 12.0229 20.2207 12.0361 20.2129C12.1261 20.1596 12.2528 20.0629 12.4062 19.9072C12.7126 19.5964 13.0789 19.0989 13.4307 18.4014C13.7821 17.7045 14.1131 16.8209 14.3555 15.75H9.64453ZM4.65234 15.75C5.68001 17.7596 7.50632 19.2902 9.71387 19.9258C9.54844 19.6688 9.3861 19.3857 9.23047 19.0771C8.78384 18.1916 8.38407 17.0809 8.1123 15.75H4.65234ZM15.8877 15.75C15.6159 17.0809 15.2162 18.1916 14.7695 19.0771C14.6138 19.3859 14.4507 19.6687 14.2852 19.9258C16.4931 19.2903 18.3198 17.7598 19.3477 15.75H15.8877ZM16.125 9.75C16.2048 10.4514 16.25 11.2015 16.25 12C16.25 12.7985 16.2048 13.5486 16.125 14.25H19.9365C20.139 13.5345 20.25 12.7803 20.25 12C20.25 11.2197 20.139 10.4655 19.9365 9.75H16.125ZM9.38672 9.75C9.30094 10.4412 9.25 11.191 9.25 12C9.25 12.8089 9.29997 13.5588 9.38574 14.25H14.6143C14.7 13.5588 14.75 12.8089 14.75 12C14.75 11.191 14.6991 10.4412 14.6133 9.75H9.38672ZM4.06348 9.75C3.86104 10.4655 3.75 11.2197 3.75 12C3.75 12.7803 3.86104 13.5345 4.06348 14.25H7.875C7.79519 13.5486 7.75 12.7985 7.75 12C7.75 11.2015 7.79519 10.4514 7.875 9.75H4.06348ZM14.2852 4.07324C14.4508 4.33051 14.6137 4.61384 14.7695 4.92285C15.2162 5.8084 15.6159 6.91908 15.8877 8.25H19.3477C18.3198 6.24008 16.4932 4.70864 14.2852 4.07324ZM11.9639 3.78711C11.8739 3.84044 11.7472 3.93708 11.5938 4.09277C11.2874 4.40359 10.9211 4.90108 10.5693 5.59863C10.2179 6.29549 9.88694 7.17914 9.64453 8.25H14.3555C14.1131 7.17914 13.7821 6.29549 13.4307 5.59863C13.0789 4.90108 12.7126 4.40359 12.4062 4.09277C12.2528 3.93708 12.1261 3.84044 12.0361 3.78711C12.0227 3.77916 12.0101 3.77384 12 3.76855C11.9899 3.77384 11.9773 3.77916 11.9639 3.78711ZM9.71387 4.07324C7.5062 4.7088 5.68005 6.24036 4.65234 8.25H8.1123C8.38407 6.91908 8.78384 5.8084 9.23047 4.92285C9.38624 4.61402 9.54829 4.33039 9.71387 4.07324Z" fill="currentColor"/>
</svg>