<svg width="24" height="24" viewBox="0 0 24 24" fill="none" xmlns="http://www.w3.org/2000/svg">
<path d="M14.4678 15.751C14.2183 17.3238 13.8304 18.5955 13.4111 19.5654C13.0534 20.393 12.6804 20.9846 12.3672 21.3555C12.2148 21.5359 12.0891 21.6488 12 21.7119C11.9109 21.6488 11.7852 21.5359 11.6328 21.3555C11.3196 20.9846 10.9466 20.393 10.5889 19.5654C10.1696 18.5955 9.78167 17.3238 9.53223 15.751H14.4678Z" fill="currentColor"/>
<path d="M8.01465 15.751C8.27963 17.5459 8.71774 19.018 9.21191 20.1611C9.43606 20.6796 9.67478 21.135 9.91602 21.5254C6.78046 20.8425 4.20929 18.6526 2.99902 15.751H8.01465Z" fill="currentColor"/>
<path d="M21.001 15.751C19.7906 18.6529 17.219 20.8427 14.083 21.5254C14.3243 21.1349 14.5639 20.6798 14.7881 20.1611C15.2823 19.018 15.7204 17.5459 15.9854 15.751H21.001Z" fill="currentColor"/>
<path d="M7.84277 9.75098C7.78373 10.4594 7.75 11.2094 7.75 12.001C7.75 12.7926 7.78373 13.5426 7.84277 14.251H2.51367C2.34296 13.5285 2.25 12.7756 2.25 12.001C2.25 11.2264 2.34296 10.4734 2.51367 9.75098H7.84277Z" fill="currentColor"/>
<path d="M14.6514 9.75098C14.7136 10.4528 14.75 11.2027 14.75 12.001C14.75 12.7992 14.7136 13.5491 14.6514 14.251H9.34863C9.28637 13.5491 9.25 12.7992 9.25 12.001C9.25 11.2027 9.28637 10.4528 9.34863 9.75098H14.6514Z" fill="currentColor"/>
<path d="M21.4863 9.75098C21.657 10.4734 21.75 11.2264 21.75 12.001C21.75 12.7756 21.657 13.5285 21.4863 14.251H16.1572C16.2163 13.5426 16.25 12.7926 16.25 12.001C16.25 11.2094 16.2163 10.4594 16.1572 9.75098H21.4863Z" fill="currentColor"/>
<path d="M9.91602 2.47559C9.67463 2.86617 9.4362 3.32205 9.21191 3.84082C8.71774 4.98397 8.27963 6.45606 8.01465 8.25098H2.99902C4.20932 5.34931 6.78037 3.15843 9.91602 2.47559Z" fill="currentColor"/>
<path d="M12 2.28906C12.0891 2.35215 12.2145 2.46578 12.3672 2.64648C12.6804 3.01731 13.0534 3.60894 13.4111 4.43652C13.8304 5.40647 14.2183 6.67819 14.4678 8.25098H9.53223C9.78167 6.67819 10.1696 5.40647 10.5889 4.43652C10.9466 3.60894 11.3196 3.01731 11.6328 2.64648C11.7855 2.46578 11.9109 2.35215 12 2.28906Z" fill="currentColor"/>
<path d="M14.083 2.47559C17.2191 3.1582 19.7906 5.34902 21.001 8.25098H15.9854C15.7204 6.45606 15.2823 4.98397 14.7881 3.84082C14.5637 3.32186 14.3245 2.86626 14.083 2.47559Z" fill="currentColor"/>
</svg>