<svg width="24" height="24" viewBox="0 0 24 24" fill="none" xmlns="http://www.w3.org/2000/svg">
<path d="M20 14.25C19.3096 14.25 18.75 14.8096 18.75 15.5V18C18.75 18.4142 18.4142 18.75 18 18.75H15.5C14.8096 18.75 14.25 19.3096 14.25 20C14.25 20.6904 14.8096 21.25 15.5 21.25H18C19.7949 21.25 21.25 19.7949 21.25 18V15.5C21.25 14.8096 20.6904 14.25 20 14.25Z" fill="currentColor"/>
<path d="M4 14.25C3.30964 14.25 2.75 14.8096 2.75 15.5V18C2.75 19.7949 4.20507 21.25 6 21.25H8.5C9.19036 21.25 9.75 20.6904 9.75 20C9.75 19.3096 9.19036 18.75 8.5 18.75H6C5.58579 18.75 5.25 18.4142 5.25 18V15.5C5.25 14.8096 4.69036 14.25 4 14.25Z" fill="currentColor"/>
<path d="M15.5 2.75C14.8096 2.75 14.25 3.30964 14.25 4C14.25 4.69036 14.8096 5.25 15.5 5.25H18C18.4142 5.25 18.75 5.58579 18.75 6V8.5C18.75 9.19036 19.3096 9.75 20 9.75C20.6904 9.75 21.25 9.19036 21.25 8.5V6C21.25 4.20507 19.7949 2.75 18 2.75H15.5Z" fill="currentColor"/>
<path d="M6 2.75C4.20507 2.75 2.75 4.20507 2.75 6V8.5C2.75 9.19036 3.30964 9.75 4 9.75C4.69036 9.75 5.25 9.19036 5.25 8.5V6C5.25 5.58579 5.58579 5.25 6 5.25H8.5C9.19036 5.25 9.75 4.69036 9.75 4C9.75 3.30964 9.19036 2.75 8.5 2.75H6Z" fill="currentColor"/>
</svg>