<svg width="24" height="24" viewBox="0 0 24 24" fill="none" xmlns="http://www.w3.org/2000/svg">
<path d="M20 14.75C19.5858 14.75 19.25 15.0858 19.25 15.5V18C19.25 18.6904 18.6904 19.25 18 19.25H15.5C15.0858 19.25 14.75 19.5858 14.75 20C14.75 20.4142 15.0858 20.75 15.5 20.75H18C19.5188 20.75 20.75 19.5188 20.75 18V15.5C20.75 15.0858 20.4142 14.75 20 14.75Z" fill="currentColor"/>
<path d="M4 14.75C3.58579 14.75 3.25 15.0858 3.25 15.5V18C3.25 19.5188 4.48122 20.75 6 20.75H8.5C8.91421 20.75 9.25 20.4142 9.25 20C9.25 19.5858 8.91421 19.25 8.5 19.25H6C5.30964 19.25 4.75 18.6904 4.75 18V15.5C4.75 15.0858 4.41421 14.75 4 14.75Z" fill="currentColor"/>
<path d="M15.5 3.25C15.0858 3.25 14.75 3.58579 14.75 4C14.75 4.41421 15.0858 4.75 15.5 4.75H18C18.6904 4.75 19.25 5.30964 19.25 6V8.5C19.25 8.91421 19.5858 9.25 20 9.25C20.4142 9.25 20.75 8.91421 20.75 8.5V6C20.75 4.48122 19.5188 3.25 18 3.25H15.5Z" fill="currentColor"/>
<path d="M6 3.25C4.48122 3.25 3.25 4.48122 3.25 6V8.5C3.25 8.91421 3.58579 9.25 4 9.25C4.41421 9.25 4.75 8.91421 4.75 8.5V6C4.75 5.30964 5.30964 4.75 6 4.75H8.5C8.91421 4.75 9.25 4.41421 9.25 4C9.25 3.58579 8.91421 3.25 8.5 3.25H6Z" fill="currentColor"/>
</svg>