<svg width="24" height="24" viewBox="0 0 24 24" fill="none" xmlns="http://www.w3.org/2000/svg">
<path d="M13.5996 3C14.7032 3 15.5914 2.99903 16.3086 3.05762C17.0373 3.11716 17.6773 3.24327 18.2695 3.54492C19.2103 4.02429 19.9757 4.78966 20.4551 5.73047C20.7567 6.32266 20.8828 6.9627 20.9424 7.69141C21.001 8.40857 21 9.29681 21 10.4004V13.5996C21 14.7032 21.001 15.5914 20.9424 16.3086C20.8828 17.0373 20.7567 17.6773 20.4551 18.2695C19.9757 19.2103 19.2103 19.9757 18.2695 20.4551C17.6773 20.7567 17.0373 20.8828 16.3086 20.9424C15.5914 21.001 14.7032 21 13.5996 21H10.4004C9.29681 21 8.40857 21.001 7.69141 20.9424C6.9627 20.8828 6.32266 20.7567 5.73047 20.4551C4.78966 19.9757 4.02429 19.2103 3.54492 18.2695C3.24327 17.6773 3.11716 17.0373 3.05762 16.3086C2.99903 15.5914 3 14.7032 3 13.5996V10.4004C3 9.29681 2.99903 8.40857 3.05762 7.69141C3.11716 6.9627 3.24327 6.32266 3.54492 5.73047C4.02429 4.78966 4.78966 4.02429 5.73047 3.54492C6.32266 3.24327 6.9627 3.11716 7.69141 3.05762C8.40857 2.99903 9.29681 3 10.4004 3H13.5996Z" fill="currentColor"/>
</svg>