<svg width="24" height="24" viewBox="0 0 24 24" fill="none" xmlns="http://www.w3.org/2000/svg">
<path d="M19.25 10.4004C19.25 9.26798 19.2497 8.46335 19.1982 7.83399C19.1475 7.21336 19.0506 6.82889 18.8955 6.52442C18.5839 5.91305 18.087 5.41605 17.4756 5.10449C17.1711 4.94936 16.7866 4.85247 16.166 4.80176C15.5367 4.75035 14.732 4.75 13.5996 4.75H10.4004C9.26798 4.75 8.46335 4.75035 7.83399 4.80176C7.21336 4.85247 6.82889 4.94936 6.52442 5.10449C5.91305 5.41605 5.41605 5.91305 5.10449 6.52442C4.94936 6.82889 4.85247 7.21336 4.80176 7.83399C4.75035 8.46335 4.75 9.26798 4.75 10.4004V13.5996C4.75 14.732 4.75035 15.5367 4.80176 16.166C4.85247 16.7866 4.94936 17.1711 5.10449 17.4756C5.41605 18.087 5.91305 18.5839 6.52442 18.8955C6.82889 19.0506 7.21336 19.1475 7.83399 19.1982C8.46335 19.2497 9.26798 19.25 10.4004 19.25H13.5996C14.732 19.25 15.5367 19.2497 16.166 19.1982C16.7866 19.1475 17.1711 19.0506 17.4756 18.8955C18.087 18.5839 18.5839 18.087 18.8955 17.4756C19.0506 17.1711 19.1475 16.7866 19.1982 16.166C19.2497 15.5367 19.25 14.732 19.25 13.5996V10.4004ZM20.75 13.5996C20.75 14.7072 20.7509 15.5835 20.6934 16.2881C20.6351 17.0014 20.5132 17.6051 20.2324 18.1563C19.777 19.05 19.05 19.777 18.1563 20.2324C17.6051 20.5132 17.0014 20.6351 16.2881 20.6934C15.5835 20.7509 14.7072 20.75 13.5996 20.75H10.4004C9.29277 20.75 8.41651 20.7509 7.71192 20.6934C6.99862 20.6351 6.39487 20.5132 5.84375 20.2324C4.94998 19.777 4.22298 19.05 3.76758 18.1563C3.48682 17.6051 3.36492 17.0014 3.30664 16.2881C3.24909 15.5835 3.25 14.7072 3.25 13.5996V10.4004C3.25 9.29277 3.24909 8.41651 3.30664 7.71192C3.36492 6.99862 3.48682 6.39487 3.76758 5.84375C4.22298 4.94998 4.94998 4.22298 5.84375 3.76758C6.39487 3.48682 6.99862 3.36492 7.71192 3.30664C8.41651 3.24909 9.29277 3.25 10.4004 3.25H13.5996C14.7072 3.25 15.5835 3.24909 16.2881 3.30664C17.0014 3.36492 17.6051 3.48682 18.1563 3.76758C19.05 4.22298 19.777 4.94998 20.2324 5.84375C20.5132 6.39487 20.6351 6.99862 20.6934 7.71192C20.7509 8.41651 20.75 9.29277 20.75 10.4004V13.5996Z" fill="currentColor"/>
</svg>