<svg width="24" height="24" viewBox="0 0 24 24" fill="none" xmlns="http://www.w3.org/2000/svg">
<path fill-rule="evenodd" clip-rule="evenodd" d="M3 17C3 16.5479 2.99961 16.1587 3.02149 15.8379C3.04399 15.5081 3.09351 15.1775 3.22852 14.8516C3.53299 14.1168 4.11679 13.533 4.85156 13.2285C5.17749 13.0935 5.50806 13.044 5.83789 13.0215C6.15869 12.9996 6.54787 13 7 13L17 13C17.4521 13 17.8413 12.9996 18.1621 13.0215C18.4919 13.044 18.8225 13.0935 19.1484 13.2285C19.8832 13.533 20.467 14.1168 20.7715 14.8516C20.9065 15.1775 20.956 15.5081 20.9785 15.8379C21.0004 16.1587 21 16.5479 21 17C21 17.4521 21.0004 17.8413 20.9785 18.1621C20.956 18.4919 20.9065 18.8225 20.7715 19.1484C20.467 19.8832 19.8832 20.467 19.1484 20.7715C18.8225 20.9065 18.4919 20.956 18.1621 20.9785C17.8413 21.0004 17.4521 21 17 21H7C6.54787 21 6.15869 21.0004 5.83789 20.9785C5.50806 20.956 5.17749 20.9065 4.85156 20.7715C4.11679 20.467 3.53299 19.8832 3.22852 19.1484C3.09351 18.8225 3.04399 18.4919 3.02149 18.1621C2.99961 17.8413 3 17.4521 3 17ZM5 17C5 17.4796 5.00043 17.7894 5.0166 18.0264C5.03216 18.2543 5.05894 18.3412 5.07617 18.3828C5.17766 18.6277 5.37226 18.8223 5.61719 18.9238C5.65879 18.9411 5.74573 18.9678 5.97363 18.9834C6.21061 18.9996 6.52038 19 7 19H17C17.4796 19 17.7894 18.9996 18.0264 18.9834C18.2543 18.9678 18.3412 18.9411 18.3828 18.9238C18.6277 18.8223 18.8223 18.6277 18.9238 18.3828C18.9411 18.3412 18.9678 18.2543 18.9834 18.0264C18.9996 17.7894 19 17.4796 19 17C19 16.5204 18.9996 16.2106 18.9834 15.9736C18.9678 15.7457 18.9411 15.6588 18.9238 15.6172C18.8223 15.3723 18.6277 15.1777 18.3828 15.0762C18.3412 15.0589 18.2543 15.0322 18.0264 15.0166C17.7894 15.0004 17.4796 15 17 15L7 15C6.52038 15 6.21061 15.0004 5.97363 15.0166C5.74573 15.0322 5.65879 15.0589 5.61719 15.0762C5.37226 15.1777 5.17766 15.3723 5.07617 15.6172C5.05894 15.6588 5.03216 15.7457 5.0166 15.9736C5.00043 16.2106 5 16.5204 5 17Z" fill="currentColor"/>
<path fill-rule="evenodd" clip-rule="evenodd" d="M3 7C3 6.54787 2.99961 6.15869 3.02148 5.83789C3.04399 5.50806 3.09351 5.17749 3.22852 4.85156C3.53299 4.11679 4.11679 3.53299 4.85156 3.22852C5.17749 3.09351 5.50806 3.04399 5.83789 3.02149C6.15869 2.99961 6.54787 3 7 3L17 3C17.4521 3 17.8413 2.99961 18.1621 3.02148C18.4919 3.04399 18.8225 3.09351 19.1484 3.22852C19.8832 3.53299 20.467 4.11679 20.7715 4.85156C20.9065 5.17749 20.956 5.50806 20.9785 5.83789C21.0004 6.15869 21 6.54786 21 7C21 7.45214 21.0004 7.84131 20.9785 8.16211C20.956 8.49194 20.9065 8.82251 20.7715 9.14844C20.467 9.88321 19.8832 10.467 19.1484 10.7715C18.8225 10.9065 18.4919 10.956 18.1621 10.9785C17.8413 11.0004 17.4521 11 17 11L7 11C6.54787 11 6.15869 11.0004 5.83789 10.9785C5.50806 10.956 5.17749 10.9065 4.85156 10.7715C4.11679 10.467 3.53299 9.88321 3.22852 9.14844C3.09351 8.82251 3.04399 8.49194 3.02148 8.16211C2.99961 7.84131 3 7.45214 3 7ZM5 7C5 7.47962 5.00043 7.78939 5.0166 8.02637C5.03216 8.25428 5.05894 8.34121 5.07617 8.38281C5.17766 8.62774 5.37226 8.82234 5.61719 8.92383C5.65879 8.94106 5.74572 8.96784 5.97363 8.9834C6.21061 8.99957 6.52038 9 7 9L17 9C17.4796 9 17.7894 8.99957 18.0264 8.9834C18.2543 8.96784 18.3412 8.94106 18.3828 8.92383C18.6277 8.82234 18.8223 8.62774 18.9238 8.38281C18.9411 8.34121 18.9678 8.25428 18.9834 8.02637C18.9996 7.78939 19 7.47962 19 7C19 6.52038 18.9996 6.21061 18.9834 5.97363C18.9678 5.74572 18.9411 5.65879 18.9238 5.61719C18.8223 5.37226 18.6277 5.17766 18.3828 5.07617C18.3412 5.05894 18.2543 5.03216 18.0264 5.0166C17.7894 5.00043 17.4796 5 17 5L7 5C6.52038 5 6.21061 5.00043 5.97363 5.0166C5.74573 5.03216 5.65879 5.05894 5.61719 5.07617C5.37226 5.17766 5.17766 5.37226 5.07617 5.61719C5.05894 5.6588 5.03216 5.74573 5.0166 5.97363C5.00043 6.21061 5 6.52038 5 7Z" fill="currentColor"/>
</svg>