<svg width="24" height="24" viewBox="0 0 24 24" fill="none" xmlns="http://www.w3.org/2000/svg">
<path fill-rule="evenodd" clip-rule="evenodd" d="M21.25 15.7002C21.25 16.5278 21.251 17.1936 21.207 17.7314C21.1624 18.2781 21.0671 18.758 20.8408 19.2022C20.4813 19.9078 19.9078 20.4813 19.2022 20.8408C18.7579 21.0671 18.2781 21.1624 17.7314 21.207C17.1936 21.251 16.5278 21.25 15.7002 21.25H8.29981C7.47222 21.25 6.80639 21.251 6.26856 21.207C5.72195 21.1624 5.24205 21.0671 4.79785 20.8408C4.09225 20.4813 3.51871 19.9078 3.15918 19.2022C2.93287 18.758 2.83763 18.2781 2.79297 17.7314C2.74903 17.1936 2.75 16.5278 2.75 15.7002L2.75 8.29981C2.75 7.47222 2.74903 6.80638 2.79297 6.26856C2.83763 5.72195 2.93287 5.24205 3.15918 4.79785C3.51871 4.09225 4.09225 3.51871 4.79785 3.15918C5.24205 2.93287 5.72195 2.83763 6.26856 2.79297C6.80639 2.74903 7.47222 2.75 8.29981 2.75L15.7002 2.75C16.5278 2.75 17.1936 2.74903 17.7314 2.79297C18.2781 2.83763 18.758 2.93287 19.2022 3.15918C19.9078 3.51871 20.4813 4.09225 20.8408 4.79785C21.0671 5.24205 21.1624 5.72195 21.207 6.26856C21.251 6.80639 21.25 7.47222 21.25 8.29981V15.7002ZM19.75 8.29981C19.75 7.44746 19.7497 6.85322 19.7119 6.39063C19.6748 5.93681 19.6055 5.67602 19.5049 5.47852C19.2892 5.05515 18.9449 4.71083 18.5215 4.49512C18.324 4.39449 18.0632 4.32517 17.6094 4.28809C17.1468 4.25029 16.5525 4.25 15.7002 4.25L8.29981 4.25C7.44746 4.25 6.85322 4.25029 6.39063 4.28809C5.93681 4.32517 5.67602 4.39449 5.47852 4.49512C5.05515 4.71083 4.71083 5.05515 4.49512 5.47852C4.39449 5.67602 4.32517 5.93681 4.28809 6.39063C4.25029 6.85322 4.25 7.44746 4.25 8.29981V8.75L19.75 8.75V8.29981ZM8.75 10.25L4.25 10.25L4.25 15.7002C4.25 16.5525 4.25029 17.1468 4.28809 17.6094C4.32517 18.0632 4.39449 18.324 4.49512 18.5215C4.71083 18.9449 5.05515 19.2892 5.47852 19.5049C5.67602 19.6055 5.9368 19.6748 6.39063 19.7119C6.85322 19.7497 7.44746 19.75 8.29981 19.75H8.75L8.75 10.25ZM10.25 10.25L10.25 19.75H15.7002C16.5525 19.75 17.1468 19.7497 17.6094 19.7119C18.0632 19.6748 18.324 19.6055 18.5215 19.5049C18.9449 19.2892 19.2892 18.9449 19.5049 18.5215C19.6055 18.324 19.6748 18.0632 19.7119 17.6094C19.7497 17.1468 19.75 16.5525 19.75 15.7002V10.25L10.25 10.25Z" fill="currentColor"/>
</svg>