<svg width="24" height="24" viewBox="0 0 24 24" fill="none" xmlns="http://www.w3.org/2000/svg">
<path fill-rule="evenodd" clip-rule="evenodd" d="M3.25 17C3.25 16.5443 3.24933 16.1649 3.27051 15.8545C3.29215 15.5374 3.33872 15.2376 3.45899 14.9473C3.73809 14.2736 4.27359 13.7381 4.94727 13.459C5.23762 13.3387 5.53744 13.2922 5.85449 13.2705C6.16486 13.2493 6.54433 13.25 7 13.25L17 13.25C17.4557 13.25 17.8351 13.2493 18.1455 13.2705C18.4626 13.2921 18.7624 13.3387 19.0527 13.459C19.7264 13.7381 20.2619 14.2736 20.541 14.9473C20.6613 15.2376 20.7079 15.5374 20.7295 15.8545C20.7507 16.1649 20.75 16.5443 20.75 17C20.75 17.4557 20.7507 17.8351 20.7295 18.1455C20.7079 18.4626 20.6613 18.7624 20.541 19.0527C20.2619 19.7264 19.7264 20.2619 19.0527 20.541C18.7624 20.6613 18.4626 20.7079 18.1455 20.7295C17.8351 20.7507 17.4557 20.75 17 20.75H7C6.54433 20.75 6.16486 20.7507 5.8545 20.7295C5.53744 20.7079 5.23762 20.6613 4.94727 20.541C4.27359 20.2619 3.73809 19.7264 3.45899 19.0527C3.33872 18.7624 3.29215 18.4626 3.27051 18.1455C3.24933 17.8351 3.25 17.4557 3.25 17ZM4.75 17C4.75 17.476 4.75071 17.7955 4.76758 18.043C4.784 18.2837 4.81277 18.4014 4.84473 18.4785C4.9716 18.7848 5.2152 19.0284 5.52149 19.1553C5.59864 19.1872 5.71632 19.216 5.95703 19.2324C6.20446 19.2493 6.52397 19.25 7 19.25H17C17.476 19.25 17.7955 19.2493 18.043 19.2324C18.2837 19.216 18.4014 19.1872 18.4785 19.1553C18.7848 19.0284 19.0284 18.7848 19.1553 18.4785C19.1872 18.4014 19.216 18.2837 19.2324 18.043C19.2493 17.7955 19.25 17.476 19.25 17C19.25 16.524 19.2493 16.2045 19.2324 15.957C19.216 15.7163 19.1872 15.5986 19.1553 15.5215C19.0284 15.2152 18.7848 14.9716 18.4785 14.8447C18.4014 14.8128 18.2837 14.784 18.043 14.7676C17.7955 14.7507 17.476 14.75 17 14.75L7 14.75C6.52397 14.75 6.20446 14.7507 5.95703 14.7676C5.71632 14.784 5.59864 14.8128 5.52149 14.8447C5.2152 14.9716 4.9716 15.2152 4.84473 15.5215C4.81277 15.5986 4.784 15.7163 4.76758 15.957C4.75071 16.2045 4.75 16.524 4.75 17Z" fill="currentColor"/>
<path fill-rule="evenodd" clip-rule="evenodd" d="M3.25 7C3.25 6.54433 3.24933 6.16486 3.27051 5.8545C3.29215 5.53744 3.33872 5.23762 3.45899 4.94727C3.73809 4.27359 4.27359 3.73809 4.94727 3.45899C5.23762 3.33872 5.53744 3.29215 5.85449 3.27051C6.16486 3.24933 6.54432 3.25 7 3.25L17 3.25C17.4557 3.25 17.8351 3.24933 18.1455 3.27051C18.4626 3.29215 18.7624 3.33872 19.0527 3.45899C19.7264 3.73809 20.2619 4.27359 20.541 4.94727C20.6613 5.23762 20.7079 5.53744 20.7295 5.85449C20.7507 6.16486 20.75 6.54432 20.75 7C20.75 7.45568 20.7507 7.83515 20.7295 8.14551C20.7079 8.46256 20.6613 8.76239 20.541 9.05274C20.2619 9.72642 19.7264 10.2619 19.0527 10.541C18.7624 10.6613 18.4626 10.7079 18.1455 10.7295C17.8351 10.7507 17.4557 10.75 17 10.75L7 10.75C6.54433 10.75 6.16486 10.7507 5.85449 10.7295C5.53744 10.7079 5.23762 10.6613 4.94727 10.541C4.27359 10.2619 3.73809 9.72642 3.45899 9.05274C3.33872 8.76239 3.29215 8.46256 3.27051 8.14551C3.24933 7.83515 3.25 7.45568 3.25 7ZM4.75 7C4.75 7.47603 4.75071 7.79555 4.76758 8.04297C4.784 8.28368 4.81277 8.40137 4.84473 8.47852C4.9716 8.7848 5.2152 9.02841 5.52149 9.15528C5.59864 9.18723 5.71632 9.216 5.95703 9.23242C6.20446 9.24929 6.52397 9.25 7 9.25L17 9.25C17.476 9.25 17.7955 9.24929 18.043 9.23242C18.2837 9.216 18.4014 9.18723 18.4785 9.15528C18.7848 9.02841 19.0284 8.7848 19.1553 8.47852C19.1872 8.40137 19.216 8.28368 19.2324 8.04297C19.2493 7.79555 19.25 7.47603 19.25 7C19.25 6.52397 19.2493 6.20446 19.2324 5.95703C19.216 5.71632 19.1872 5.59864 19.1553 5.52149C19.0284 5.2152 18.7848 4.9716 18.4785 4.84473C18.4014 4.81277 18.2837 4.784 18.043 4.76758C17.7955 4.75071 17.476 4.75 17 4.75L7 4.75C6.52397 4.75 6.20446 4.75071 5.95703 4.76758C5.71632 4.784 5.59864 4.81277 5.52149 4.84473C5.2152 4.9716 4.9716 5.2152 4.84473 5.52149C4.81277 5.59864 4.784 5.71633 4.76758 5.95703C4.75071 6.20446 4.75 6.52397 4.75 7Z" fill="currentColor"/>
</svg>