<svg width="24" height="24" viewBox="0 0 24 24" fill="none" xmlns="http://www.w3.org/2000/svg">
<path d="M3 17C3 16.5479 2.99961 16.1587 3.02149 15.8379C3.04399 15.5081 3.09351 15.1775 3.22852 14.8516C3.53299 14.1168 4.11679 13.533 4.85156 13.2285C5.17749 13.0935 5.50806 13.044 5.83789 13.0215C6.15869 12.9996 6.54787 13 7 13L17 13C17.4521 13 17.8413 12.9996 18.1621 13.0215C18.4919 13.044 18.8225 13.0935 19.1484 13.2285C19.8832 13.533 20.467 14.1168 20.7715 14.8516C20.9065 15.1775 20.956 15.5081 20.9785 15.8379C21.0004 16.1587 21 16.5479 21 17C21 17.4521 21.0004 17.8413 20.9785 18.1621C20.956 18.4919 20.9065 18.8225 20.7715 19.1484C20.467 19.8832 19.8832 20.467 19.1484 20.7715C18.8225 20.9065 18.4919 20.956 18.1621 20.9785C17.8413 21.0004 17.4521 21 17 21H7C6.54787 21 6.15869 21.0004 5.83789 20.9785C5.50806 20.956 5.17749 20.9065 4.85156 20.7715C4.11679 20.467 3.53299 19.8832 3.22852 19.1484C3.09351 18.8225 3.04399 18.4919 3.02149 18.1621C2.99961 17.8413 3 17.4521 3 17Z" fill="currentColor"/>
<path d="M3 7C3 6.54787 2.99961 6.15869 3.02148 5.83789C3.04399 5.50806 3.09351 5.17749 3.22852 4.85156C3.53299 4.11679 4.11679 3.53299 4.85156 3.22852C5.17749 3.09351 5.50806 3.04399 5.83789 3.02149C6.15869 2.99961 6.54787 3 7 3L17 3C17.4521 3 17.8413 2.99961 18.1621 3.02148C18.4919 3.04399 18.8225 3.09351 19.1484 3.22852C19.8832 3.53299 20.467 4.11679 20.7715 4.85156C20.9065 5.17749 20.956 5.50806 20.9785 5.83789C21.0004 6.15869 21 6.54786 21 7C21 7.45214 21.0004 7.84131 20.9785 8.16211C20.956 8.49194 20.9065 8.82251 20.7715 9.14844C20.467 9.88321 19.8832 10.467 19.1484 10.7715C18.8225 10.9065 18.4919 10.956 18.1621 10.9785C17.8413 11.0004 17.4521 11 17 11L7 11C6.54787 11 6.15869 11.0004 5.83789 10.9785C5.50806 10.956 5.17749 10.9065 4.85156 10.7715C4.11679 10.467 3.53299 9.88321 3.22852 9.14844C3.09351 8.82251 3.04399 8.49194 3.02148 8.16211C2.99961 7.84131 3 7.45214 3 7Z" fill="currentColor"/>
</svg>