<svg width="24" height="24" viewBox="0 0 24 24" fill="none" xmlns="http://www.w3.org/2000/svg">
<path fill-rule="evenodd" clip-rule="evenodd" d="M21.5 15.7002C21.5 16.5237 21.501 17.2016 21.4561 17.752C21.4101 18.314 21.3117 18.8311 21.0645 19.3164C20.681 20.0689 20.0689 20.681 19.3164 21.0645C18.8311 21.3117 18.314 21.4101 17.752 21.4561C17.2016 21.501 16.5237 21.5 15.7002 21.5H8.29981C7.47632 21.5 6.79843 21.501 6.24805 21.4561C5.68599 21.4101 5.1689 21.3117 4.6836 21.0645C3.93109 20.681 3.31902 20.0689 2.93555 19.3164C2.68827 18.8311 2.58988 18.314 2.54395 17.752C2.49898 17.2016 2.5 16.5237 2.5 15.7002L2.5 8.29981C2.5 7.47632 2.49898 6.79843 2.54395 6.24805C2.58988 5.68599 2.68827 5.1689 2.93555 4.6836C3.31902 3.93109 3.93109 3.31902 4.6836 2.93555C5.1689 2.68827 5.68599 2.58988 6.24805 2.54395C6.79843 2.49898 7.47632 2.5 8.29981 2.5L15.7002 2.5C16.5237 2.5 17.2016 2.49898 17.752 2.54395C18.314 2.58988 18.8311 2.68827 19.3164 2.93555C20.0689 3.31902 20.681 3.93109 21.0645 4.6836C21.3117 5.1689 21.4101 5.68599 21.4561 6.24805C21.501 6.79843 21.5 7.47632 21.5 8.29981V15.7002ZM19.5 8.29981C19.5 7.44342 19.4997 6.86117 19.4629 6.41114C19.4271 5.97272 19.3619 5.7482 19.2822 5.5918C19.0905 5.21555 18.7845 4.90951 18.4082 4.71778C18.2518 4.63809 18.0273 4.57293 17.5889 4.53711C17.1388 4.50035 16.5566 4.5 15.7002 4.5L8.29981 4.5C7.44342 4.5 6.86117 4.50035 6.41114 4.53711C5.97272 4.57293 5.7482 4.63809 5.5918 4.71778C5.21555 4.90951 4.90951 5.21555 4.71778 5.5918C4.63809 5.7482 4.57293 5.97272 4.53711 6.41113C4.50035 6.86117 4.5 7.44342 4.5 8.29981L4.5 8.5L19.5 8.5V8.29981ZM8.5 10.5H4.5L4.5 15.7002C4.5 16.5566 4.50035 17.1388 4.53711 17.5889C4.57293 18.0273 4.63809 18.2518 4.71778 18.4082C4.90951 18.7845 5.21555 19.0905 5.5918 19.2822C5.7482 19.3619 5.97272 19.4271 6.41113 19.4629C6.86117 19.4997 7.44342 19.5 8.29981 19.5H8.5L8.5 10.5ZM10.5 10.5V19.5H15.7002C16.5566 19.5 17.1388 19.4997 17.5889 19.4629C18.0273 19.4271 18.2518 19.3619 18.4082 19.2822C18.7845 19.0905 19.0905 18.7845 19.2822 18.4082C19.3619 18.2518 19.4271 18.0273 19.4629 17.5889C19.4997 17.1388 19.5 16.5566 19.5 15.7002V10.5L10.5 10.5Z" fill="currentColor"/>
</svg>