<svg width="24" height="24" viewBox="0 0 24 24" fill="none" xmlns="http://www.w3.org/2000/svg">
<path fill-rule="evenodd" clip-rule="evenodd" d="M7 3.25C7.45568 3.25 7.83515 3.24933 8.14551 3.27051C8.46256 3.29215 8.76239 3.33872 9.05274 3.45899C9.72642 3.73809 10.2619 4.27359 10.541 4.94727C10.6613 5.23762 10.7079 5.53744 10.7295 5.85449C10.7507 6.16486 10.75 6.54432 10.75 7V17C10.75 17.4557 10.7507 17.8351 10.7295 18.1455C10.7079 18.4626 10.6613 18.7624 10.541 19.0527C10.2619 19.7264 9.72642 20.2619 9.05274 20.541C8.76239 20.6613 8.46256 20.7079 8.14551 20.7295C7.83515 20.7507 7.45568 20.75 7 20.75C6.54432 20.75 6.16486 20.7507 5.85449 20.7295C5.53744 20.7079 5.23762 20.6613 4.94727 20.541C4.27359 20.2619 3.73809 19.7264 3.45899 19.0527C3.33872 18.7624 3.29215 18.4626 3.27051 18.1455C3.24933 17.8351 3.25 17.4557 3.25 17V7C3.25 6.54432 3.24933 6.16486 3.27051 5.85449C3.29215 5.53744 3.33872 5.23762 3.45899 4.94727C3.73809 4.27359 4.27359 3.73809 4.94727 3.45899C5.23762 3.33872 5.53744 3.29215 5.85449 3.27051C6.16486 3.24933 6.54432 3.25 7 3.25ZM7 4.75C6.52397 4.75 6.20446 4.75071 5.95703 4.76758C5.71632 4.784 5.59864 4.81277 5.52149 4.84473C5.2152 4.9716 4.9716 5.2152 4.84473 5.52149C4.81277 5.59864 4.784 5.71632 4.76758 5.95703C4.75071 6.20446 4.75 6.52397 4.75 7V17C4.75 17.476 4.75071 17.7955 4.76758 18.043C4.784 18.2837 4.81277 18.4014 4.84473 18.4785C4.9716 18.7848 5.2152 19.0284 5.52149 19.1553C5.59864 19.1872 5.71632 19.216 5.95703 19.2324C6.20446 19.2493 6.52397 19.25 7 19.25C7.47603 19.25 7.79555 19.2493 8.04297 19.2324C8.28368 19.216 8.40136 19.1872 8.47852 19.1553C8.7848 19.0284 9.02841 18.7848 9.15528 18.4785C9.18723 18.4014 9.216 18.2837 9.23242 18.043C9.24929 17.7955 9.25 17.476 9.25 17V7C9.25 6.52397 9.24929 6.20446 9.23242 5.95703C9.216 5.71632 9.18723 5.59864 9.15528 5.52149C9.02841 5.2152 8.7848 4.9716 8.47852 4.84473C8.40136 4.81277 8.28368 4.784 8.04297 4.76758C7.79555 4.75071 7.47603 4.75 7 4.75Z" fill="currentColor"/>
<path fill-rule="evenodd" clip-rule="evenodd" d="M17 3.25C17.4557 3.25 17.8351 3.24933 18.1455 3.27051C18.4626 3.29215 18.7624 3.33872 19.0527 3.45899C19.7264 3.73809 20.2619 4.27359 20.541 4.94727C20.6613 5.23762 20.7079 5.53744 20.7295 5.85449C20.7507 6.16486 20.75 6.54432 20.75 7V17C20.75 17.4557 20.7507 17.8351 20.7295 18.1455C20.7079 18.4626 20.6613 18.7624 20.541 19.0527C20.2619 19.7264 19.7264 20.2619 19.0527 20.541C18.7624 20.6613 18.4626 20.7079 18.1455 20.7295C17.8351 20.7507 17.4557 20.75 17 20.75C16.5443 20.75 16.1649 20.7507 15.8545 20.7295C15.5374 20.7079 15.2376 20.6613 14.9473 20.541C14.2736 20.2619 13.7381 19.7264 13.459 19.0527C13.3387 18.7624 13.2921 18.4626 13.2705 18.1455C13.2493 17.8351 13.25 17.4557 13.25 17V7C13.25 6.54432 13.2493 6.16486 13.2705 5.85449C13.2921 5.53744 13.3387 5.23762 13.459 4.94727C13.7381 4.27359 14.2736 3.73809 14.9473 3.45899C15.2376 3.33872 15.5374 3.29215 15.8545 3.27051C16.1649 3.24933 16.5443 3.25 17 3.25ZM17 4.75C16.524 4.75 16.2045 4.75071 15.957 4.76758C15.7163 4.784 15.5986 4.81277 15.5215 4.84473C15.2152 4.9716 14.9716 5.2152 14.8447 5.52149C14.8128 5.59864 14.784 5.71632 14.7676 5.95703C14.7507 6.20446 14.75 6.52397 14.75 7V17C14.75 17.476 14.7507 17.7955 14.7676 18.043C14.784 18.2837 14.8128 18.4014 14.8447 18.4785C14.9716 18.7848 15.2152 19.0284 15.5215 19.1553C15.5986 19.1872 15.7163 19.216 15.957 19.2324C16.2045 19.2493 16.524 19.25 17 19.25C17.476 19.25 17.7955 19.2493 18.043 19.2324C18.2837 19.216 18.4014 19.1872 18.4785 19.1553C18.7848 19.0284 19.0284 18.7848 19.1553 18.4785C19.1872 18.4014 19.216 18.2837 19.2324 18.043C19.2493 17.7955 19.25 17.476 19.25 17V7C19.25 6.52397 19.2493 6.20446 19.2324 5.95703C19.216 5.71632 19.1872 5.59864 19.1553 5.52149C19.0284 5.2152 18.7848 4.9716 18.4785 4.84473C18.4014 4.81277 18.2837 4.784 18.043 4.76758C17.7955 4.75071 17.476 4.75 17 4.75Z" fill="currentColor"/>
</svg>