<svg width="24" height="24" viewBox="0 0 24 24" fill="none" xmlns="http://www.w3.org/2000/svg">
<path fill-rule="evenodd" clip-rule="evenodd" d="M12 2.25C14.6234 2.25 16.75 4.37665 16.75 7V9.75H17C18.5188 9.75 19.75 10.9812 19.75 12.5V19C19.75 20.5188 18.5188 21.75 17 21.75H7C5.48122 21.75 4.25 20.5188 4.25 19V12.5C4.25 10.9812 5.48122 9.75 7 9.75H7.25V7C7.25 4.37665 9.37665 2.25 12 2.25ZM12 14.25C11.5858 14.25 11.25 14.5858 11.25 15V16.5C11.25 16.9142 11.5858 17.25 12 17.25C12.4142 17.25 12.75 16.9142 12.75 16.5V15C12.75 14.5858 12.4142 14.25 12 14.25ZM12 3.75C10.2051 3.75 8.75 5.20507 8.75 7V9.75H15.25V7C15.25 5.20507 13.7949 3.75 12 3.75Z" fill="currentColor"/>
</svg>