<svg width="24" height="24" viewBox="0 0 24 24" fill="none" xmlns="http://www.w3.org/2000/svg">
<path d="M17.3343 1C17.6989 1.00019 18.0343 1.19932 18.2099 1.51885C18.3855 1.83879 18.3728 2.22929 18.1769 2.53721L14.4887 8.33369H20.0007C20.3894 8.33379 20.743 8.55921 20.9071 8.91162C21.0712 9.26422 21.016 9.68076 20.7654 9.97832L10.0985 22.6444C9.9033 22.8763 9.62025 23 9.3327 23C9.17522 22.9999 9.01612 22.9632 8.86906 22.8861C8.45337 22.6681 8.24563 22.1896 8.36917 21.7367L10.0238 15.6674H3.99979C3.64257 15.6673 3.31263 15.4762 3.13404 15.1668C2.95558 14.8571 2.95599 14.475 3.13514 14.1656L10.4676 1.49951C10.6463 1.19076 10.9766 1.00008 11.3334 1H17.3343Z" fill="currentColor"/>
</svg>