<svg width="24" height="24" viewBox="0 0 24 24" fill="none" xmlns="http://www.w3.org/2000/svg">
<path d="M14.1213 11.2918C14.5118 10.9017 15.1449 10.9017 15.5354 11.2918L16.2424 11.9998C16.6328 12.3903 16.6328 13.0233 16.2424 13.4138C15.852 13.804 15.2188 13.804 14.8284 13.4138L14.1213 12.7068C13.7308 12.3163 13.7309 11.6823 14.1213 11.2918Z" fill="currentColor"/>
<path d="M10.5862 7.75661C10.9767 7.36644 11.6098 7.36623 12.0002 7.75661L12.7073 8.46364C13.0976 8.85405 13.0975 9.48716 12.7073 9.8777C12.3168 10.2682 11.6837 10.2682 11.2932 9.8777L10.5862 9.17067C10.1957 8.78017 10.1957 8.14714 10.5862 7.75661Z" fill="currentColor"/>
<path fill-rule="evenodd" clip-rule="evenodd" d="M11.2717 2.12087C12.4433 0.949294 14.3433 0.949294 15.5149 2.12087L17.303 3.90895C17.6935 4.29946 17.6934 4.93249 17.303 5.32302C16.9427 5.68331 16.9173 5.93427 16.9299 6.07302C16.9465 6.25319 17.055 6.48896 17.303 6.73708C17.5515 6.98558 17.7887 7.09568 17.969 7.11208C18.1079 7.12454 18.3573 7.09677 18.717 6.73708C19.1075 6.34664 19.7416 6.34667 20.1321 6.73708L21.8791 8.48415C23.0506 9.65565 23.0505 11.5557 21.8791 12.7273L12.6868 21.9197C11.5152 23.0913 9.61517 23.0913 8.4436 21.9197L6.69653 20.1726C6.30614 19.7821 6.30616 19.1491 6.69653 18.7586C7.05636 18.3987 7.08305 18.1484 7.07055 18.0095C7.05406 17.8293 6.94478 17.5928 6.69653 17.3445C6.44808 17.0961 6.2118 16.9869 6.03149 16.9705C5.89272 16.9579 5.64264 16.9843 5.28247 17.3445C5.09424 17.5327 4.83864 17.6372 4.5725 17.6365C4.30628 17.6356 4.0506 17.529 3.86352 17.3396L2.07739 15.53C0.919068 14.3564 0.925216 12.4677 2.09106 11.3015L11.2717 2.12087ZM14.1008 3.53493C13.7104 3.14448 13.0773 3.14462 12.6868 3.53493L3.5061 12.7156C3.11745 13.1042 3.11526 13.7335 3.50122 14.1248L4.67407 15.3142C5.16272 15.0447 5.68356 14.9302 6.21313 14.9783C7.00457 15.0504 7.65211 15.4711 8.11059 15.9295C8.56913 16.388 8.99065 17.0361 9.06274 17.8279C9.11104 18.3592 8.9953 18.8818 8.72387 19.3718L9.85766 20.5056C10.2481 20.8961 10.8812 20.8959 11.2717 20.5056L20.4641 11.3132C20.8546 10.9227 20.8546 10.2897 20.4641 9.89919L19.3303 8.7654C18.8404 9.03665 18.3185 9.15252 17.7873 9.10427C16.9955 9.03228 16.3475 8.61067 15.8889 8.15212C15.4305 7.69371 15.01 7.04608 14.9377 6.25466C14.8894 5.72339 15.0052 5.20073 15.2766 4.71071L14.1008 3.53493Z" fill="currentColor"/>
</svg>