<svg width="24" height="24" viewBox="0 0 24 24" fill="none" xmlns="http://www.w3.org/2000/svg">
<path fill-rule="evenodd" clip-rule="evenodd" d="M11.272 2.12076C12.4436 0.9494 14.3436 0.949259 15.5151 2.12076L17.3032 3.90885C17.6934 4.2993 17.6934 4.93244 17.3032 5.32291C16.9429 5.6832 16.9176 5.93416 16.9302 6.07291C16.9467 6.25307 17.0553 6.48888 17.3032 6.73697C17.5516 6.98532 17.7889 7.09558 17.9692 7.11197C18.1082 7.12434 18.358 7.0963 18.7173 6.73697C19.1078 6.34675 19.7419 6.34663 20.1323 6.73697L21.8794 8.48404C23.0506 9.65549 23.0505 11.5557 21.8794 12.7272L12.687 21.9196C11.5155 23.0911 9.61543 23.0909 8.44384 21.9196L6.69677 20.1725C6.30638 19.782 6.3064 19.149 6.69677 18.7585C7.05637 18.3988 7.08328 18.1483 7.0708 18.0094C7.05431 17.8292 6.94487 17.5926 6.69677 17.3444C6.44852 17.0962 6.21199 16.9869 6.03173 16.9704C5.89299 16.9578 5.64277 16.9844 5.28271 17.3444C5.09458 17.5325 4.83873 17.637 4.57275 17.6364C4.30662 17.6355 4.05083 17.5288 3.86376 17.3395L2.07763 15.5299C0.919312 14.3563 0.92546 12.4676 2.0913 11.3014L11.272 2.12076ZM15.5356 11.2917C15.1451 10.9013 14.5111 10.9012 14.1206 11.2917C13.7302 11.6822 13.7302 12.3162 14.1206 12.7067L14.8286 13.4137C15.2192 13.8038 15.8523 13.8041 16.2427 13.4137C16.633 13.0233 16.6328 12.3902 16.2427 11.9997L15.5356 11.2917ZM11.9995 7.7565C11.609 7.36621 10.9759 7.36611 10.5854 7.7565C10.195 8.14698 10.1951 8.78005 10.5854 9.17057L11.2925 9.8776C11.683 10.2681 12.316 10.2681 12.7065 9.8776C13.097 9.48706 13.097 8.85404 12.7065 8.46353L11.9995 7.7565Z" fill="currentColor"/>
</svg>