<svg width="24" height="24" viewBox="0 0 24 24" fill="none" xmlns="http://www.w3.org/2000/svg">
<path fill-rule="evenodd" clip-rule="evenodd" d="M12 2C17.799 2 22.5 6.70101 22.5 12.5C22.5 12.5492 22.4982 12.5941 22.4971 12.623C22.4957 12.6575 22.4954 12.6716 22.4951 12.6855C22.4889 13.0396 22.2955 13.3637 21.9873 13.5381C21.6791 13.7124 21.3018 13.7112 20.9951 13.5342C20.4074 13.195 19.7277 13 19 13C17.9794 13 17.0497 13.3803 16.3428 14.0088C15.9825 14.329 15.445 14.3466 15.0645 14.0508C14.4684 13.5874 13.7662 13.2564 13 13.1006V18.9004C12.9998 20.6951 11.5448 22.1504 9.75 22.1504C7.9552 22.1504 6.50021 20.6951 6.5 18.9004C6.5 18.3481 6.94772 17.9004 7.5 17.9004C8.05228 17.9004 8.5 18.3481 8.5 18.9004C8.50021 19.5906 9.05977 20.1504 9.75 20.1504C10.4402 20.1504 10.9998 19.5906 11 18.9004V13.1006C10.2332 13.2563 9.53068 13.5873 8.93457 14.0508C8.55407 14.3467 8.01653 14.329 7.65625 14.0088C6.94914 13.3803 6.02007 13 5 13C4.27173 13 3.5914 13.1949 3.00391 13.5342C2.69724 13.7112 2.31991 13.7124 2.01172 13.5381C1.70353 13.3637 1.51013 13.0396 1.50391 12.6855C1.50357 12.6663 1.50299 12.6482 1.50195 12.6143C1.50105 12.5847 1.5 12.544 1.5 12.5C1.5 6.70101 6.20101 2 12 2ZM12 4C7.75945 4 4.24459 7.10535 3.60449 11.166C4.05261 11.0589 4.5196 11 5 11C6.24203 11 7.39697 11.3787 8.35449 12.0254C9.41634 11.376 10.6647 11 12 11C13.3347 11 14.5824 11.3757 15.6436 12.0244C16.6015 11.3773 17.7578 11 19 11C19.4802 11 19.9468 11.0589 20.3945 11.166C19.7544 7.10542 16.2405 4 12 4Z" fill="currentColor"/>
</svg>