<svg width="24" height="24" viewBox="0 0 24 24" fill="none" xmlns="http://www.w3.org/2000/svg">
<path d="M7.36816 3.14501C8.0212 2.85253 8.7014 2.99579 9.18555 3.35692C9.68158 3.72702 10 4.33499 10 5.00145L10.0117 5.46434C10.2529 10.2197 14.1849 14.0015 19 14.0015C19.666 14.0015 20.2742 14.3199 20.6445 14.8159C21.03 15.3325 21.1671 16.0716 20.792 16.7632C19.1015 19.8801 15.8005 22.0015 12 22.0015C6.47725 22.0015 2.00025 17.524 2 12.0015C2 8.20129 4.12069 4.90009 7.2373 3.20946L7.36816 3.14501ZM4.01074 12.4136C4.22544 16.6402 7.72014 20.0015 12 20.0015C14.9593 20.0015 17.5427 18.3936 18.9268 15.9995C12.9095 15.9603 8.03992 11.0909 8.00098 5.07372C5.60712 6.45782 4 9.04212 4 12.0015L4.01074 12.4136Z" fill="currentColor"/>
</svg>