<svg width="24" height="24" viewBox="0 0 24 24" fill="none" xmlns="http://www.w3.org/2000/svg">
<path fill-rule="evenodd" clip-rule="evenodd" d="M14.7998 2C15.3434 2 15.8116 1.99893 16.1953 2.03028C16.5906 2.06259 16.984 2.13441 17.3623 2.32715C17.9265 2.61473 18.3853 3.07348 18.6729 3.6377C18.8656 4.01599 18.9374 4.40944 18.9697 4.80469C19.0011 5.18836 19 5.65665 19 6.2002V17.7998C19 18.3434 19.0011 18.8116 18.9697 19.1953C18.9374 19.5906 18.8656 19.984 18.6729 20.3623C18.3853 20.9265 17.9265 21.3853 17.3623 21.6729C16.984 21.8656 16.5906 21.9374 16.1953 21.9697C15.8116 22.0011 15.3434 22 14.7998 22H9.2002C8.65665 22 8.18836 22.0011 7.80469 21.9697C7.40944 21.9374 7.01599 21.8656 6.6377 21.6729C6.07348 21.3853 5.61473 20.9265 5.32715 20.3623C5.1344 19.984 5.06259 19.5906 5.03028 19.1953C5.01461 19.0035 5.00764 18.7904 5.00391 18.5576L5 17.7998V6.2002C5 5.65665 4.99893 5.18836 5.03028 4.80469C5.06259 4.40944 5.1344 4.01599 5.32715 3.6377C5.61473 3.07348 6.07348 2.61473 6.6377 2.32715C7.01599 2.1344 7.40944 2.06259 7.80469 2.03028C8.18836 1.99893 8.65665 2 9.2002 2H14.7998ZM10 17.5C9.44772 17.5 9.00001 17.9477 9 18.5C9 19.0523 9.44772 19.5 10 19.5H14C14.5523 19.5 15 19.0523 15 18.5C15 17.9477 14.5523 17.5 14 17.5H10Z" fill="currentColor"/>
</svg>