<svg width="24" height="24" viewBox="0 0 24 24" fill="none" xmlns="http://www.w3.org/2000/svg">
<path d="M14 17C14.5523 17 15 17.4477 15 18C15 18.5523 14.5523 19 14 19H10C9.44772 19 9 18.5523 9 18C9.00001 17.4477 9.44772 17 10 17H14Z" fill="currentColor"/>
<path fill-rule="evenodd" clip-rule="evenodd" d="M14.7998 2C15.3434 2 15.8116 1.99893 16.1953 2.03028C16.5906 2.06259 16.984 2.1344 17.3623 2.32715C17.9265 2.61473 18.3853 3.07348 18.6729 3.6377C18.8656 4.016 18.9374 4.40944 18.9697 4.80469C19.0011 5.18836 19 5.65665 19 6.2002V17.7998C19 18.3434 19.0011 18.8116 18.9697 19.1953C18.9374 19.5906 18.8656 19.984 18.6729 20.3623C18.3853 20.9265 17.9265 21.3853 17.3623 21.6729C16.984 21.8656 16.5906 21.9374 16.1953 21.9697C15.8116 22.0011 15.3434 22 14.7998 22H9.2002C8.65665 22 8.18836 22.0011 7.80469 21.9697C7.40944 21.9374 7.01599 21.8656 6.6377 21.6729C6.07348 21.3853 5.61473 20.9265 5.32715 20.3623C5.1344 19.984 5.06259 19.5906 5.03028 19.1953C5.01461 19.0035 5.00764 18.7904 5.00391 18.5576L5 17.7998V6.2002C5 5.65665 4.99893 5.18836 5.03028 4.80469C5.06259 4.40944 5.1344 4.016 5.32715 3.6377C5.61473 3.07348 6.07348 2.61473 6.6377 2.32715C7.01599 2.1344 7.40944 2.06259 7.80469 2.03028C8.18836 1.99893 8.65665 2 9.2002 2H14.7998ZM9.2002 4C8.62365 4 8.25111 4.00127 7.96778 4.02442C7.6962 4.04662 7.59534 4.08419 7.5459 4.10938C7.35794 4.20522 7.20522 4.35793 7.10938 4.5459C7.08419 4.59534 7.04662 4.69619 7.02442 4.96778C7.00127 5.25111 7 5.62365 7 6.2002V17.7998L7.00293 18.5264C7.00602 18.7268 7.01285 18.8906 7.02442 19.0322C7.04661 19.3038 7.08419 19.4047 7.10938 19.4541C7.20522 19.6421 7.35794 19.7948 7.5459 19.8906C7.59534 19.9158 7.6962 19.9534 7.96778 19.9756C8.25111 19.9987 8.62365 20 9.2002 20H14.7998C15.3764 20 15.7489 19.9987 16.0322 19.9756C16.3038 19.9534 16.4047 19.9158 16.4541 19.8906C16.6421 19.7948 16.7948 19.6421 16.8906 19.4541C16.9158 19.4047 16.9534 19.3038 16.9756 19.0322C16.9987 18.7489 17 18.3764 17 17.7998V6.2002C17 5.62365 16.9987 5.25111 16.9756 4.96778C16.9534 4.6962 16.9158 4.59534 16.8906 4.5459C16.7948 4.35794 16.6421 4.20522 16.4541 4.10938C16.4047 4.08419 16.3038 4.04661 16.0322 4.02442C15.7489 4.00127 15.3764 4 14.7998 4H9.2002Z" fill="currentColor"/>
</svg>