<svg width="24" height="24" viewBox="0 0 24 24" fill="none" xmlns="http://www.w3.org/2000/svg">
<path d="M16.0005 6.75C16.6907 6.75025 17.2505 7.3098 17.2505 8C17.2505 8.6902 16.6907 9.24975 16.0005 9.25C15.3102 9.25 14.7505 8.69036 14.7505 8C14.7505 7.30964 15.3102 6.75 16.0005 6.75Z" fill="currentColor"/>
<path fill-rule="evenodd" clip-rule="evenodd" d="M18.0005 2.25C20.0714 2.25022 21.7505 3.92907 21.7505 6V10.9648C21.7504 11.8266 21.4077 12.6533 20.7984 13.2627L13.2984 20.7627C12.0293 22.0316 9.97186 22.0314 8.70269 20.7627L3.23785 15.2979C1.9689 14.0287 1.96889 11.9713 3.23785 10.7021L10.7378 3.20215C11.3472 2.59287 12.174 2.2501 13.0357 2.25H18.0005ZM13.0357 3.75C12.5718 3.7501 12.1265 3.93472 11.7984 4.2627L4.29839 11.7627C3.61523 12.4461 3.61523 13.5539 4.29839 14.2373L9.76324 19.7021C10.4466 20.3851 11.5545 20.3852 12.2378 19.7021L19.7378 12.2021C20.0658 11.8741 20.2504 11.4287 20.2505 10.9648V6C20.2505 4.75749 19.243 3.75022 18.0005 3.75H13.0357Z" fill="currentColor"/>
</svg>