<svg width="24" height="24" viewBox="0 0 24 24" fill="none" xmlns="http://www.w3.org/2000/svg">
<path d="M16.0005 6.5C16.8287 6.50025 17.5005 7.17173 17.5005 8C17.5005 8.82827 16.8287 9.49975 16.0005 9.5C15.1721 9.5 14.5005 8.82843 14.5005 8C14.5005 7.17157 15.1721 6.5 16.0005 6.5Z" fill="currentColor"/>
<path fill-rule="evenodd" clip-rule="evenodd" d="M18.0005 2C20.2095 2.00023 22.0005 3.79101 22.0005 6V10.9648C22.0004 11.8929 21.6313 12.7832 20.9751 13.4395L13.4751 20.9395C12.1084 22.306 9.89272 22.3058 8.52591 20.9395L3.06107 15.4746C1.69449 14.1078 1.69449 11.8922 3.06107 10.5254L10.5611 3.02539C11.2173 2.36924 12.1077 2.0001 13.0357 2H18.0005ZM13.0357 4C12.6381 4.0001 12.2563 4.15837 11.9751 4.43945L4.47513 11.9395C3.8896 12.5252 3.8896 13.4748 4.47513 14.0605L9.93998 19.5254C10.5257 20.1107 11.4754 20.1109 12.0611 19.5254L19.5611 12.0254C19.8421 11.7442 20.0004 11.3624 20.0005 10.9648V6C20.0005 4.89558 19.1049 4.00023 18.0005 4H13.0357Z" fill="currentColor"/>
</svg>