<svg width="24" height="24" viewBox="0 0 24 24" fill="none" xmlns="http://www.w3.org/2000/svg">
<path fill-rule="evenodd" clip-rule="evenodd" d="M18.0005 2C20.2093 2.00037 22.0005 3.79109 22.0005 6V10.9648C22.0004 11.8928 21.6312 12.7832 20.9751 13.4395L13.4751 20.9395C12.1085 22.3059 9.89273 22.3057 8.52592 20.9395L3.06107 15.4746C1.69449 14.1078 1.69449 11.8922 3.06107 10.5254L10.5611 3.02539C11.2173 2.36932 12.1077 2.0001 13.0357 2H18.0005ZM15.9995 6.5C15.1713 6.50017 14.4995 7.17168 14.4995 8C14.4995 8.82832 15.1713 9.49983 15.9995 9.5C16.828 9.5 17.4995 8.82843 17.4995 8C17.4995 7.17157 16.828 6.5 15.9995 6.5Z" fill="currentColor"/>
</svg>