<svg width="24" height="24" viewBox="0 0 24 24" fill="none" xmlns="http://www.w3.org/2000/svg">
<path d="M12 10C13.1046 10 14 10.8954 14 12C14 13.1046 13.1046 14 12 14C10.8954 14 10 13.1046 10 12C10 10.8954 10.8954 10 12 10Z" fill="currentColor"/>
<path fill-rule="evenodd" clip-rule="evenodd" d="M12 4.5C15.2621 4.5 17.7487 5.77147 19.418 7.31641C20.2485 8.08508 20.882 8.92577 21.3125 9.7207C21.7314 10.4944 22 11.303 22 12C22 12.697 21.7314 13.5056 21.3125 14.2793C20.882 15.0742 20.2485 15.9149 19.418 16.6836C17.7487 18.2285 15.2621 19.5 12 19.5C8.73785 19.5 6.25127 18.2285 4.58203 16.6836C3.75154 15.9149 3.11796 15.0742 2.6875 14.2793C2.26861 13.5056 2 12.697 2 12C2 11.303 2.26861 10.4944 2.6875 9.7207C3.11796 8.92577 3.75154 8.08508 4.58203 7.31641C6.25127 5.77147 8.73785 4.5 12 4.5ZM12 8C9.79086 8 8 9.79086 8 12C8 14.2091 9.79086 16 12 16C14.2091 16 16 14.2091 16 12C16 9.79086 14.2091 8 12 8Z" fill="currentColor"/>
</svg>