<svg width="24" height="24" viewBox="0 0 24 24" fill="none" xmlns="http://www.w3.org/2000/svg">
<path d="M10.5862 2.10134C11.3672 1.32039 12.6333 1.32039 13.4143 2.10134L15.3137 4.00075H18.0003C19.1048 4.00083 20.0003 4.89623 20.0003 6.00075V8.68727L21.8997 10.5867C22.6805 11.3677 22.6806 12.6338 21.8997 13.4148L20.0003 15.3142V18.0007C20.0002 19.1052 19.1047 20.0007 18.0003 20.0007H15.3137L13.4143 21.9002C12.6333 22.6811 11.3672 22.681 10.5862 21.9002L8.68678 20.0007H6.00026C4.89574 20.0007 4.00035 19.1052 4.00026 18.0007V15.3142L2.10084 13.4148C1.3199 12.6338 1.3199 11.3677 2.10084 10.5867L4.00026 8.68727V6.00075C4.00026 4.89618 4.89569 4.00075 6.00026 4.00075H8.68678L10.5862 2.10134Z" fill="currentColor"/>
</svg>