<svg width="24" height="24" viewBox="0 0 24 24" fill="none" xmlns="http://www.w3.org/2000/svg">
<path d="M14.47 9.4705C14.7629 9.1776 15.2377 9.1776 15.5306 9.4705C15.8232 9.76341 15.8234 10.2382 15.5306 10.531L11.5306 14.531C11.2378 14.8238 10.7629 14.8237 10.47 14.531L8.47001 12.531C8.17711 12.2381 8.17711 11.7634 8.47001 11.4705C8.7629 11.1776 9.23766 11.1776 9.53055 11.4705L11.0003 12.9402L14.47 9.4705Z" fill="currentColor"/>
<path fill-rule="evenodd" clip-rule="evenodd" d="M10.763 2.27811C11.4464 1.5948 12.5542 1.5948 13.2376 2.27811L15.137 4.17753C15.1838 4.22429 15.2476 4.25073 15.3138 4.25077H18.0003C18.9667 4.25084 19.7503 5.03431 19.7503 6.00077V8.68729C19.7504 8.7535 19.7767 8.81723 19.8235 8.86405L21.7229 10.7635C22.4061 11.4469 22.4062 12.5547 21.7229 13.2381L19.8235 15.1375C19.7767 15.1843 19.7503 15.248 19.7503 15.3142V18.0008C19.7502 18.9672 18.9667 19.7507 18.0003 19.7508H15.3138C15.2475 19.7508 15.1838 19.7772 15.137 19.824L13.2376 21.7234C12.5542 22.4067 11.4464 22.4066 10.763 21.7234L8.86356 19.824C8.81674 19.7772 8.75301 19.7508 8.6868 19.7508H6.00028C5.03382 19.7508 4.25035 18.9672 4.25028 18.0008V15.3142C4.25024 15.2481 4.22381 15.1843 4.17704 15.1375L2.27762 13.2381C1.59431 12.5547 1.59431 11.4469 2.27762 10.7635L4.17704 8.86405C4.22386 8.81723 4.25021 8.7535 4.25028 8.68729V6.00077C4.25028 5.03427 5.03378 4.25077 6.00028 4.25077H8.6868C8.75301 4.25069 8.81674 4.22434 8.86356 4.17753L10.763 2.27811ZM12.177 3.33866C12.0794 3.24113 11.9211 3.24113 11.8235 3.33866L9.92411 5.23807C9.59599 5.5662 9.15083 5.75069 8.6868 5.75077H6.00028C5.86221 5.75077 5.75028 5.8627 5.75028 6.00077V8.68729C5.75021 9.15132 5.56571 9.59647 5.23759 9.9246L3.33817 11.824C3.24064 11.9216 3.24064 12.0799 3.33817 12.1775L5.23759 14.0769C5.56566 14.4051 5.75024 14.8502 5.75028 15.3142V18.0008C5.75035 18.1388 5.86225 18.2508 6.00028 18.2508H8.6868C9.15083 18.2508 9.59599 18.4353 9.92411 18.7635L11.8235 20.6629C11.9211 20.7603 12.0795 20.7604 12.177 20.6629L14.0765 18.7635C14.4046 18.4353 14.8497 18.2508 15.3138 18.2508H18.0003C18.1382 18.2507 18.2502 18.1387 18.2503 18.0008V15.3142C18.2503 14.8502 18.4348 14.4051 18.763 14.0769L20.6624 12.1775C20.7599 12.08 20.7598 11.9216 20.6624 11.824L18.763 9.9246C18.4349 9.59647 18.2504 9.15132 18.2503 8.68729V6.00077C18.2503 5.86274 18.1383 5.75084 18.0003 5.75077H15.3138C14.8497 5.75073 14.4046 5.56615 14.0765 5.23807L12.177 3.33866Z" fill="currentColor"/>
</svg>