<svg width="24" height="24" viewBox="0 0 24 24" fill="none" xmlns="http://www.w3.org/2000/svg">
<path d="M14.2932 9.29372C14.6838 8.90319 15.3168 8.90319 15.7073 9.29372C16.0975 9.68427 16.0977 10.3174 15.7073 10.7078L11.7073 14.7078C11.3169 15.0982 10.6838 15.098 10.2932 14.7078L8.29323 12.7078C7.90271 12.3173 7.90271 11.6842 8.29323 11.2937C8.68375 10.9032 9.31677 10.9032 9.70729 11.2937L11.0003 12.5867L14.2932 9.29372Z" fill="currentColor"/>
<path fill-rule="evenodd" clip-rule="evenodd" d="M10.5862 2.10134C11.3672 1.32039 12.6333 1.32039 13.4143 2.10134L15.3137 4.00075H18.0003C19.1048 4.00083 20.0003 4.89623 20.0003 6.00075V8.68727L21.8997 10.5867C22.6805 11.3677 22.6806 12.6338 21.8997 13.4148L20.0003 15.3142V18.0007C20.0002 19.1052 19.1047 20.0007 18.0003 20.0007H15.3137L13.4143 21.9002C12.6333 22.6811 11.3672 22.681 10.5862 21.9002L8.68678 20.0007H6.00026C4.89574 20.0007 4.00035 19.1052 4.00026 18.0007V15.3142L2.10085 13.4148C1.3199 12.6338 1.3199 11.3677 2.10085 10.5867L4.00026 8.68727V6.00075C4.00026 4.89618 4.89569 4.00075 6.00026 4.00075H8.68678L10.5862 2.10134ZM10.1008 5.41481C9.72585 5.78981 9.21711 6.00067 8.68678 6.00075H6.00026V8.68727C6.00018 9.2176 5.78932 9.72634 5.41432 10.1013L3.51491 12.0007L5.41432 13.9002C5.78926 14.2752 6.00022 14.7839 6.00026 15.3142V18.0007H8.68678C9.21711 18.0008 9.72585 18.2117 10.1008 18.5867L12.0003 20.4861L13.8997 18.5867C14.2747 18.2116 14.7834 18.0008 15.3137 18.0007H18.0003V15.3142C18.0003 14.7838 18.2112 14.2752 18.5862 13.9002L20.4856 12.0007L18.5862 10.1013C18.2112 9.72634 18.0003 9.21759 18.0003 8.68727V6.00075H15.3137C14.7834 6.00071 14.2747 5.78975 13.8997 5.41481L12.0003 3.5154L10.1008 5.41481Z" fill="currentColor"/>
</svg>