<svg width="24" height="24" viewBox="0 0 24 24" fill="none" xmlns="http://www.w3.org/2000/svg">
<path d="M17.2573 3.63281C18.8794 3.63296 20.4238 4.52084 21.3657 6.08789C22.4903 7.95912 22.5158 10.4192 21.3091 12.6904C20.401 14.3997 18.9067 16.0522 17.2983 17.498C15.6994 18.9355 14.0371 20.1242 12.8433 20.9141C12.5843 21.0851 12.2913 21.1699 11.9995 21.1699L11.8901 21.166C11.6355 21.1475 11.3834 21.0637 11.1567 20.9141C9.96255 20.1243 8.29962 18.9356 6.70068 17.498C5.09259 16.0523 3.59903 14.3996 2.69092 12.6904C1.48488 10.4188 1.5098 7.95891 2.63428 6.08789L2.6333 6.08691C3.51775 4.61825 4.93091 3.74688 6.43994 3.64355L6.74268 3.63281C9.21023 3.63285 10.5205 5.15747 11.1392 6.20312C11.3191 6.50736 11.646 6.69435 11.9995 6.69434C12.353 6.69431 12.6799 6.50736 12.8599 6.20312C13.4589 5.19047 14.7078 3.72831 17.0288 3.6377L17.2573 3.63281Z" stroke="black" stroke-width="2" stroke-linejoin="round"/>
</svg>