<svg width="24" height="24" viewBox="0 0 24 24" fill="none" xmlns="http://www.w3.org/2000/svg">
<path fill-rule="evenodd" clip-rule="evenodd" d="M20.75 15.501H20.7158C20.7376 15.6646 20.75 15.8314 20.75 16.001C20.75 18.072 19.0711 19.751 17 19.751C14.9289 19.751 13.25 18.072 13.25 16.001C13.25 13.9299 14.9289 12.251 17 12.251C17.8441 12.251 18.6233 12.5294 19.25 13V7.82227L9.75 8.68555V16.501H9.71582C9.73763 16.6646 9.75 16.8314 9.75 17.001C9.75 19.072 8.07107 20.751 6 20.751C3.92893 20.751 2.25 19.072 2.25 17.001C2.25 14.9299 3.92893 13.251 6 13.251C6.84405 13.251 7.62331 13.5294 8.25 14V3.31641L20.75 2.17969V15.501ZM6 14.751C4.75736 14.751 3.75 15.7583 3.75 17.001C3.75 18.2436 4.75736 19.251 6 19.251C7.24264 19.251 8.25 18.2436 8.25 17.001C8.25 15.7583 7.24264 14.751 6 14.751ZM17 13.751C15.7574 13.751 14.75 14.7583 14.75 16.001C14.75 17.2436 15.7574 18.251 17 18.251C18.2426 18.251 19.25 17.2436 19.25 16.001C19.25 14.7583 18.2426 13.751 17 13.751ZM9.75 4.68555V7.17871L19.25 6.31543V3.82227L9.75 4.68555Z" fill="currentColor"/>
</svg>