<svg width="24" height="24" viewBox="0 0 24 24" fill="none" xmlns="http://www.w3.org/2000/svg">
<path fill-rule="evenodd" clip-rule="evenodd" d="M21 15.501H20.9678C20.9882 15.6648 21 15.8316 21 16.001C21 18.2101 19.2091 20.001 17 20.001C14.7909 20.001 13 18.2101 13 16.001C13 13.7918 14.7909 12.001 17 12.001C17.7288 12.001 18.4116 12.1966 19 12.5371V8.5957L10 9.41406V16.501H9.96777C9.98821 16.6648 10 16.8316 10 17.001C10 19.2101 8.20914 21.001 6 21.001C3.79086 21.001 2 19.2101 2 17.001C2 14.7918 3.79086 13.001 6 13.001C6.72875 13.001 7.41155 13.1966 8 13.5371V3.08789L21 1.90625V15.501ZM6 15.001C4.89543 15.001 4 15.8964 4 17.001C4 18.1055 4.89543 19.001 6 19.001C7.10457 19.001 8 18.1055 8 17.001C8 15.8964 7.10457 15.001 6 15.001ZM17 14.001C15.8954 14.001 15 14.8964 15 16.001C15 17.1055 15.8954 18.001 17 18.001C18.1046 18.001 19 17.1055 19 16.001C19 14.8964 18.1046 14.001 17 14.001ZM10 4.91406V7.40527L19 6.58691V4.0957L10 4.91406Z" fill="currentColor"/>
</svg>