<svg width="24" height="24" viewBox="0 0 24 24" fill="none" xmlns="http://www.w3.org/2000/svg">
<path fill-rule="evenodd" clip-rule="evenodd" d="M12 7.5C14.7614 7.5 17 9.73858 17 12.5C17 15.2614 14.7614 17.5 12 17.5C9.23858 17.5 7 15.2614 7 12.5C7 9.73858 9.23858 7.5 12 7.5ZM12 9.5C10.3431 9.5 9 10.8431 9 12.5C9 14.1569 10.3431 15.5 12 15.5C13.6569 15.5 15 14.1569 15 12.5C15 10.8431 13.6569 9.5 12 9.5Z" fill="currentColor"/>
<path fill-rule="evenodd" clip-rule="evenodd" d="M14.0635 2.5C14.9537 2.50007 15.7982 2.89523 16.3682 3.5791L17.9688 5.5H19.5C21.1569 5.5 22.5 6.84315 22.5 8.5V18C22.5 19.6569 21.1569 21 19.5 21H4.5C2.84315 21 1.5 19.6569 1.5 18V8.5C1.5 6.84315 2.84315 5.5 4.5 5.5H6.03125L7.63184 3.5791C8.20177 2.89523 9.0463 2.50007 9.93652 2.5H14.0635ZM9.93652 4.5C9.64003 4.50007 9.35889 4.63173 9.16895 4.85938L7.26855 7.14062C7.07856 7.36856 6.79674 7.5 6.5 7.5H4.5C3.94772 7.5 3.5 7.94772 3.5 8.5V18C3.5 18.5523 3.94772 19 4.5 19H19.5C20.0523 19 20.5 18.5523 20.5 18V8.5C20.5 7.94772 20.0523 7.5 19.5 7.5H17.5C17.2033 7.5 16.9214 7.36856 16.7314 7.14062L14.8311 4.85938C14.6411 4.63173 14.36 4.50007 14.0635 4.5H9.93652Z" fill="currentColor"/>
</svg>