<svg width="24" height="24" viewBox="0 0 24 24" fill="none" xmlns="http://www.w3.org/2000/svg">
<path fill-rule="evenodd" clip-rule="evenodd" d="M15.5 1.5C16.0523 1.5 16.5 1.94772 16.5 2.5V3H16.7998C17.3433 3 17.8117 2.99893 18.1953 3.03027C18.5906 3.06259 18.984 3.13441 19.3623 3.32715C19.9265 3.61473 20.3853 4.07348 20.6729 4.6377C20.8656 5.01599 20.9374 5.40943 20.9697 5.80469C21.0011 6.18836 21 6.65665 21 7.2002V16.7998C21 17.3434 21.0011 17.8116 20.9697 18.1953C20.9374 18.5906 20.8656 18.984 20.6729 19.3623C20.3853 19.9265 19.9265 20.3853 19.3623 20.6729C18.984 20.8656 18.5906 20.9374 18.1953 20.9697C17.8116 21.0011 17.3434 21 16.7998 21H7.2002C6.65666 21 6.18836 21.0011 5.80469 20.9697C5.40944 20.9374 5.01599 20.8656 4.6377 20.6729C4.07348 20.3853 3.61473 19.9265 3.32715 19.3623C3.1344 18.984 3.06259 18.5906 3.03028 18.1953C2.99893 17.8116 3.00001 17.3434 3 16.7998V7.2002C3 6.65664 2.99893 6.18836 3.03028 5.80469C3.06259 5.40944 3.13441 5.01599 3.32715 4.6377C3.61473 4.07347 4.07347 3.61472 4.6377 3.32715C5.01601 3.13439 5.40942 3.06258 5.80469 3.03027C6.18836 2.99893 6.65665 3 7.2002 3H7.5V2.5C7.5 1.94772 7.94773 1.50001 8.5 1.5C9.05229 1.5 9.5 1.94772 9.5 2.5V3H14.5V2.5C14.5 1.94772 14.9477 1.50001 15.5 1.5ZM5 16.7998C5.00001 17.3764 5.00029 17.7489 5.02344 18.0322C5.04564 18.3039 5.08419 18.4047 5.10938 18.4541C5.20522 18.6421 5.35794 18.7948 5.5459 18.8906C5.59534 18.9158 5.6962 18.9534 5.96778 18.9756C6.25111 18.9987 6.62366 19 7.2002 19H16.7998C17.3764 19 17.7489 18.9987 18.0322 18.9756C18.3038 18.9534 18.4047 18.9158 18.4541 18.8906C18.6421 18.7948 18.7948 18.6421 18.8906 18.4541C18.9158 18.4047 18.9534 18.3038 18.9756 18.0322C18.9987 17.7489 19 17.3764 19 16.7998V10.5H5V16.7998ZM7.2002 5C6.62366 5 6.25111 5.00126 5.96778 5.02441C5.69617 5.04661 5.59534 5.08418 5.5459 5.10938C5.35793 5.20521 5.20522 5.35793 5.10938 5.5459C5.08419 5.59534 5.04564 5.69614 5.02344 5.96777C5.00029 6.25111 5 6.62364 5 7.2002V8.5H19V7.2002C19 6.62365 18.9987 6.25111 18.9756 5.96777C18.9534 5.69619 18.9158 5.59534 18.8906 5.5459C18.7948 5.35794 18.6421 5.20522 18.4541 5.10938C18.4047 5.08419 18.3037 5.04661 18.0322 5.02441C17.7489 5.00127 17.3763 5 16.7998 5H16.5V5.5C16.5 6.05228 16.0523 6.5 15.5 6.5C14.9477 6.49999 14.5 6.05228 14.5 5.5V5H9.5V5.5C9.5 6.05228 9.05229 6.5 8.5 6.5C7.94773 6.49999 7.5 6.05228 7.5 5.5V5H7.2002Z" fill="currentColor"/>
</svg>