<svg width="24" height="24" viewBox="0 0 24 24" fill="none" xmlns="http://www.w3.org/2000/svg">
<path fill-rule="evenodd" clip-rule="evenodd" d="M15.5 1.75C15.9142 1.75 16.25 2.08579 16.25 2.5V3.25H16.7998C17.3475 3.25 17.8037 3.24898 18.1748 3.2793C18.5545 3.31033 18.9109 3.37809 19.2481 3.5498C19.7655 3.81345 20.1865 4.23451 20.4502 4.75195C20.6219 5.08907 20.6887 5.4455 20.7197 5.8252C20.7501 6.19632 20.75 6.65252 20.75 7.2002V16.7998C20.75 17.3475 20.751 17.8037 20.7207 18.1748C20.6897 18.5545 20.6219 18.9109 20.4502 19.248C20.1865 19.7655 19.7655 20.1865 19.2481 20.4502C18.9109 20.6219 18.5545 20.6897 18.1748 20.7207C17.8037 20.751 17.3475 20.75 16.7998 20.75H7.2002C6.65253 20.75 6.19633 20.751 5.8252 20.7207C5.44547 20.6897 5.0891 20.6219 4.75196 20.4502C4.23452 20.1865 3.81346 19.7655 3.54981 19.248C3.3781 18.9109 3.31033 18.5545 3.2793 18.1748C3.24898 17.8037 3.25001 17.3475 3.25 16.7998V7.2002C3.25 6.65252 3.24898 6.19632 3.2793 5.8252C3.31033 5.44546 3.37809 5.0891 3.54981 4.75195C3.81346 4.23451 4.23451 3.81346 4.75196 3.5498C5.0891 3.3781 5.44547 3.31033 5.8252 3.2793C6.19633 3.24897 6.65252 3.25 7.2002 3.25H7.75V2.5C7.75 2.08579 8.08579 1.75 8.5 1.75C8.91422 1.75 9.25 2.08579 9.25 2.5V3.25H14.75V2.5C14.75 2.08579 15.0858 1.75 15.5 1.75ZM4.75 10.25V16.7998C4.75001 17.3722 4.75024 17.7569 4.77442 18.0527C4.79788 18.3397 4.84059 18.4768 4.88672 18.5674C5.00655 18.8025 5.19751 18.9935 5.43262 19.1133C5.52316 19.1594 5.66027 19.2021 5.94727 19.2256C6.24315 19.2498 6.62778 19.25 7.2002 19.25H16.7998C17.3722 19.25 17.7569 19.2498 18.0527 19.2256C18.3397 19.2021 18.4768 19.1594 18.5674 19.1133C18.8025 18.9935 18.9935 18.8025 19.1133 18.5674C19.1594 18.4768 19.2021 18.3397 19.2256 18.0527C19.2498 17.7569 19.25 17.3722 19.25 16.7998V10.25H4.75ZM7.2002 4.75C6.62777 4.75 6.24315 4.75024 5.94727 4.77441C5.66024 4.79788 5.52317 4.84058 5.43262 4.88672C5.19745 5.00656 5.00558 5.19744 4.88575 5.43262C4.83967 5.52316 4.79786 5.66055 4.77442 5.94727C4.75025 6.24314 4.75 6.62777 4.75 7.2002V8.75H19.25V7.2002C19.25 6.62777 19.2498 6.24314 19.2256 5.94727C19.2021 5.66027 19.1594 5.52316 19.1133 5.43262C18.9935 5.19751 18.8025 5.00655 18.5674 4.88672C18.4769 4.84059 18.3397 4.79788 18.0527 4.77441C17.7569 4.75024 17.3722 4.75 16.7998 4.75H16.25V5.5C16.25 5.91421 15.9142 6.25 15.5 6.25C15.0858 6.25 14.75 5.91421 14.75 5.5V4.75H9.25V5.5C9.25 5.91421 8.91422 6.25 8.5 6.25C8.08579 6.25 7.75 5.91421 7.75 5.5V4.75H7.2002Z" fill="currentColor"/>
</svg>