<svg width="24" height="24" viewBox="0 0 24 24" fill="none" xmlns="http://www.w3.org/2000/svg">
<path d="M19.5 10.2499C19.9142 10.2499 20.25 10.5857 20.25 10.9999V13.9999C20.25 16.6233 18.1233 18.7499 15.5 18.7499H9.81055L11.5303 20.4697C11.8231 20.7626 11.8232 21.2373 11.5303 21.5302C11.2374 21.8231 10.7626 21.8231 10.4697 21.5302L7.46973 18.5302C7.17684 18.2373 7.17686 17.7626 7.46973 17.4697L10.4697 14.4697C10.7626 14.1768 11.2374 14.1768 11.5303 14.4697C11.8231 14.7626 11.8232 15.2373 11.5303 15.5302L9.81055 17.2499H15.5C17.2949 17.2499 18.75 15.7948 18.75 13.9999V10.9999C18.75 10.5857 19.0858 10.2499 19.5 10.2499Z" fill="currentColor"/>
<path d="M12.4697 2.46967C12.7626 2.17678 13.2374 2.17678 13.5303 2.46967L16.5303 5.46967C16.8231 5.76257 16.8232 6.23733 16.5303 6.53022L13.5303 9.53022C13.2374 9.82307 12.7626 9.82307 12.4697 9.53022C12.1768 9.23733 12.1769 8.76257 12.4697 8.46967L14.1895 6.74994H8.5C6.70507 6.74994 5.25 8.20502 5.25 9.99994V12.9999C5.24997 13.4141 4.91419 13.7499 4.5 13.7499C4.08581 13.7499 3.75003 13.4141 3.75 12.9999V9.99994C3.75 7.37659 5.87665 5.24994 8.5 5.24994H14.1895L12.4697 3.53022C12.1768 3.23733 12.1769 2.76257 12.4697 2.46967Z" fill="currentColor"/>
</svg>