<svg width="24" height="24" viewBox="0 0 24 24" fill="none" xmlns="http://www.w3.org/2000/svg">
<path d="M19.5 9.99992C20.0523 9.99992 20.5 10.4476 20.5 10.9999V13.9999C20.5 16.7613 18.2614 18.9999 15.5 18.9999H10.4141L11.707 20.2929C12.0975 20.6834 12.0975 21.3164 11.707 21.707C11.3165 22.0974 10.6835 22.0974 10.293 21.707L7.29297 18.707C6.90246 18.3164 6.90248 17.6834 7.29297 17.2929L10.293 14.2929C10.6835 13.9024 11.3165 13.9024 11.707 14.2929C12.0975 14.6834 12.0975 15.3164 11.707 15.707L10.4141 16.9999H15.5C17.1568 16.9999 18.5 15.6567 18.5 13.9999V10.9999C18.5 10.4476 18.9477 9.99992 19.5 9.99992Z" fill="currentColor"/>
<path d="M12.293 2.29289C12.6835 1.90237 13.3165 1.90237 13.707 2.29289L16.707 5.29289C17.0975 5.68342 17.0975 6.31645 16.707 6.70696L13.707 9.70696C13.3165 10.0974 12.6835 10.0974 12.293 9.70696C11.9025 9.31644 11.9025 8.68342 12.293 8.29289L13.5859 6.99992H8.5C6.84315 6.99992 5.5 8.34307 5.5 9.99992V12.9999C5.49996 13.5522 5.05226 13.9999 4.5 13.9999C3.94774 13.9999 3.50004 13.5522 3.5 12.9999V9.99992C3.5 7.2385 5.73858 4.99992 8.5 4.99992H13.5859L12.293 3.70696C11.9025 3.31644 11.9025 2.68342 12.293 2.29289Z" fill="currentColor"/>
</svg>