<svg width="24" height="24" viewBox="0 0 24 24" fill="none" xmlns="http://www.w3.org/2000/svg">
<path fill-rule="evenodd" clip-rule="evenodd" d="M13 4.75C14.5188 4.75 15.75 5.98122 15.75 7.5V8.09863L19.8066 5.39453L19.9658 5.30371C20.7725 4.91682 21.75 5.49874 21.75 6.43457V17.5654C21.75 18.5638 20.6373 19.1593 19.8066 18.6055L15.75 15.9004V16.5C15.75 18.0188 14.5188 19.25 13 19.25H4C2.48122 19.25 1.25 18.0188 1.25 16.5V7.5C1.25 5.98122 2.48122 4.75 4 4.75H13ZM4 6.25C3.30964 6.25 2.75 6.80964 2.75 7.5V16.5C2.75 17.1904 3.30964 17.75 4 17.75H13C13.6904 17.75 14.25 17.1904 14.25 16.5V7.5C14.25 6.80964 13.6904 6.25 13 6.25H4ZM15.75 9.90137V14.0977L20.25 17.0977V6.90137L15.75 9.90137Z" fill="currentColor"/>
</svg>