<svg width="24" height="24" viewBox="0 0 24 24" fill="none" xmlns="http://www.w3.org/2000/svg">
<path d="M12 2C17.5228 2 22 6.47715 22 12C22 13.8215 21.5093 15.5295 20.6572 17.001L21.2686 19.4492C21.5429 20.5477 20.5476 21.5422 19.4492 21.2676L17.0029 20.6553C15.531 21.5081 13.8226 22 12 22C6.47715 22 2 17.5228 2 12C2 6.47715 6.47715 2 12 2ZM8 13C7.44772 13 7 13.4477 7 14C7 14.5523 7.44772 15 8 15H12.5C13.0523 15 13.5 14.5523 13.5 14C13.5 13.4477 13.0523 13 12.5 13H8ZM8 9C7.44772 9 7 9.44772 7 10C7 10.5523 7.44772 11 8 11H16C16.5523 11 17 10.5523 17 10C17 9.44772 16.5523 9 16 9H8Z" fill="currentColor"/>
</svg>