<svg width="24" height="24" viewBox="0 0 24 24" fill="none" xmlns="http://www.w3.org/2000/svg">
<path d="M8 10.75C8.69036 10.75 9.25 11.3096 9.25 12C9.25 12.6904 8.69036 13.25 8 13.25C7.30964 13.25 6.75 12.6904 6.75 12C6.75 11.3096 7.30964 10.75 8 10.75Z" fill="currentColor"/>
<path d="M12 10.75C12.6904 10.75 13.25 11.3096 13.25 12C13.25 12.6904 12.6904 13.25 12 13.25C11.3096 13.25 10.75 12.6904 10.75 12C10.75 11.3096 11.3096 10.75 12 10.75Z" fill="currentColor"/>
<path d="M16 10.75C16.6904 10.75 17.25 11.3096 17.25 12C17.25 12.6904 16.6904 13.25 16 13.25C15.3096 13.25 14.75 12.6904 14.75 12C14.75 11.3096 15.3096 10.75 16 10.75Z" fill="currentColor"/>
<path fill-rule="evenodd" clip-rule="evenodd" d="M12 2C17.5228 2 22 6.47715 22 12C22 13.6178 21.6133 15.1476 20.9297 16.501C20.9128 16.5347 20.9185 16.5503 20.917 16.5439L21.5664 19.1406C21.9323 20.6053 20.6052 21.9317 19.1406 21.5654L16.5449 20.916C16.5512 20.9175 16.5359 20.9126 16.502 20.9297C15.1485 21.6136 13.6184 22 12 22C6.47715 22 2 17.5228 2 12C2 6.47715 6.47715 2 12 2ZM12 4C7.58172 4 4 7.58172 4 12C4 16.4183 7.58172 20 12 20C13.2964 20 14.518 19.6911 15.5996 19.1445C16.0209 18.9316 16.5275 18.8498 17.0303 18.9756L19.626 19.625L18.9766 17.0283C18.8511 16.5259 18.9319 16.0197 19.1445 15.5986C19.6907 14.5173 20 13.2962 20 12C20 7.58172 16.4183 4 12 4Z" fill="currentColor"/>
</svg>