<svg width="24" height="24" viewBox="0 0 24 24" fill="none" xmlns="http://www.w3.org/2000/svg">
<path fill-rule="evenodd" clip-rule="evenodd" d="M20.8238 10.4753C22.0107 11.1448 22.0107 12.8546 20.8238 13.5241L6.62749 21.5319C4.76949 22.5794 2.6326 20.6947 3.43999 18.7204L6.15093 12.0944C6.1757 12.0338 6.1757 11.9656 6.15093 11.905L3.43999 5.279C2.63226 3.30451 4.76937 1.41979 6.62749 2.46747L20.8238 10.4753ZM20.0875 12.2175C20.2566 12.1218 20.2566 11.8776 20.0875 11.7819L5.89116 3.77411C5.27197 3.42513 4.55903 4.0527 4.82768 4.71064L7.50347 11.2497L11.9996 11.2497C12.4138 11.2497 12.7496 11.5855 12.7496 11.9997C12.7495 12.4138 12.4137 12.7497 11.9996 12.7497L7.50347 12.7497L4.82768 19.2888C4.55937 19.9465 5.2721 20.574 5.89116 20.2253L20.0875 12.2175Z" fill="currentColor"/>
</svg>