<svg width="24" height="24" viewBox="0 0 24 24" fill="none" xmlns="http://www.w3.org/2000/svg">
<path fill-rule="evenodd" clip-rule="evenodd" d="M13.293 2.25C13.6245 2.25002 13.9424 2.38181 14.1768 2.61621L20.3838 8.82324C20.6182 9.05764 20.75 9.37554 20.75 9.70703V19C20.75 20.5188 19.5188 21.75 18 21.75H6C4.48122 21.75 3.25 20.5188 3.25 19V5C3.25 3.48122 4.48122 2.25 6 2.25H13.293ZM6 3.75C5.30964 3.75 4.75 4.30964 4.75 5V19C4.75 19.6904 5.30964 20.25 6 20.25H18C18.6904 20.25 19.25 19.6904 19.25 19V10.75H15C13.4812 10.75 12.25 9.51878 12.25 8V3.75H6ZM13.75 8C13.75 8.69036 14.3096 9.25 15 9.25H18.6895L13.75 4.31055V8Z" fill="currentColor"/>
</svg>