<svg width="24" height="24" viewBox="0 0 24 24" fill="none" xmlns="http://www.w3.org/2000/svg">
<path d="M21 12.4998C21.5523 12.4998 22 12.9475 22 13.4998V19.4998C21.9999 20.6042 21.1045 21.4998 20 21.4998H4C2.89551 21.4998 2.00013 20.6042 2 19.4998V13.4998C2 12.9475 2.44772 12.4998 3 12.4998C3.55228 12.4998 4 12.9475 4 13.4998V19.4998H20V13.4998C20 12.9475 20.4477 12.4998 21 12.4998Z" fill="currentColor"/>
<path d="M11.3691 2.22437C11.7619 1.90402 12.3409 1.92662 12.707 2.29273L17.207 6.79273C17.4929 7.07873 17.5786 7.50896 17.4238 7.88258C17.269 8.25606 16.9043 8.49975 16.5 8.49977H13V13.9998C12.9999 14.5519 12.5522 14.9998 12 14.9998C11.4478 14.9998 11.0001 14.5519 11 13.9998V8.49977H7.5C7.09566 8.49977 6.73103 8.25606 6.57617 7.88258C6.42141 7.50895 6.50706 7.07873 6.79297 6.79273L11.293 2.29273L11.3691 2.22437Z" fill="currentColor"/>
</svg>