<svg width="24" height="24" viewBox="0 0 24 24" fill="none" xmlns="http://www.w3.org/2000/svg">
<path d="M6.86931 3.72461C7.26208 3.40434 7.84111 3.42688 8.2072 3.79297L11.7072 7.29297C12.0976 7.68347 12.0976 8.31653 11.7072 8.70703C11.3167 9.09753 10.6837 9.09747 10.2931 8.70703L8.50017 6.91406V19.5C8.50017 20.0522 8.05238 20.4999 7.50017 20.5C6.94788 20.5 6.50017 20.0523 6.50017 19.5V6.91406L4.7072 8.70703C4.3167 9.09753 3.68367 9.09747 3.29314 8.70703C2.90261 8.31651 2.90261 7.68349 3.29314 7.29297L6.79314 3.79297L6.86931 3.72461Z" fill="currentColor"/>
<path d="M16.5002 3.5C17.0524 3.50009 17.5002 3.94777 17.5002 4.5V17.0859L19.2931 15.293C19.6837 14.9025 20.3167 14.9025 20.7072 15.293C21.0976 15.6835 21.0976 16.3165 20.7072 16.707L17.2072 20.207C16.8411 20.5731 16.2621 20.5957 15.8693 20.2754L15.7931 20.207L12.2931 16.707C11.9026 16.3165 11.9026 15.6835 12.2931 15.293C12.6837 14.9025 13.3167 14.9025 13.7072 15.293L15.5002 17.0859V4.5C15.5002 3.94771 15.9479 3.5 16.5002 3.5Z" fill="currentColor"/>
</svg>