<svg width="24" height="24" viewBox="0 0 24 24" fill="none" xmlns="http://www.w3.org/2000/svg">
<path d="M6.49993 5.75C6.45528 5.75 6.41159 5.75423 6.36907 5.76172C6.36323 5.76275 6.35732 5.76348 6.3515 5.76465C6.33812 5.76733 6.32554 5.77298 6.31243 5.77637C6.2792 5.78495 6.24583 5.79343 6.2138 5.80664C6.16349 5.82743 6.1163 5.85404 6.0722 5.88477C6.03632 5.90978 6.00167 5.93771 5.96966 5.96973C5.92127 6.01812 5.88389 6.07321 5.8515 6.12988C5.83597 6.15703 5.81965 6.18375 5.80755 6.21289C5.78684 6.26288 5.77206 6.3146 5.76263 6.36719C5.75491 6.41034 5.74993 6.45462 5.74993 6.5V17C5.74993 17.4142 6.08575 17.75 6.49993 17.75C6.91415 17.75 7.24993 17.4142 7.24993 17V8.31055L17.4697 18.5303C17.7625 18.8232 18.2373 18.8231 18.5302 18.5303C18.8231 18.2374 18.8231 17.7626 18.5302 17.4697L8.31048 7.25H16.9999C17.4141 7.25 17.7499 6.91421 17.7499 6.5C17.7499 6.08579 17.4141 5.75 16.9999 5.75H6.49993Z" fill="currentColor"/>
</svg>