<svg width="24" height="24" viewBox="0 0 24 24" fill="none" xmlns="http://www.w3.org/2000/svg">
<path d="M12.6309 16.2754C12.2381 16.5957 11.6591 16.5731 11.293 16.207L5.29297 10.207C5.00698 9.92104 4.9214 9.49085 5.07617 9.11719C5.23098 8.7436 5.5956 8.50001 6 8.5L11 8.5L11 3C11 2.44772 11.4477 2 12 2C12.5523 2 13 2.44771 13 3L13 8.5L18 8.5C18.4044 8.5 18.769 8.74359 18.9238 9.11719C19.0786 9.49086 18.993 9.92103 18.707 10.207L12.707 16.207L12.6309 16.2754Z" fill="currentColor"/>
<path d="M5 21C4.44772 21 4 20.5523 4 20C4 19.4477 4.44771 19 5 19H19C19.5523 19 20 19.4477 20 20C20 20.5523 19.5523 21 19 21H5Z" fill="currentColor"/>
</svg>