<svg width="24" height="24" viewBox="0 0 24 24" fill="none" xmlns="http://www.w3.org/2000/svg">
<path d="M12.0001 3.25C12.4143 3.25003 12.7501 3.5858 12.7501 4V18.1895L18.9698 11.9697C19.2627 11.6769 19.7375 11.6768 20.0303 11.9697C20.3232 12.2626 20.3232 12.7374 20.0303 13.0303L12.5303 20.5303L12.4737 20.582C12.1791 20.8223 11.7444 20.8049 11.4698 20.5303L3.96979 13.0303C3.6769 12.7374 3.6769 12.2626 3.96979 11.9697C4.26269 11.6769 4.73745 11.6768 5.03034 11.9697L11.2501 18.1895V4C11.2501 3.58579 11.5859 3.25 12.0001 3.25Z" fill="currentColor"/>
<path d="M12 4L12 19.5" stroke="currentColor" stroke-width="1.5" stroke-linecap="round" stroke-linejoin="round"/>
<path d="M19.5 12.5L12 20L4.5 12.5" stroke="currentColor" stroke-width="1.5" stroke-linecap="round" stroke-linejoin="round"/>
</svg>