<svg width="24" height="24" viewBox="0 0 24 24" fill="none" xmlns="http://www.w3.org/2000/svg">
<path d="M21 12.7501C21.4142 12.7501 21.7499 13.0859 21.75 13.5001V19.5001C21.75 20.4666 20.9665 21.2501 20 21.2501H4C3.0335 21.2501 2.25 20.4666 2.25 19.5001V13.5001C2.25006 13.0859 2.58582 12.7501 3 12.7501C3.41418 12.7501 3.74994 13.0859 3.75 13.5001V19.5001C3.75 19.6381 3.86193 19.7501 4 19.7501H20C20.1381 19.7501 20.25 19.6381 20.25 19.5001V13.5001C20.2501 13.0859 20.5858 12.7501 21 12.7501Z" fill="currentColor"/>
<path d="M11.5264 2.41803C11.8209 2.17779 12.2557 2.19526 12.5303 2.46979L17.0303 6.96979C17.3231 7.26267 17.3231 7.73744 17.0303 8.03034C16.7374 8.32323 16.2626 8.32323 15.9697 8.03034L12.75 4.81061V14.0001C12.75 14.4143 12.4142 14.7501 12 14.7501C11.5858 14.7501 11.25 14.4143 11.25 14.0001V4.81061L8.03027 8.03034C7.73738 8.32323 7.26262 8.32323 6.96973 8.03034C6.67689 7.73744 6.67685 7.26266 6.96973 6.96979L11.4697 2.46979L11.5264 2.41803Z" fill="currentColor"/>
</svg>