<svg width="24" height="24" viewBox="0 0 24 24" fill="none" xmlns="http://www.w3.org/2000/svg">
<path d="M7.02642 3.91803C7.32099 3.67781 7.75575 3.69524 8.03032 3.96979L11.5303 7.46979C11.8232 7.76265 11.8231 8.23744 11.5303 8.53034C11.2374 8.82323 10.7627 8.82323 10.4698 8.53034L8.25005 6.31061V19.5001C8.25005 19.9143 7.91424 20.25 7.50005 20.2501C7.08584 20.2501 6.75005 19.9143 6.75005 19.5001V6.31061L4.53032 8.53034C4.23743 8.82323 3.76267 8.82323 3.46978 8.53034C3.17691 8.23744 3.17689 7.76267 3.46978 7.46979L6.96978 3.96979L7.02642 3.91803Z" fill="currentColor"/>
<path d="M16.5 3.75006C16.9142 3.75009 17.25 4.08592 17.25 4.50006V17.6895L19.4698 15.4698C19.7627 15.177 20.2375 15.177 20.5303 15.4698C20.8232 15.7627 20.8231 16.2374 20.5303 16.5303L17.0303 20.0303C16.7557 20.3049 16.321 20.3224 16.0264 20.0821L15.9698 20.0303L12.4698 16.5303C12.1769 16.2374 12.1769 15.7627 12.4698 15.4698C12.7627 15.177 13.2375 15.177 13.5303 15.4698L15.75 17.6895V4.50006C15.7501 4.0859 16.0859 3.75006 16.5 3.75006Z" fill="currentColor"/>
</svg>