<svg width="24" height="24" viewBox="0 0 24 24" fill="none" xmlns="http://www.w3.org/2000/svg">
<path d="M9.75017 12.9999C9.79536 12.9999 9.84 13.0021 9.88396 13.0068C10.177 12.9727 10.4823 13.068 10.7072 13.2929C10.9318 13.5176 11.0262 13.8223 10.9924 14.1152C10.9971 14.1594 11.0002 14.2044 11.0002 14.2499V18.8964C11.0001 20.0099 9.65382 20.5675 8.86638 19.7802L7.25017 18.164L4.2072 21.207C3.8167 21.5974 3.18366 21.5974 2.79313 21.207C2.40261 20.8164 2.40262 20.1834 2.79313 19.7929L5.8361 16.7499L4.21989 15.1337C3.43248 14.3463 3.99008 13 5.10368 12.9999H9.75017Z" fill="currentColor"/>
<path d="M19.7931 2.79289C20.1837 2.40237 20.8167 2.40237 21.2072 2.79289C21.5976 3.18342 21.5977 3.81646 21.2072 4.20695L18.1642 7.24992L19.7804 8.86613C20.5678 9.65358 20.0102 10.9998 18.8967 10.9999H14.2502C14.2046 10.9999 14.1597 10.9969 14.1154 10.9921C13.8226 11.026 13.5178 10.9316 13.2931 10.707C13.0683 10.4821 12.9729 10.1768 13.007 9.88371C13.0023 9.83976 13.0002 9.79511 13.0002 9.74992V5.10344C13.0002 3.98983 14.3465 3.43223 15.134 4.21965L16.7502 5.83586L19.7931 2.79289Z" fill="currentColor"/>
</svg>