<svg width="24" height="24" viewBox="0 0 24 24" fill="none" xmlns="http://www.w3.org/2000/svg">
<path d="M20.2754 6.86907C20.5957 7.26184 20.5731 7.84086 20.207 8.20696L16.707 11.707C16.3165 12.0974 15.6835 12.0974 15.293 11.707C14.9025 11.3164 14.9025 10.6834 15.293 10.2929L17.0859 8.49992L4.5 8.49992C3.94774 8.49992 3.50004 8.05217 3.5 7.49992C3.5 6.94764 3.94772 6.49992 4.5 6.49992L17.0859 6.49992L15.293 4.70696C14.9025 4.31644 14.9025 3.68342 15.293 3.29289C15.6835 2.90237 16.3165 2.90237 16.707 3.29289L20.207 6.79289L20.2754 6.86907Z" fill="currentColor"/>
<path d="M20.5 16.4999C20.5 17.0522 20.0523 17.4999 19.5 17.4999L6.91406 17.4999L8.70703 19.2929C9.09752 19.6834 9.09754 20.3164 8.70703 20.707C8.31652 21.0974 7.68348 21.0974 7.29297 20.707L3.79297 17.207C3.60545 17.0194 3.50002 16.7651 3.5 16.4999C3.5 16.2678 3.58075 16.0441 3.72656 15.8661L3.79297 15.7929L7.29297 12.2929C7.68349 11.9024 8.31651 11.9024 8.70703 12.2929C9.09752 12.6834 9.09754 13.3164 8.70703 13.707L6.91406 15.4999L19.5 15.4999C20.0523 15.4999 20.5 15.9476 20.5 16.4999Z" fill="currentColor"/>
</svg>