<svg width="24" height="24" viewBox="0 0 24 24" fill="none" xmlns="http://www.w3.org/2000/svg">
<path d="M18.707 5.29289C18.3165 4.90237 17.6834 4.90237 17.2929 5.29289L11.75 10.8359L8.0605 7.1464C7.11557 6.20153 5.50001 6.87066 5.49995 8.20695V16.9999C5.49996 17.0941 5.51068 17.1859 5.5273 17.2753C5.45269 17.5999 5.54006 17.9541 5.79292 18.207C6.04579 18.4598 6.40002 18.5472 6.72456 18.4726C6.81395 18.4892 6.90576 18.4999 6.99995 18.4999H15.7929C17.1292 18.4999 17.7983 16.8843 16.8535 15.9394L13.164 12.2499L18.707 6.70695C19.0975 6.31643 19.0975 5.68341 18.707 5.29289Z" fill="currentColor"/>
</svg>