<svg width="24" height="24" viewBox="0 0 24 24" fill="none" xmlns="http://www.w3.org/2000/svg">
<path d="M7.026 3.91797C7.32052 3.67771 7.75529 3.69528 8.0299 3.96973L11.5299 7.46973C11.7444 7.68421 11.809 8.00687 11.693 8.28711C11.5769 8.5673 11.3029 8.75 10.9996 8.75H8.49963V19.5C8.49963 20.0523 8.05192 20.5 7.49963 20.5C6.9475 20.4998 6.49963 20.0522 6.49963 19.5V8.75H3.99963C3.69641 8.74987 3.42231 8.56726 3.30627 8.28711C3.19032 8.00697 3.25504 7.68418 3.46936 7.46973L6.96936 3.96973L7.026 3.91797Z" fill="currentColor"/>
<path d="M16.4996 3.5C17.0519 3.5 17.4996 3.94771 17.4996 4.5V15.25H19.9996C20.3029 15.25 20.5769 15.4327 20.693 15.7129C20.809 15.9931 20.7444 16.3158 20.5299 16.5303L17.0299 20.0303C16.7553 20.3047 16.3205 20.3223 16.026 20.082L15.9694 20.0303L12.4694 16.5303C12.255 16.3158 12.1903 15.993 12.3063 15.7129C12.4223 15.4327 12.6964 15.2501 12.9996 15.25H15.4996V4.5C15.4996 3.94782 15.9475 3.50018 16.4996 3.5Z" fill="currentColor"/>
</svg>