<svg width="24" height="24" viewBox="0 0 24 24" fill="none" xmlns="http://www.w3.org/2000/svg">
<path d="M9.29297 13.293C9.68349 12.9024 10.3165 12.9024 10.707 13.293C11.0976 13.6835 11.0976 14.3165 10.707 14.707L6.41406 19H9.5C10.0523 19 10.5 19.4477 10.5 20C10.5 20.5523 10.0523 21 9.5 21H4C3.73478 21 3.4805 20.8946 3.29297 20.707C3.10543 20.5195 3 20.2652 3 20V14.5C3 13.9477 3.44772 13.5 4 13.5C4.55228 13.5 5 13.9477 5 14.5V17.5859L9.29297 13.293Z" fill="currentColor"/>
<path d="M20 3C20.5523 3 21 3.44772 21 4V9.5C21 10.0523 20.5523 10.5 20 10.5C19.4477 10.5 19 10.0523 19 9.5V6.41406L14.707 10.707C14.3165 11.0976 13.6835 11.0976 13.293 10.707C12.9024 10.3165 12.9024 9.68349 13.293 9.29297L17.5859 5H14.5C13.9477 5 13.5 4.55228 13.5 4C13.5 3.44772 13.9477 3 14.5 3H20Z" fill="currentColor"/>
</svg>