<svg width="24" height="24" viewBox="0 0 24 24" fill="none" xmlns="http://www.w3.org/2000/svg">
<path d="M20.082 7.02661C20.3223 7.32114 20.3047 7.75591 20.0303 8.03052L16.5303 11.5305C16.3158 11.745 15.9931 11.8096 15.7129 11.6936C15.4678 11.592 15.2977 11.3696 15.2588 11.1125L15.25 11.0002V8.50024L4.5 8.50024C3.94771 8.50024 3.5 8.05253 3.5 7.50024C3.50017 6.94811 3.94782 6.50024 4.5 6.50024L15.25 6.50024V4.00024C15.2501 3.69702 15.4327 3.42293 15.7129 3.30689C15.993 3.19093 16.3158 3.25565 16.5303 3.46997L20.0303 6.96997L20.082 7.02661Z" fill="currentColor"/>
<path d="M20.5 16.5002C20.5 17.0525 20.0523 17.5002 19.5 17.5002L8.75 17.5002V20.0002C8.75 20.3036 8.5673 20.5775 8.28711 20.6936C8.00687 20.8096 7.68421 20.745 7.46973 20.5305L3.96973 17.0305C3.82917 16.8899 3.75 16.6991 3.75 16.5002C3.75006 16.3512 3.7945 16.2064 3.87598 16.0842L3.96973 15.97L7.46973 12.47C7.68418 12.2556 8.00697 12.1909 8.28711 12.3069C8.56727 12.4229 8.74987 12.697 8.75 13.0002V15.5002L19.5 15.5002C20.0522 15.5002 20.4998 15.9481 20.5 16.5002Z" fill="currentColor"/>
</svg>