<svg width="24" height="24" viewBox="0 0 24 24" fill="none" xmlns="http://www.w3.org/2000/svg">
<path d="M5 3C5.55228 3 6 3.44772 6 4V9.5L6.00391 9.6543C6.08421 11.2394 7.39489 12.5 9 12.5H13.25V8C13.25 7.69666 13.4326 7.42273 13.7129 7.30664C13.9931 7.1906 14.3158 7.25525 14.5303 7.46973L20.0303 12.9697C20.3231 13.2626 20.3232 13.7374 20.0303 14.0303L14.5303 19.5303C14.3158 19.7447 13.9931 19.8094 13.7129 19.6934C13.4326 19.5773 13.25 19.3033 13.25 19V14.5H9C6.32472 14.5 4.14053 12.3989 4.00684 9.75684L4 9.5V4C4 3.44772 4.44772 3 5 3Z" fill="currentColor"/>
</svg>