<svg width="24" height="24" viewBox="0 0 24 24" fill="none" xmlns="http://www.w3.org/2000/svg">
<path d="M18.5302 5.46967C18.2373 5.17678 17.7626 5.17678 17.4697 5.46967L7.24994 15.6894V6.99994C7.24994 6.58573 6.91415 6.24994 6.49994 6.24994C6.08575 6.24998 5.74994 6.58575 5.74994 6.99994V17.4999C5.74994 17.5447 5.75513 17.5882 5.76263 17.6308C5.77199 17.6838 5.78677 17.7357 5.80755 17.7861C5.82839 17.8364 5.85489 17.8835 5.88568 17.9277C5.91062 17.9634 5.93778 17.9983 5.96966 18.0302C6.00155 18.0621 6.03648 18.0893 6.0722 18.1142C6.11633 18.145 6.16344 18.1715 6.2138 18.1923C6.24586 18.2056 6.27917 18.214 6.31244 18.2226C6.32556 18.226 6.33811 18.2316 6.3515 18.2343C6.35733 18.2355 6.36322 18.2362 6.36908 18.2372C6.41164 18.2448 6.45522 18.2499 6.49994 18.2499H16.9999C17.4141 18.2499 17.7499 17.9141 17.7499 17.4999C17.7499 17.0857 17.4141 16.7499 16.9999 16.7499H8.31048L18.5302 6.53022C18.8231 6.23733 18.8231 5.76256 18.5302 5.46967Z" fill="currentColor"/>
</svg>