<svg width="24" height="24" viewBox="0 0 24 24" fill="none" xmlns="http://www.w3.org/2000/svg">
<path d="M12.2499 11.9999C12.2499 12.1989 12.1709 12.3896 12.0302 12.5302L4.03022 20.5302C3.73732 20.8231 3.26256 20.8231 2.96967 20.5302C2.67678 20.2373 2.67678 19.7626 2.96967 19.4697L10.4394 11.9999L2.96967 4.53022C2.67678 4.23732 2.67678 3.76256 2.96967 3.46967C3.26256 3.17678 3.73732 3.17678 4.03022 3.46967L12.0302 11.4697L12.124 11.5839C12.2055 11.7062 12.2499 11.8508 12.2499 11.9999Z" fill="currentColor"/>
<path d="M21.7499 11.9999C21.7499 12.1989 21.6709 12.3896 21.5302 12.5302L13.5302 20.5302C13.2373 20.8231 12.7626 20.8231 12.4697 20.5302C12.1768 20.2373 12.1768 19.7626 12.4697 19.4697L19.9394 11.9999L12.4697 4.53022C12.1768 4.23732 12.1768 3.76256 12.4697 3.46967C12.7626 3.17678 13.2373 3.17678 13.5302 3.46967L21.5302 11.4697L21.624 11.5839C21.7055 11.7062 21.7499 11.8508 21.7499 11.9999Z" fill="currentColor"/>
</svg>