<svg width="24" height="24" viewBox="0 0 24 24" fill="none" xmlns="http://www.w3.org/2000/svg">
<path d="M14.5605 3.43934C13.9747 2.85355 13.0252 2.85355 12.4394 3.43934C11.8537 4.02513 11.8537 4.97468 12.4394 5.56043L18.8789 11.9999L12.4394 18.4393C11.8537 19.0251 11.8537 19.9747 12.4394 20.5604C13.0252 21.1462 13.9747 21.1461 14.5605 20.5604L22.0605 13.0604C22.6095 12.5114 22.6441 11.6427 22.164 11.0536L22.0605 10.9393L14.5605 3.43934Z" fill="currentColor"/>
<path d="M5.06051 3.43934C4.47473 2.85355 3.52521 2.85355 2.93942 3.43934C2.35372 4.02513 2.35366 4.97468 2.93942 5.56043L9.37887 11.9999L2.93942 18.4393C2.35372 19.0251 2.35366 19.9747 2.93942 20.5604C3.52518 21.1462 4.47473 21.1461 5.06051 20.5604L12.5605 13.0604C13.1095 12.5114 13.1441 11.6427 12.664 11.0536L12.5605 10.9393L5.06051 3.43934Z" fill="currentColor"/>
</svg>