<svg width="24" height="24" viewBox="0 0 24 24" fill="none" xmlns="http://www.w3.org/2000/svg">
<path d="M8.96973 5.96967C9.26262 5.67678 9.73738 5.67678 10.0303 5.96967C10.3231 6.26257 10.3232 6.73733 10.0303 7.03022L5.06055 11.9999L10.0303 16.9697C10.3231 17.2626 10.3232 17.7373 10.0303 18.0302C9.73739 18.3231 9.26261 18.3231 8.96973 18.0302L3.46973 12.5302C3.32909 12.3896 3.25001 12.1988 3.25 11.9999C3.25 11.8508 3.29446 11.7062 3.37598 11.5839L3.46973 11.4697L8.96973 5.96967Z" fill="currentColor"/>
<path d="M17.4697 5.96967C17.7626 5.67678 18.2374 5.67678 18.5303 5.96967C18.8231 6.26257 18.8232 6.73733 18.5303 7.03022L13.5605 11.9999L18.5303 16.9697C18.8231 17.2626 18.8232 17.7373 18.5303 18.0302C18.2374 18.3231 17.7626 18.3231 17.4697 18.0302L11.9697 12.5302C11.8291 12.3896 11.75 12.1988 11.75 11.9999C11.75 11.8508 11.7945 11.7062 11.876 11.5839L11.9697 11.4697L17.4697 5.96967Z" fill="currentColor"/>
</svg>