<svg width="24" height="24" viewBox="0 0 24 24" fill="none" xmlns="http://www.w3.org/2000/svg">
<path d="M15.2071 5.79289C14.8165 5.40237 14.1835 5.40237 13.793 5.79289C13.4025 6.18342 13.4025 6.81645 13.793 7.20696L18.586 11.9999L13.793 16.7929C13.4025 17.1834 13.4025 17.8164 13.793 18.207C14.1835 18.5974 14.8165 18.5974 15.2071 18.207L20.7071 12.707C20.8946 12.5194 21 12.2651 21 11.9999C21 11.7679 20.9193 11.5441 20.7735 11.3661L20.7071 11.2929L15.2071 5.79289Z" fill="currentColor"/>
<path d="M6.70706 5.79289C6.31653 5.40237 5.68352 5.40237 5.29299 5.79289C4.90251 6.18342 4.90248 6.81645 5.29299 7.20696L10.086 11.9999L5.29299 16.7929C4.90251 17.1834 4.90248 17.8164 5.29299 18.207C5.68351 18.5974 6.31654 18.5974 6.70706 18.207L12.2071 12.707C12.3946 12.5194 12.5 12.2651 12.5 11.9999C12.5 11.7679 12.4193 11.5441 12.2735 11.3661L12.2071 11.2929L6.70706 5.79289Z" fill="currentColor"/>
</svg>