<svg width="24" height="24" viewBox="0 0 24 24" fill="none" xmlns="http://www.w3.org/2000/svg">
<path fill-rule="evenodd" clip-rule="evenodd" d="M10.2002 3.59972C11.2667 2.80009 12.7333 2.80009 13.7998 3.59972L19 7.50011C20.259 8.44436 21 9.92637 21 11.5001V18.5001C21 19.8808 19.8807 21.0001 18.5 21.0001H16C14.6193 21.0001 13.5 19.8808 13.5 18.5001V16.5001C13.4999 16.224 13.2761 16.0001 13 16.0001H11C10.7239 16.0001 10.5001 16.224 10.5 16.5001V18.5001C10.5 19.8808 9.38071 21.0001 8 21.0001H5.5C4.11929 21.0001 3 19.8808 3 18.5001V11.5001C3.00004 9.92637 3.74101 8.44436 5 7.50011L10.2002 3.59972ZM12.5996 5.2003C12.2441 4.93386 11.7559 4.93386 11.4004 5.2003L6.2002 9.09972C5.44481 9.66626 5.00004 10.5559 5 11.5001V18.5001C5 18.7763 5.22386 19.0001 5.5 19.0001H8C8.27614 19.0001 8.5 18.7763 8.5 18.5001V16.5001C8.50007 15.1195 9.61933 14.0001 11 14.0001H13C14.3807 14.0001 15.4999 15.1195 15.5 16.5001V18.5001C15.5 18.7763 15.7239 19.0001 16 19.0001H18.5C18.7761 19.0001 19 18.7763 19 18.5001V11.5001C19 10.5559 18.5552 9.66626 17.7998 9.09972L12.5996 5.2003Z" fill="currentColor"/>
</svg>