<svg width="24" height="24" viewBox="0 0 24 24" fill="none" xmlns="http://www.w3.org/2000/svg">
<path d="M17.4396 4.43934C18.0254 3.85355 18.9749 3.85355 19.5607 4.43934C20.1464 5.02513 20.1464 5.97468 19.5607 6.56043L14.1212 11.9999L19.5607 17.4393C20.1464 18.0251 20.1464 18.9747 19.5607 19.5604C18.9749 20.1462 18.0254 20.1461 17.4396 19.5604L12.0001 14.121L6.56068 19.5604C5.97493 20.1462 5.02538 20.1461 4.43958 19.5604C3.8538 18.9746 3.8538 18.0251 4.43958 17.4393L9.87904 11.9999L4.43958 6.56043C3.8538 5.97465 3.8538 5.02513 4.43958 4.43934C5.02537 3.85355 5.97489 3.85355 6.56068 4.43934L12.0001 9.87879L17.4396 4.43934Z" fill="currentColor"/>
</svg>