<svg width="24" height="24" viewBox="0 0 24 24" fill="none" xmlns="http://www.w3.org/2000/svg">
<path d="M18.293 4.29289C18.6835 3.90237 19.3166 3.90237 19.7071 4.29289C20.0975 4.68342 20.0976 5.31646 19.7071 5.70696L13.4141 11.9999L19.7071 18.2929C20.0975 18.6834 20.0976 19.3165 19.7071 19.707C19.3166 20.0975 18.6835 20.0974 18.293 19.707L12 13.414L5.70708 19.707C5.31658 20.0975 4.68355 20.0974 4.29302 19.707C3.90249 19.3164 3.90249 18.6834 4.29302 18.2929L10.586 11.9999L4.29302 5.70696C3.90249 5.31643 3.90249 4.68342 4.29302 4.29289C4.68354 3.90237 5.31655 3.90237 5.70708 4.29289L12 10.5859L18.293 4.29289Z" fill="currentColor"/>
</svg>