<svg width="24" height="24" viewBox="0 0 24 24" fill="none" xmlns="http://www.w3.org/2000/svg">
<path d="M12 2C9.47082 2 7.16271 2.94014 5.40234 4.4873L3.70703 2.79297C3.42103 2.50698 2.99086 2.42139 2.61719 2.57617C2.2436 2.73099 2 3.09559 2 3.5V9C2 9.55228 2.44773 9.99998 3 10H8.5C8.90441 10 9.26901 9.75641 9.42383 9.38281C9.57861 9.00914 9.49303 8.57897 9.20703 8.29297L6.81934 5.9043C8.21565 4.7164 10.0245 4 12 4C16.4183 4 20 7.58172 20 12C20 16.4183 16.4183 20 12 20C8.63282 20 5.74936 17.9192 4.56934 14.9697C4.36416 14.4571 3.7822 14.2081 3.26953 14.4131C2.7568 14.6182 2.50685 15.2002 2.71191 15.7129C4.18533 19.3956 7.78748 22 12 22C17.5228 22 22 17.5228 22 12C22 6.47715 17.5228 2 12 2Z" fill="currentColor"/>
</svg>