<svg width="24" height="24" viewBox="0 0 24 24" fill="none" xmlns="http://www.w3.org/2000/svg">
<path d="M8 13.25C11.1756 13.25 13.75 15.8244 13.75 19C13.75 19.4142 13.4142 19.75 13 19.75C12.5858 19.75 12.25 19.4142 12.25 19C12.25 16.6528 10.3472 14.75 8 14.75C5.65279 14.75 3.75 16.6528 3.75 19C3.75 19.4142 3.41421 19.75 3 19.75C2.58579 19.75 2.25 19.4142 2.25 19C2.25 15.8244 4.82436 13.25 8 13.25Z" fill="currentColor"/>
<path d="M17 13.25C20.1756 13.25 22.75 15.8244 22.75 19C22.75 19.4142 22.4142 19.75 22 19.75C21.5858 19.75 21.25 19.4142 21.25 19C21.25 16.6528 19.3472 14.75 17 14.75C15.9363 14.75 14.9642 15.1412 14.2188 15.7871C13.9858 15.3371 13.7069 14.9147 13.3857 14.5283C14.3733 13.7291 15.6306 13.25 17 13.25Z" fill="currentColor"/>
<path fill-rule="evenodd" clip-rule="evenodd" d="M8 4.25C10.0711 4.25 11.75 5.92893 11.75 8C11.75 10.0711 10.0711 11.75 8 11.75C5.92893 11.75 4.25 10.0711 4.25 8C4.25 5.92893 5.92893 4.25 8 4.25ZM8 5.75C6.75736 5.75 5.75 6.75736 5.75 8C5.75 9.24264 6.75736 10.25 8 10.25C9.24264 10.25 10.25 9.24264 10.25 8C10.25 6.75736 9.24264 5.75 8 5.75Z" fill="currentColor"/>
<path fill-rule="evenodd" clip-rule="evenodd" d="M17 4.25C19.0711 4.25 20.75 5.92893 20.75 8C20.75 10.0711 19.0711 11.75 17 11.75C14.9289 11.75 13.25 10.0711 13.25 8C13.25 5.92893 14.9289 4.25 17 4.25ZM17 5.75C15.7574 5.75 14.75 6.75736 14.75 8C14.75 9.24264 15.7574 10.25 17 10.25C18.2426 10.25 19.25 9.24264 19.25 8C19.25 6.75736 18.2426 5.75 17 5.75Z" fill="currentColor"/>
</svg>