<svg width="24" height="24" viewBox="0 0 24 24" fill="none" xmlns="http://www.w3.org/2000/svg">
<path d="M12 10C13.1046 10 14 10.8954 14 12C14 13.1046 13.1046 14 12 14C10.8954 14 10 13.1046 10 12C10 10.8954 10.8954 10 12 10Z" fill="currentColor"/>
<path fill-rule="evenodd" clip-rule="evenodd" d="M12 2C17.4844 2 21.9353 6.41502 21.9971 11.8848C22.0019 11.9248 22.0049 11.9655 22.0049 12.0068C22.0048 12.0482 22.001 12.0889 21.9961 12.1289C21.9271 17.5923 17.4798 22 12 22C6.47715 22 2 17.5228 2 12C2 6.47715 6.47715 2 12 2ZM13 6C13 6.55228 12.5523 7 12 7C11.4477 7 11 6.55228 11 6V4.06348C7.37984 4.51499 4.51285 7.38405 4.06348 11.0049H6C6.55219 11.0049 6.99993 11.4527 7 12.0049C7 12.5571 6.55223 13.0048 6 13.0049H4.06445C4.51775 16.6211 7.38314 19.4844 11 19.9355V18C11 17.4477 11.4477 17 12 17C12.5523 17 13 17.4477 13 18V19.9355C16.6175 19.4843 19.483 16.62 19.9355 13.0029L17.998 13C17.4459 12.9989 16.9991 12.5502 17 11.998C17.0011 11.4459 17.4498 10.9991 18.002 11L19.9355 11.0029C19.4853 7.38306 16.6195 4.51491 13 4.06348V6Z" fill="currentColor"/>
</svg>