<svg width="24" height="24" viewBox="0 0 24 24" fill="none" xmlns="http://www.w3.org/2000/svg">
<path fill-rule="evenodd" clip-rule="evenodd" d="M12 7.25C14.0711 7.25 15.75 8.92893 15.75 11C15.75 13.0711 14.0711 14.75 12 14.75C9.92893 14.75 8.25 13.0711 8.25 11C8.25 8.92893 9.92893 7.25 12 7.25ZM12 8.75C10.7574 8.75 9.75 9.75736 9.75 11C9.75 12.2426 10.7574 13.25 12 13.25C13.2426 13.25 14.25 12.2426 14.25 11C14.25 9.75736 13.2426 8.75 12 8.75Z" fill="currentColor"/>
<path fill-rule="evenodd" clip-rule="evenodd" d="M12 2.25C16.8325 2.25 20.75 6.16751 20.75 11C20.75 14.0716 19.33 16.4988 17.6953 18.2715C16.064 20.0404 14.18 21.2019 13.1367 21.7676C12.4234 22.1543 11.5766 22.1543 10.8633 21.7676C9.81997 21.2019 7.93599 20.0404 6.30469 18.2715C4.66998 16.4988 3.25 14.0716 3.25 11C3.25 6.16751 7.16751 2.25 12 2.25ZM12 3.75C7.99594 3.75 4.75 6.99594 4.75 11C4.75 13.5767 5.93469 15.6581 7.40723 17.2549C8.88329 18.8555 10.61 19.9243 11.5781 20.4492C11.8454 20.5941 12.1546 20.5941 12.4219 20.4492C13.39 19.9243 15.1167 18.8555 16.5928 17.2549C18.0653 15.6581 19.25 13.5767 19.25 11C19.25 6.99594 16.0041 3.75 12 3.75Z" fill="currentColor"/>
</svg>