<svg width="24" height="24" viewBox="0 0 24 24" fill="none" xmlns="http://www.w3.org/2000/svg">
<path fill-rule="evenodd" clip-rule="evenodd" d="M8.0293 2.74704C8.61712 2.35515 9.38288 2.35515 9.9707 2.74704L14.8613 6.0068C14.9453 6.06278 15.0547 6.06278 15.1387 6.0068L19.0293 3.41305C20.1922 2.63799 21.7497 3.47167 21.75 4.86911V16.9658C21.75 17.5509 21.4575 18.0973 20.9707 18.4218L15.9707 21.7549C15.3829 22.1467 14.6171 22.1467 14.0293 21.7549L9.13867 18.4951C9.0547 18.4391 8.9453 18.4391 8.86133 18.4951L4.9707 21.0888C3.80785 21.8639 2.25027 21.0302 2.25 19.6328V7.5361C2.25001 6.95099 2.54246 6.40461 3.0293 6.08004L8.0293 2.74704ZM9.75 17.122C9.82574 17.158 9.89955 17.1996 9.9707 17.247L14.25 20.0986V7.37887C14.1744 7.34296 14.1003 7.30221 14.0293 7.25485L9.75 4.40231V17.122ZM20.25 4.86911C20.2497 4.66971 20.0274 4.55059 19.8613 4.6611L15.9707 7.25485C15.8997 7.30221 15.8256 7.34296 15.75 7.37887V20.0986L20.1387 17.1738C20.2082 17.1274 20.25 17.0494 20.25 16.9658V4.86911ZM3.86133 7.32809C3.79179 7.37445 3.75001 7.45252 3.75 7.5361V19.6328C3.75027 19.8322 3.97265 19.9513 4.13867 19.8408L8.0293 17.247C8.10045 17.1996 8.17426 17.158 8.25 17.122V4.40231L3.86133 7.32809Z" fill="currentColor"/>
</svg>