<svg width="24" height="24" viewBox="0 0 24 24" fill="none" xmlns="http://www.w3.org/2000/svg">
<path d="M5.89551 4.02716C6.86106 3.59604 8 4.29673 8 5.40119V18.7215C7.99994 19.2386 7.73344 19.7199 7.29492 19.994L4.29492 21.869C3.29594 22.4931 2.00013 21.7745 2 20.5965V7.27619C2 6.75903 2.26655 6.27784 2.70508 6.00372L5.70508 4.12872L5.89551 4.02716Z" fill="currentColor"/>
<path d="M9 5.40119C9 4.29673 10.1389 3.59604 11.1045 4.02716L11.2949 4.12872L14.2949 6.00372C14.7334 6.27784 15 6.75903 15 7.27619V20.5965C14.9999 21.7745 13.7041 22.4931 12.7051 21.869L9.70508 19.994C9.26656 19.7199 9.00006 19.2386 9 18.7215V5.40119Z" fill="currentColor"/>
<path d="M19.8955 4.02716C20.8611 3.59604 22 4.29673 22 5.40119V18.7215C21.9999 19.2386 21.7334 19.7199 21.2949 19.994L18.2949 21.869C17.2959 22.4931 16.0001 21.7745 16 20.5965V7.27619C16 6.75903 16.2666 6.27784 16.7051 6.00372L19.7051 4.12872L19.8955 4.02716Z" fill="currentColor"/>
</svg>