<svg width="24" height="24" viewBox="0 0 24 24" fill="none" xmlns="http://www.w3.org/2000/svg">
<path fill-rule="evenodd" clip-rule="evenodd" d="M9 12.5C10.8142 12.5 12.3273 13.7883 12.6748 15.5H21.25C21.6642 15.5 22 15.8358 22 16.25C22 16.6642 21.6642 17 21.25 17H12.6748C12.3273 18.7117 10.8142 20 9 20C7.18579 20 5.67266 18.7117 5.3252 17H2.75C2.33579 17 2 16.6642 2 16.25C2 15.8358 2.33579 15.5 2.75 15.5H5.3252C5.67266 13.7883 7.18579 12.5 9 12.5ZM9 14C7.75736 14 6.75 15.0074 6.75 16.25C6.75 17.4926 7.75736 18.5 9 18.5C10.2426 18.5 11.25 17.4926 11.25 16.25C11.25 15.0074 10.2426 14 9 14Z" fill="currentColor"/>
<path fill-rule="evenodd" clip-rule="evenodd" d="M15 4C16.8142 4 18.3273 5.28834 18.6748 7H21.25C21.6642 7 22 7.33579 22 7.75C22 8.16421 21.6642 8.5 21.25 8.5H18.6748C18.3273 10.2117 16.8142 11.5 15 11.5C13.1858 11.5 11.6727 10.2117 11.3252 8.5H2.75C2.33579 8.5 2 8.16421 2 7.75C2 7.33579 2.33579 7 2.75 7H11.3252C11.6727 5.28834 13.1858 4 15 4ZM15 5.5C13.7574 5.5 12.75 6.50736 12.75 7.75C12.75 8.99264 13.7574 10 15 10C16.2426 10 17.25 8.99264 17.25 7.75C17.25 6.50736 16.2426 5.5 15 5.5Z" fill="currentColor"/>
</svg>