<svg width="24" height="24" viewBox="0 0 24 24" fill="none" xmlns="http://www.w3.org/2000/svg">
<path fill-rule="evenodd" clip-rule="evenodd" d="M8.75 6C10.2688 6 11.5 7.23122 11.5 8.75C11.5 10.2688 10.2688 11.5 8.75 11.5C7.23122 11.5 6 10.2688 6 8.75C6 7.23122 7.23122 6 8.75 6ZM8.75 8C8.33579 8 8 8.33579 8 8.75C8 9.16421 8.33579 9.5 8.75 9.5C9.16421 9.5 9.5 9.16421 9.5 8.75C9.5 8.33579 9.16421 8 8.75 8Z" fill="currentColor"/>
<path fill-rule="evenodd" clip-rule="evenodd" d="M17.5 2.5C19.7091 2.5 21.5 4.29086 21.5 6.5V17.5C21.5 19.7091 19.7091 21.5 17.5 21.5H6.5C4.29086 21.5 2.5 19.7091 2.5 17.5V6.5C2.5 4.29086 4.29086 2.5 6.5 2.5H17.5ZM17.207 11.1211C16.8165 10.7308 16.1835 10.7308 15.793 11.1211L7.41406 19.5H17.5C18.6046 19.5 19.5 18.6046 19.5 17.5V13.4141L17.207 11.1211ZM6.5 4.5C5.39543 4.5 4.5 5.39543 4.5 6.5V17.5C4.5 18.0739 4.74364 18.5894 5.13086 18.9541L14.3789 9.70703C15.5504 8.53566 17.4496 8.53566 18.6211 9.70703L19.5 10.5859V6.5C19.5 5.39543 18.6046 4.5 17.5 4.5H6.5Z" fill="currentColor"/>
</svg>