<svg width="24" height="24" viewBox="0 0 24 24" fill="none" xmlns="http://www.w3.org/2000/svg">
<path d="M8.75 6.25C10.1307 6.25 11.25 7.36929 11.25 8.75C11.25 10.1307 10.1307 11.25 8.75 11.25C7.36929 11.25 6.25 10.1307 6.25 8.75C6.25 7.36929 7.36929 6.25 8.75 6.25Z" fill="currentColor"/>
<path fill-rule="evenodd" clip-rule="evenodd" d="M17.5 2.5C19.7091 2.5 21.5 4.29086 21.5 6.5V18C21.5 19.0617 20.9464 19.9912 20.1143 20.5244C19.413 21.1311 18.5001 21.5 17.5 21.5H6.5C4.29086 21.5 2.5 19.7091 2.5 17.5V6.5C2.5 4.29086 4.29086 2.5 6.5 2.5H17.5ZM6.5 4.5C5.39543 4.5 4.5 5.39543 4.5 6.5V17.5C4.5 18.0739 4.74364 18.5894 5.13086 18.9541L14.7324 9.35352C15.7087 8.37736 17.2913 8.37736 18.2676 9.35352L19.5 10.5859V6.5C19.5 5.39543 18.6046 4.5 17.5 4.5H6.5Z" fill="currentColor"/>
</svg>