<svg width="24" height="24" viewBox="0 0 24 24" fill="none" xmlns="http://www.w3.org/2000/svg">
<path fill-rule="evenodd" clip-rule="evenodd" d="M9.87695 4.45692C10.6845 3.98529 11.7498 4.55844 11.75 5.54091V18.4608C11.7497 19.5087 10.5371 20.091 9.71875 19.4364L5.73633 16.2509H3.5C2.80968 16.2509 2.25006 15.6912 2.25 15.0009V9.00087C2.25 8.31051 2.80964 7.75087 3.5 7.75087H5.73633L9.71875 4.56532L9.87695 4.45692ZM6.60547 8.97743C6.38388 9.15459 6.10793 9.25087 5.82422 9.25087H3.75V14.7509H5.82422C6.10796 14.7509 6.38387 14.8471 6.60547 15.0243L10.25 17.9403V6.06044L6.60547 8.97743Z" fill="currentColor"/>
<path d="M16.8838 4.99598C17.12 4.65589 17.5875 4.57146 17.9277 4.80751C20.2022 6.38609 21.6943 9.01952 21.6943 12.0009C21.6942 14.9821 20.202 17.6147 17.9277 19.1932C17.5874 19.4294 17.12 19.3451 16.8838 19.0048C16.6479 18.6645 16.7321 18.1969 17.0723 17.9608C18.96 16.6505 20.1942 14.4698 20.1943 12.0009C20.1943 9.53179 18.9602 7.35023 17.0723 6.03993C16.7321 5.80372 16.6476 5.33622 16.8838 4.99598Z" fill="currentColor"/>
<path d="M14.6621 8.28505C14.8983 7.94479 15.3658 7.8604 15.7061 8.09657C16.9396 8.95293 17.7499 10.3824 17.75 12.0009C17.7499 13.6195 16.9398 15.0498 15.7061 15.9061C15.366 16.142 14.8984 16.0573 14.6621 15.7177C14.426 15.3774 14.5105 14.9099 14.8506 14.6737C15.6978 14.0857 16.2499 13.1072 16.25 12.0009C16.2499 10.8947 15.6976 9.91706 14.8506 9.32899C14.5104 9.09284 14.4261 8.62531 14.6621 8.28505Z" fill="currentColor"/>
</svg>