<svg width="24" height="24" viewBox="0 0 24 24" fill="none" xmlns="http://www.w3.org/2000/svg">
<path d="M9.5625 4.37035C10.5444 3.58509 11.9994 4.28407 12 5.54125V18.4612C11.9998 19.7188 10.5446 20.4177 9.5625 19.6321L5.64941 16.5012H3.5C2.67157 16.5012 2 15.8296 2 15.0012V9.00121C2.00026 8.17301 2.67173 7.50121 3.5 7.50121H5.64941L9.5625 4.37035Z" fill="currentColor"/>
<path d="M16.6787 4.85473C16.9937 4.40118 17.6167 4.2889 18.0703 4.60375C20.4091 6.22711 21.9443 8.93548 21.9443 12.0022C21.9442 15.0688 20.4091 17.7774 18.0703 19.4006C17.6166 19.7153 16.9936 19.6022 16.6787 19.1487C16.3638 18.695 16.4761 18.072 16.9297 17.7571C18.7531 16.4915 19.9442 14.3858 19.9443 12.0022C19.9443 9.61844 18.7532 7.51196 16.9297 6.24633C16.4762 5.93141 16.3639 5.30837 16.6787 4.85473Z" fill="currentColor"/>
<path d="M14.457 8.14282C14.772 7.68949 15.3951 7.57705 15.8486 7.89184C17.1466 8.79288 17.9998 10.2974 18 12.0012C18 13.7052 17.1468 15.2104 15.8486 16.1116C15.3951 16.4264 14.772 16.3139 14.457 15.8606C14.1421 15.4069 14.2543 14.7829 14.708 14.468C15.4907 13.9246 16 13.0222 16 12.0012C15.9998 10.9803 15.4907 10.0777 14.708 9.53442C14.2545 9.21947 14.1422 8.59646 14.457 8.14282Z" fill="currentColor"/>
</svg>