<svg width="24" height="24" viewBox="0 0 24 24" fill="none" xmlns="http://www.w3.org/2000/svg">
<path d="M2.25 17.5V5.5C2.25 3.98122 3.48122 2.75 5 2.75H8.17188C8.90111 2.75008 9.60056 3.04001 10.1162 3.55566L11.4443 4.88379C11.6787 5.11814 11.9967 5.24992 12.3281 5.25H19C20.5188 5.25 21.75 6.48122 21.75 8V17.5C21.75 19.0188 20.5188 20.25 19 20.25H5C3.48122 20.25 2.25 19.0188 2.25 17.5ZM3.75 17.5C3.75 18.1904 4.30964 18.75 5 18.75H19C19.6904 18.75 20.25 18.1904 20.25 17.5V8C20.25 7.30964 19.6904 6.75 19 6.75H12.3281C11.5989 6.74992 10.8994 6.45999 10.3838 5.94434L9.05566 4.61621C8.82132 4.38186 8.50329 4.25008 8.17188 4.25H5C4.30964 4.25 3.75 4.80964 3.75 5.5V17.5Z" fill="currentColor"/>
</svg>