<svg width="24" height="24" viewBox="0 0 24 24" fill="none" xmlns="http://www.w3.org/2000/svg">
<path d="M17.5 18.75C18.1904 18.75 18.75 19.3096 18.75 20C18.75 20.6904 18.1904 21.25 17.5 21.25H6.5C5.80964 21.25 5.25 20.6904 5.25 20C5.25 19.3096 5.80964 18.75 6.5 18.75H17.5Z" fill="currentColor"/>
<path d="M11.9951 3.25C12.6854 3.25007 13.2451 3.80968 13.2451 4.5V8.75H17.5C18.1904 8.75 18.75 9.30964 18.75 10C18.75 10.6904 18.1904 11.25 17.5 11.25H13.2451V15.5C13.2451 16.1903 12.6854 16.7499 11.9951 16.75C11.3048 16.75 10.7451 16.1904 10.7451 15.5V11.25H6.5C5.80964 11.25 5.25 10.6904 5.25 10C5.25 9.30964 5.80964 8.75 6.5 8.75H10.7451V4.5C10.7451 3.80964 11.3048 3.25 11.9951 3.25Z" fill="currentColor"/>
</svg>