<svg width="24" height="24" viewBox="0 0 24 24" fill="none" xmlns="http://www.w3.org/2000/svg">
<path d="M18 19.249C18.4142 19.249 18.75 19.5848 18.75 19.999C18.75 20.4132 18.4142 20.749 18 20.749H6C5.58579 20.749 5.25 20.4132 5.25 19.999C5.25 19.5848 5.58579 19.249 6 19.249H18Z" fill="currentColor"/>
<path d="M11.9951 3.25391C12.4092 3.25397 12.7451 3.58979 12.7451 4.00391V9.24902H18C18.4142 9.24902 18.75 9.58481 18.75 9.99902C18.75 10.4132 18.4142 10.749 18 10.749H12.7451V16.0039C12.7451 16.4181 12.4093 16.7538 11.9951 16.7539C11.5809 16.7539 11.2451 16.4181 11.2451 16.0039V10.749H6C5.58579 10.749 5.25 10.4132 5.25 9.99902C5.25 9.58481 5.58579 9.24902 6 9.24902H11.2451V4.00391C11.2452 3.58975 11.5809 3.25391 11.9951 3.25391Z" fill="currentColor"/>
</svg>