<svg width="24" height="24" viewBox="0 0 24 24" fill="none" xmlns="http://www.w3.org/2000/svg">
<path d="M11.9951 7.00488C12.5473 7.00495 12.9951 7.45269 12.9951 8.00488V11H16C16.5523 11 17 11.4477 17 12C17 12.5523 16.5523 13 16 13H12.9951V16.0049C12.9951 16.5571 12.5473 17.0048 11.9951 17.0049C11.4428 17.0049 10.9951 16.5572 10.9951 16.0049V13H8C7.44772 13 7 12.5523 7 12C7 11.4477 7.44772 11 8 11H10.9951V8.00488C10.9952 7.45265 11.4429 7.00488 11.9951 7.00488Z" fill="currentColor"/>
<path fill-rule="evenodd" clip-rule="evenodd" d="M14.0996 2.5C15.2032 2.5 16.0914 2.49903 16.8086 2.55762C17.5373 2.61716 18.1773 2.74327 18.7695 3.04492C19.7103 3.52429 20.4757 4.28966 20.9551 5.23047C21.2567 5.82266 21.3828 6.4627 21.4424 7.19141C21.501 7.90857 21.5 8.79681 21.5 9.90039V14.0996C21.5 15.2032 21.501 16.0914 21.4424 16.8086C21.3828 17.5373 21.2567 18.1773 20.9551 18.7695C20.4757 19.7103 19.7103 20.4757 18.7695 20.9551C18.1773 21.2567 17.5373 21.3828 16.8086 21.4424C16.0914 21.501 15.2032 21.5 14.0996 21.5H9.90039C8.79681 21.5 7.90857 21.501 7.19141 21.4424C6.4627 21.3828 5.82266 21.2567 5.23047 20.9551C4.28966 20.4757 3.52429 19.7103 3.04492 18.7695C2.74327 18.1773 2.61716 17.5373 2.55762 16.8086C2.49903 16.0914 2.5 15.2032 2.5 14.0996V9.90039C2.5 8.79681 2.49903 7.90857 2.55762 7.19141C2.61716 6.4627 2.74327 5.82266 3.04492 5.23047C3.52429 4.28966 4.28966 3.52429 5.23047 3.04492C5.82266 2.74327 6.4627 2.61716 7.19141 2.55762C7.90857 2.49903 8.79681 2.5 9.90039 2.5H14.0996ZM9.90039 4.5C8.76396 4.5 7.97129 4.50041 7.35449 4.55078C6.74933 4.60023 6.40105 4.69296 6.1377 4.82715C5.57347 5.11472 5.11472 5.57347 4.82715 6.1377C4.69296 6.40105 4.60023 6.74933 4.55078 7.35449C4.50041 7.97129 4.5 8.76396 4.5 9.90039V14.0996C4.5 15.236 4.50041 16.0287 4.55078 16.6455C4.60023 17.2507 4.69296 17.5989 4.82715 17.8623C5.11472 18.4265 5.57347 18.8853 6.1377 19.1729C6.40105 19.307 6.74933 19.3998 7.35449 19.4492C7.97129 19.4996 8.76396 19.5 9.90039 19.5H14.0996C15.236 19.5 16.0287 19.4996 16.6455 19.4492C17.2507 19.3998 17.5989 19.307 17.8623 19.1729C18.4265 18.8853 18.8853 18.4265 19.1729 17.8623C19.307 17.5989 19.3998 17.2507 19.4492 16.6455C19.4996 16.0287 19.5 15.236 19.5 14.0996V9.90039C19.5 8.76396 19.4996 7.97129 19.4492 7.35449C19.3998 6.74933 19.307 6.40105 19.1729 6.1377C18.8853 5.57347 18.4265 5.11472 17.8623 4.82715C17.5989 4.69296 17.2507 4.60023 16.6455 4.55078C16.0287 4.50041 15.236 4.5 14.0996 4.5H9.90039Z" fill="currentColor"/>
</svg>